<svg xmlns="http://www.w3.org/2000/svg" viewBox="0 0 64 64">
  <defs>
    <radialGradient id="globe-r" cx="40%" cy="40%" r="60%">
      <stop offset="0%" stop-color="#ff8a80"/>
      <stop offset="60%" stop-color="#e53935"/>
      <stop offset="100%" stop-color="#7f0000"/>
    </radialGradient>
  </defs>
  <!-- Globe -->
  <circle cx="32" cy="32" r="22" fill="url(#globe-r)" stroke="#7f0000" stroke-width="2"/>
  <!-- Meridians -->
  <ellipse cx="32" cy="32" rx="22" ry="10" fill="none" stroke="#fff" stroke-width="1.2" opacity="0.7"/>
  <ellipse cx="32" cy="32" rx="11" ry="22" fill="none" stroke="#fff" stroke-width="1.2" opacity="0.7"/>
  <line x1="10" y1="32" x2="54" y2="32" stroke="#fff" stroke-width="1.2" opacity="0.7"/>
  <line x1="32" y1="10" x2="32" y2="54" stroke="#fff" stroke-width="1.2" opacity="0.7"/>
  <!-- Bug overlay -->
  <ellipse cx="44" cy="44" rx="8" ry="7" fill="#3e2723" stroke="#000" stroke-width="1"/>
  <line x1="44" y1="37" x2="44" y2="51" stroke="#fff" stroke-width="0.8" opacity="0.5"/>
  <!-- Bug legs -->
  <line x1="36" y1="40" x2="33" y2="38" stroke="#3e2723" stroke-width="1.5" stroke-linecap="round"/>
  <line x1="36" y1="44" x2="32" y2="44" stroke="#3e2723" stroke-width="1.5" stroke-linecap="round"/>
  <line x1="36" y1="48" x2="33" y2="50" stroke="#3e2723" stroke-width="1.5" stroke-linecap="round"/>
  <line x1="52" y1="40" x2="55" y2="38" stroke="#3e2723" stroke-width="1.5" stroke-linecap="round"/>
  <line x1="52" y1="44" x2="56" y2="44" stroke="#3e2723" stroke-width="1.5" stroke-linecap="round"/>
  <line x1="52" y1="48" x2="55" y2="50" stroke="#3e2723" stroke-width="1.5" stroke-linecap="round"/>
  <!-- Bug eyes -->
  <circle cx="42" cy="41" r="1" fill="#ff1744"/>
  <circle cx="46" cy="41" r="1" fill="#ff1744"/>
</svg>
