<svg xmlns="http://www.w3.org/2000/svg" viewBox="0 0 64 64">
  <defs>
    <radialGradient id="flameOuter" cx="50%" cy="60%" r="50%">
      <stop offset="0%" stop-color="#ff80ab"/>
      <stop offset="50%" stop-color="#e91e63"/>
      <stop offset="100%" stop-color="#880e4f"/>
    </radialGradient>
    <radialGradient id="flameInner" cx="50%" cy="65%" r="40%">
      <stop offset="0%" stop-color="#fce4ec"/>
      <stop offset="60%" stop-color="#f48fb1"/>
      <stop offset="100%" stop-color="#ad1457"/>
    </radialGradient>
  </defs>
  <!-- Outer flame -->
  <path d="M 32 6
           C 22 18, 14 26, 14 38
           C 14 50, 22 58, 32 58
           C 42 58, 50 50, 50 38
           C 50 32, 46 28, 42 22
           C 40 28, 36 30, 34 26
           C 34 22, 36 16, 32 6 Z"
        fill="url(#flameOuter)"
        stroke="#4a0072"
        stroke-width="1.2"/>
  <!-- Inner flame -->
  <path d="M 32 22
           C 27 30, 23 36, 23 42
           C 23 50, 28 54, 32 54
           C 36 54, 41 50, 41 42
           C 41 38, 38 36, 36 32
           C 34 36, 32 36, 31 32
           C 31 28, 33 26, 32 22 Z"
        fill="url(#flameInner)"
        opacity="0.85"/>
  <!-- Center spark -->
  <ellipse cx="32" cy="44" rx="3" ry="5" fill="#fff" opacity="0.7"/>
</svg>
