<svg width="512" height="512" version="1.1" viewBox="0 0 135.47 135.47" xmlns="http://www.w3.org/2000/svg" xmlns:xlink="http://www.w3.org/1999/xlink"><defs><linearGradient id="a" x1="219.89" x2="184.08" y1="125.97" y2="103.53" gradientTransform="matrix(1.2556 0 0 1.2556 -198.9 -80.726)" gradientUnits="userSpaceOnUse"><stop stop-color="#367bf0" offset="0"/><stop stop-color="#bf2e5e" offset="1"/></linearGradient></defs><g fill-rule="evenodd"><rect x="8.2021" y="8.2021" width="119.06" height="119.06" rx="15.875" ry="15.875" fill="#272a34"/><path d="m50.975 37.837c-0.3512-0.01731-0.74649-0.0088-1.2328 6.49e-4 -4.4941 0.08697-9.9816 3.046-14.29 7.4235-0.59904 0.60862-1.2042 1.1652-1.6721 1.552-0.23396 0.19343-0.43525 0.3442-0.5645 0.42954-0.01587 0.01042-0.0305 0.02011-0.04412 0.02855 0.06514-0.0043 0.13069-0.0065 0.1966-0.0065-0.11693 0-0.18387 0.01004-0.2219 0.02141-0.0278 0.01657-0.04618 0.02637-0.04801 0.02725v-6.49e-4c0.0014-0.0035 0.0113-0.01567 0.04801-0.02661 0.0078-0.0046 0.01615-0.0093 0.0253-0.01493-0.70355 0.04553-1.3667 0.33078-2.0796 0.72671-0.7788 0.43258-1.6019 1.0251-2.4351 1.7285-1.6665 1.4069-3.3672 3.2565-4.6302 5.1772-0.64079 0.9745-1.2223 2.1761-1.6623 3.3305-0.44001 1.1545-0.75266 2.2032-0.75266 3.119 0 0.55749 0.1838 0.71828 0.34584 0.97846 0.16204 0.26018 0.36433 0.53159 0.60278 0.82663 0.4769 0.59008 1.0953 1.2652 1.7415 1.9173s1.3155 1.277 1.9005 1.7584c0.29248 0.2407 0.56037 0.44665 0.81885 0.61057 0.25847 0.16392 0.41615 0.35102 0.98106 0.35102-0.02348 0 0.50136 0.18612 0.56385 0.24267 0.32805 0.29688 0.65742 0.43718 1.0349 0.57877 0.3775 0.14159 0.78583 0.25132 1.1997 0.30431 0.48974 0.06273 1.5479 0.35493 2.0471 0.57099 1.1089 0.47998 2.8911 0.82498 4.8144 1.0888 1.9233 0.26378 3.89 0.41323 5.2479 0.30431 1.3038-0.10462 3.2326-0.4794 4.527-0.87789 1.9966-0.61464 3.6047-1.2354 4.7969-1.8589 1.1922-0.62352 2.0876-1.1336 2.3638-2.234 0.07765-0.30922 0.12041-0.60566 0.12522-0.89281 0.0024-0.14358-0.0036-0.28368-0.03439-0.44641-0.03069-0.16272-0.04624-0.36919-0.32637-0.6495-0.23827-0.23836-0.4289-0.26102-0.54698-0.28225-0.11808-0.02123-0.19149-0.01881-0.25954-0.01687-0.13611 0.0039-0.23963 0.02104-0.35297 0.04152-0.22668 0.04096-0.47991 0.1037-0.77992 0.18882-0.60002 0.17022-1.3685 0.42494-2.1899 0.7306-4.2428 1.5789-5.7617 1.946-7.8796 1.9446-3.8066-0.0023-9.5549-1.4147-12.72-2.9107 1.1473-0.089 2.0941-0.18624 5.1252-0.22061 3.5088-0.03979 5.4776-0.07677 6.6825-0.17389 0.60245-0.04857 1.016-0.10364 1.395-0.23099 0.37906-0.12736 0.76133-0.42174 0.94213-0.70854 0.14424-0.22882 0.26733-0.48062 0.31145-0.79938 0.04412-0.31876-0.03013-0.71389-0.2232-1.0057-0.38614-0.58364-0.9426-0.73842-1.5449-0.86297-0.96473-0.19948-2.6668-0.14972-4.5465-0.0837 1.1625-0.62338 1.8949-1.3988 2.2904-2.5428 0.31873-0.92186 0.4988-1.8638 0.26927-2.7784-0.27388-1.0912-1.129-1.719-2.0718-2.2904-0.23979-0.14534-0.53308-0.13244-0.7877-0.255 0.89304 0.09131 1.6779 0.08223 2.6953 0.32118l2.7024 0.63263a0.9635 0.9635 0 0 0 0.64755-0.07332l2.0108-0.99858 0.28484-0.1395c-0.12715 0.68478-0.2509 1.344-0.42435 2.2781-0.13059 0.70327-0.22895 1.3677-0.28679 1.8979-0.02892 0.26509-0.04926 0.49495-0.05451 0.69686-0.0026 0.10096-0.0016 0.19336 0.0078 0.30172 0.0093 0.10836-0.04013 0.20052 0.16156 0.52686 0.20203 0.32689 0.47604 0.43948 0.66507 0.49832 0.18903 0.05884 0.34078 0.07156 0.48988 0.07591 0.2982 0.0087 0.58547-0.02761 0.88308-0.08824 0.59522-0.12128 1.187-0.29168 1.724-0.71373 0.2767-0.21746 0.34978-0.39082 0.43927-0.56904 0.08949-0.17822 0.15905-0.36416 0.22515-0.56644 0.13219-0.40458 0.23858-0.87076 0.30431-1.3561 0.85379-6.304 1.2206-7.5091 3.2027-10.391 0.68532-0.99629 1.1439-1.7215 1.2166-2.6071 0.07271-0.88556-0.38586-1.6496-0.97392-2.332-0.39285-0.45588-0.8368-0.88256-1.4541-1.0719-0.30864-0.09467-0.61558-0.13776-0.96678-0.15508zm22.337 0.94991c-2.9767-0.02393-5.8677 0.17156-7.9017 0.64755-4.1449 0.97001-7.5879 2.3284-10.025 3.9164-2.4365 1.5875-4.0264 3.4994-3.8081 5.6502l0.10512 1.0271a0.9635 0.9635 0 0 0 1.5378 0.67221l1.8272-1.3782c6.9504-5.2412 17.455-7.0944 26.919-4.6672 9.3236 2.3911 17.957 9.1901 22.948 18.116 5.0075 8.9543 5.2859 21.691 0.66507 31.066-3.5306 7.1636-9.1043 11.874-14.881 13.657-5.7764 1.7833-11.72 0.70404-16.323-3.8107-2.3762-2.3307-3.4427-4.2-4.0144-6.9673-0.96371-4.6644 1.1591-9.2296 5.0909-11.148 2.036-0.99366 5.3254-1.0548 7.2418-0.17389 2.3372 1.0744 3.5142 2.1695 4.3311 3.9236 1.7178 3.6889-0.12438 7.9807-3.5979 8.8139-1.4308 0.34325-1.1394 0.37455-2.5331-0.31923-1.4081-0.70098-2.0431-1.5308-2.3741-3.1216-0.06955-0.33426 0.06626-0.94721 0.39255-1.4398 0.32629-0.49258 0.80262-0.79194 1.0349-0.81884 0.35828-0.04148 0.66127 0.08293 0.83117 0.23813 0.1699 0.1552 0.20883 0.26643 0.16676 0.43408-0.1989 0.79246-0.22702 1.557 0.15248 2.2314s1.1824 1.0297 1.942 1.0297c0.89258 0 1.7376-0.44805 2.2392-1.1498 0.50159-0.70171 0.71373-1.5962 0.71373-2.5973 0-0.60986-0.07289-1.1946-0.35362-1.7383-0.28074-0.54369-0.69449-0.97569-1.2724-1.5254-2.4807-2.3599-5.7645-2.2013-7.9386-0.50286-2.1741 1.6984-3.3533 4.8694-2.2314 8.2202 2.0345 6.0765 10.197 7.8439 14.814 3.2592 2.947-2.926 4.1212-6.919 3.1294-10.79-2.152-8.4002-12.062-12.23-19.766-7.7148-2.2454 1.3159-4.6229 4.0037-5.7481 6.4593-1.7301 3.7754-1.5315 9.2587 0.38736 13.341 1.5871 3.3765 5.7393 7.4489 9.3804 9.3064 3.8003 1.9388 9.7057 2.5526 14.115 1.5131 4.6859-1.1047 9.8447-4.125 13.36-7.794 6.6463-6.9361 10.491-17.495 9.9319-27.243-1.0565-18.426-14.212-33.882-32.219-37.85-2.2662-0.49933-5.2949-0.7482-8.2715-0.77213zm-25.154 4.0391c-0.46097 0.69949-0.96559 1.4731-1.373 2.2366-1.3138 2.4622-3.4175 3.3216-6.3496 2.5234-0.24211-0.06592-0.34462-0.09839-0.52946-0.14988 1.3714-1.3269 5.0831-3.5815 7.5435-4.3946 0.26469-0.08748 0.46294-0.13989 0.70854-0.21542zm17.346 4.7723c-1.2809 0-2.367 0.98763-2.367 2.2904 0 1.018 0.69424 1.841 1.5183 2.1308s1.8714 0.08886 2.5208-0.69362c0.61586-0.74208 0.50343-1.6389 0.20633-2.3248-0.2971-0.6859-0.89546-1.4028-1.8784-1.4028zm12.269 0.06618c-0.80529-0.02504-1.8051-0.01758-3.0684 0.0072-2.0838 0.04066-3.2808 0.07448-4.1027 0.18622-0.41092 0.05586-0.74155 0.12927-1.0615 0.28744-0.31996 0.15817-0.59607 0.44089-0.74293 0.68129-0.20418 0.33422-0.41418 0.88943-0.23813 1.4177 0.17605 0.5283 0.50538 0.78039 0.86297 1.0738 0.37494 0.3077 0.81538 0.56381 1.3146 0.66507 0.49918 0.10126 0.9925 0.0613 1.5624-0.02984 0.54022-0.08638 2.7346-0.21677 4.5562-0.23553 1.5792-0.01627 2.4011-0.01193 3.0678-0.15183 0.33332-0.06996 0.70377-0.20831 0.97846-0.52492s0.33463-0.66321 0.3653-0.87789c0.04486-0.31394 0.07008-0.65703-0.04867-1.042-0.11875-0.38502-0.42896-0.75738-0.77732-0.96354-0.69672-0.41231-1.46-0.45557-2.6681-0.49312zm-47.144 6.094c-0.79062 1.418-1.0029 3.2147 0.08111 4.6003 0.32884 0.42033 0.83658 0.67484 1.3094 0.96159-0.6011-0.03547-0.88228-0.01989-1.4787-0.06358-1.2309-0.09016-2.4069-0.19164-3.2786-0.28744-0.15145-0.01665-0.22922-0.02996-0.36076-0.04607 0.03803-0.06691 0.0453-0.09458 0.08824-0.16676 0.41942-0.70501 1.0613-1.654 1.7636-2.6142 0.61672-0.84319 1.2699-1.6601 1.8758-2.3839zm27.238 0.8143c-2.5685 0-3.9845 0.01042-4.9267 0.1077-0.4711 0.04864-0.83936 0.11874-1.1822 0.26473-0.34284 0.14598-0.62446 0.3854-0.80652 0.58656-0.5462 0.60356-0.81958 1.4682-0.56644 2.2658 0.06763 0.21306 0.24012 0.62176 0.59824 0.87789 0.35812 0.25613 0.72307 0.32462 1.1601 0.37763 0.87415 0.10602 2.2215 0.10512 4.8385 0.10512 1.4926 0 2.8496 0.01983 3.823 0.05191 0.09183 3e-3 0.12864 0.0065 0.21347 0.0098-0.10944 0.20143-0.19447 0.37418-0.32897 0.60083-0.50738 0.85505-1.1621 1.8255-1.6455 2.4105-0.7385 0.89382-1.9126 2.5585-2.7096 3.8282-0.59932 0.95475-0.97537 1.469-1.2114 1.6896-0.23603 0.22059-0.3114 0.24643-0.76759 0.32897-3.6267 0.6562-6.5023 3.7538-6.6137 7.2833-0.03699 1.1714 0.15506 2.1978 0.65663 3.0139 0.50158 0.81612 1.4063 1.3807 2.3936 1.3807 0.37785 0 0.73125-0.0599 1.0622-0.18427 0.33091-0.12437 0.73642-0.25379 0.9538-0.88049 0.18452-0.53193 0.08627-0.7438 0.03439-1.0914-0.05188-0.34757-0.14261-0.72704-0.26473-1.1011-0.1627-0.49818-0.22774-1.4304-0.2232-1.4586 0.04864-0.30212 0.40732-0.90954 1.0836-1.4787 0.67625-0.56918 1.6245-1.1076 2.6635-1.4567 0.66838-0.22456 1.3075-0.50456 1.8466-0.79743 0.53908-0.29287 0.96277-0.51874 1.3217-1.0154 1.5289-2.1159 3.2068-4.6489 4.5322-6.785 0.66268-1.0681 1.2371-2.0366 1.6623-2.8108 0.21262-0.3871 0.38736-0.72566 0.52232-1.0154 0.13496-0.28979 0.2367-0.4808 0.29198-0.82144 0.08788-0.5415 0.1159-1.0859-0.08824-1.6182-0.20415-0.53231-0.55349-0.91944-1.0077-1.3736l-1.0129-1.0129a0.9635 0.9635 0 0 0-0.68194-0.2816zm-22.483 0.46003c0.02674 0.02072 0.04904 0.04221 0.06424 0.06229 0.03108 0.04108 0.04344 0.06996 0.04801 0.085 1.71e-4 -7.52e-4 5.01e-4 -0.0012 6.5e-4 -2e-3 0 0.0023 5.52e-4 0.0041 6.49e-4 0.0059-3.08e-4 -0.0012-8.52e-4 -0.0024-0.0013-0.0039-0.0038 0.01652-0.01301 0.04518-0.03439 0.0837-0.01985-0.08528-0.04647-0.16225-0.07786-0.23099zm0.1142 0.13236c4.7e-5 0.0015-2.49e-4 0.0049-0.0013 0.01042 9.7e-5 -0.0054 9.78e-4 -0.0088 0.0013-0.01042zm0 0.02466c8.2e-5 6.43e-4 6.49e-4 0.0016 6.47e-4 2e-3h-6.47e-4c-1.01e-4 -3.09e-4 1.14e-4 -0.0013 0-2e-3zm51.572 0.04736c-1.3605 0-2.6686 0.38135-3.8775 1.7876-1.2089 1.4062-2.5788 3.7616-5.0344 8.0931-0.79168 1.3965-1.3483 2.2919-1.7707 2.842-0.42244 0.55002-0.66275 0.73185-0.96094 0.87335-1.7999 0.85409-3.4174 2.7915-3.9534 4.7178-0.35828 1.2876-0.49088 2.339-0.19141 3.2767 0.14974 0.46884 0.44485 0.9103 0.86556 1.1965 0.42071 0.28618 0.92376 0.40228 1.4229 0.40228 0.23399 0 0.53311-0.03465 0.82598-0.19141 0.29287-0.15676 0.5161-0.41671 0.65728-0.66896 0.28237-0.50451 0.39104-1.037 0.56644-1.8862 0.3175-1.5372 0.39214-1.6878 1.2484-2.3936 0.50109-0.41304 1.6471-1.0295 2.1633-1.1841 0.45312-0.13576 0.87019-0.32556 1.2309-0.55412 0.36067-0.22855 0.71199-0.39285 0.92201-1.0252 0.36232-1.0908 1.5093-3.4973 2.6973-5.7144 1.188-2.2171 2.5356-4.3955 2.9652-4.8774 0.10052-0.11274 0.15183-0.16234 0.1953-0.20374-9.61e-4 -6.38e-4 -0.0014-0.0014-0.0019-0.0019h-6.5e-4v-6.49e-4l-6.49e-4 -6.49e-4v-0.001946h6.49e-4v-6.49e-4c2.82e-4 -2.38e-4 0.0016-0.0011 2e-3 -0.0013 0.0028-0.0014 0.0079-0.0036 0.01362-0.0051-0.0043 4e-3 -0.0087 0.0082-0.01298 0.0123 0.02371 0.01573 0.1702 0.05115 0.52297 0.19855 0.40828 0.17059 2.6961 1.4074 4.6866 2.585 1.0198 0.60332 2.0102 1.151 2.7978 1.5546 0.3938 0.20183 0.73409 0.36729 1.018 0.49053 0.14198 0.06162 0.26884 0.11191 0.3945 0.15442 0.12566 0.04251 0.20754 0.09603 0.49832 0.09603 0.63357 0 1.1609-0.26472 1.5715-0.63262 0.41058-0.3679 0.75072-0.87711 0.75072-1.5501 0-0.73452-0.35017-0.98016-0.66247-1.3048-0.3123-0.32468-0.7054-0.65111-1.1718-1.0005-0.93282-0.69882-2.1561-1.4755-3.4506-2.2145-1.2944-0.73905-2.6529-1.4365-3.8548-1.9595-1.2019-0.52298-2.1458-0.90709-3.0729-0.90709zm-52.527 0.07981c0.01055 0.08055 0.03071 0.15475 0.0584 0.22061-0.03866-0.01812-0.06341-0.03824-0.07786-0.0545 5.94e-4 7e-3 0.0019 0.01243 0.0026 0.01622-0.0014-0.0072-3e-3 -0.01331-0.0045-0.01882-0.01257-0.01487-0.01664-0.02643-0.01622-0.0305v-0.001298h0.001947v6.49e-4h6.48e-4l6.49e-4 6.49e-4c0.0031 0.0035 0.0083 0.01306 0.01298 0.0305 7.17e-4 8.47e-4 0.0012 0.0018 2e-3 0.0026-0.0026-0.03134-0.0019-0.09236 0.01946-0.1661zm52.646 6.4651a0.9635 0.9635 0 0 0-0.69362 0.35622l-0.62289 0.76953c-0.26185 0.32338-0.4847 0.64843-0.61511 1.057-0.13041 0.40855-0.11722 0.91695 0.0584 1.3295 0.35125 0.82508 1.0343 1.2863 2.016 1.9277 5.0501 3.3 9.3292 8.8729 10.602 13.645 0.17166 0.64381 0.41251 3.08 0.41461 4.9708 0.0038 2.8666-0.10726 3.6945-0.71114 5.3582-1.5091 4.1574-4.0023 7.3144-7.5584 9.5939-1.0388 0.66588-1.5999 0.99293-2.04 1.4982-0.22003 0.25263-0.42508 0.6662-0.40229 1.0738 0.02279 0.40765 0.18725 0.66112 0.30885 0.85583 0.44436 0.71154 1.3731 1.1477 2.2534 1.0622s1.7884-0.47523 2.9724-1.1063c3.9654-2.1135 7.8701-7.2254 9.4271-12.134 0.52718-1.662 0.73349-3.3186 0.74553-5.7676 0.0262-5.3327-1.4303-10.06-4.4829-14.555-0.95591-1.4076-2.6669-3.2388-4.4582-4.9338-1.7913-1.695-3.5906-3.2031-4.917-3.921l-1.7804-0.96419a0.9635 0.9635 0 0 0-0.51583-0.1155zm-21.72 3.2475a0.9635 0.9635 0 0 0-0.69686 0.30171c-0.442 0.15063-0.92821 0.24529-1.2335 0.53206-0.24724 0.23228-0.46643 0.46954-0.64495 0.70335-0.08926 0.11691-0.16693 0.23089-0.24007 0.36335-0.07314 0.13246-0.18168 0.23914-0.18168 0.63263 0 0.66666 0.43769 0.97144 0.73579 1.1549s0.61914 0.30661 1.0057 0.42694c0.77315 0.24066 1.7946 0.44038 3.0379 0.60083 1.5603 0.20136 2.3373 0.30866 3.012 0.30885 0.67468 1.93e-4 1.1674-0.13352 1.8979-0.33351 0.8283-0.2265 1.5472-0.5499 2.1165-0.97132 0.56938-0.42143 1.0836-0.98092 1.0836-1.8025 0-0.40149-0.31437-0.86205-0.59824-1.0349-0.28387-0.17286-0.52772-0.22238-0.80198-0.26733-0.5485-0.08989-1.2492-0.10956-2.3028-0.1103-1.4456-1e-3 -3.5893-0.15454-4.5633-0.31404-0.68914-0.11289-1.17-0.18662-1.626-0.19076zm-25.056 7.1509c-2.435 0-3.9192 0.01872-4.9144 0.10057-0.99521 0.08184-1.6497 0.23193-2.1211 0.70335-0.17436 0.17435-0.3267 0.32806-0.47366 0.53725-0.14696 0.20919-0.30055 0.52877-0.29393 0.89022 0.01325 0.72289 0.40565 1.0358 0.7624 1.4301 0.18792 0.20765 0.48606 0.4391 0.82663 0.57358 0.34056 0.13448 0.70336 0.19873 1.1744 0.24526 0.9421 0.09307 2.3566 0.10512 4.8605 0.10512 1.5526 0 2.9607-0.03425 4.0001-0.08824 0.5197-0.02699 0.94451-0.05811 1.2704-0.09797 0.16297-0.01993 0.29573-0.03808 0.44576-0.07591 0.07501-0.01892 0.14968-0.03458 0.28484-0.10317 0.06758-0.0343 0.15435-0.07914 0.27187-0.19855 0.11752-0.11942 0.28484-0.37059 0.28484-0.69167 0 0.01514 7.8e-5 0.02367 6.49e-4 0.02595v6.5e-4h6.5e-4v-6.5e-4l6.47e-4 -6.48e-4v-6.49e-4c5e-3 -0.02205 0.01929-0.20916 0.04672-0.38477 0.03512-0.22478 0.08582-0.50832 0.14015-0.77992l0.20828-1.0375a0.9635 0.9635 0 0 0-0.94407-1.1524zm24.003 0c-2.6273 0-3.9609-0.0059-4.9189 0.12263-0.95804 0.12857-1.5778 0.50887-2.1483 0.94407-0.55662 0.42455-0.97104 0.70423-1.3048 1.2114-0.1669 0.25358-0.35402 0.73202-0.15443 1.214 0.1996 0.48198 0.58368 0.65682 0.8727 0.7598 0.57804 0.20595 1.2111 0.24484 2.1976 0.28484 0.98654 0.04 2.2875 0.04867 3.9872 0.04867 2.3248 0 3.8804-0.02476 4.9098-0.09279 0.51472-0.03401 0.89111-0.07609 1.2211-0.15248 0.16501-0.03819 0.31913-0.0794 0.50286-0.17843 0.18372-0.09903 0.4546-0.2923 0.57164-0.67221 0.09815-0.31883 0.23344-0.88361 0.34778-1.4054l0.20114-0.91423a0.9635 0.9635 0 0 0-0.94148-1.1699zm21.946 0c-2.01 0-3.0258-0.01679-3.8723 0.14924-0.84656 0.16604-1.4103 0.58718-2.0594 1.1089-0.39812 0.31994-0.7374 0.6398-0.99858 0.94862-0.13059 0.1544-0.2421 0.30003-0.34324 0.49572-0.05056 0.09785-0.10286 0.2077-0.13496 0.38217-0.03211 0.17448-0.04537 0.46185 0.13756 0.75785 0.28236 0.45706 0.45255 0.39884 0.55412 0.43408 0.10156 0.03523 0.17112 0.04927 0.24526 0.06358 0.14828 0.02864 0.30152 0.04824 0.48793 0.06683 0.37283 0.0372 0.86526 0.06658 1.4619 0.09279 1.1932 0.0524 2.7945 0.08564 4.5367 0.08564 2.571 0 4.1472-0.02022 5.1428-0.09279 0.49776-0.03629 0.83932-0.07462 1.1816-0.18427 0.17111-0.05483 0.35838-0.12278 0.55931-0.30626 0.20092-0.18347 0.37309-0.54324 0.37309-0.83896 0-0.38928-0.12083-0.56133-0.22126-0.7332-0.10044-0.17186-0.2148-0.321-0.34519-0.47301-0.26078-0.30402-0.58496-0.61037-0.95186-0.89022-0.56478-0.43078-1.155-0.79106-1.979-0.9298-0.824-0.13873-1.854-0.13691-3.7743-0.13691z" stop-color="#000000" stroke="#000" stroke-linecap="round" stroke-linejoin="round" stroke-miterlimit="16.8" stroke-width="1.2556"/><path d="m50.975 35.191c-0.3512-0.01731-0.74649-0.0088-1.2328 6.49e-4 -4.4941 0.08697-9.9816 3.046-14.29 7.4235-0.59904 0.60862-1.2042 1.1652-1.6721 1.552-0.23396 0.19343-0.43525 0.3442-0.5645 0.42954-0.01587 0.01042-0.0305 0.02011-0.04412 0.02855 0.06514-0.0043 0.13069-0.0065 0.1966-0.0065-0.11693 0-0.18387 0.01004-0.2219 0.02141-0.0278 0.01657-0.04618 0.02637-0.04801 0.02725v-6.49e-4c0.0014-0.0035 0.0113-0.01567 0.04801-0.02661 0.0078-0.0046 0.01615-0.0093 0.0253-0.01493-0.70355 0.04553-1.3667 0.33078-2.0796 0.72671-0.7788 0.43258-1.6019 1.0251-2.4351 1.7285-1.6665 1.4069-3.3672 3.2565-4.6302 5.1772-0.64079 0.9745-1.2223 2.1761-1.6623 3.3305-0.44001 1.1545-0.75266 2.2032-0.75266 3.119 0 0.55749 0.1838 0.71828 0.34584 0.97846 0.16204 0.26018 0.36433 0.53159 0.60278 0.82663 0.4769 0.59008 1.0953 1.2652 1.7415 1.9173s1.3155 1.277 1.9005 1.7584c0.29248 0.2407 0.56037 0.44665 0.81885 0.61057 0.25847 0.16392 0.41615 0.35102 0.98106 0.35102-0.02348 0 0.50136 0.18612 0.56385 0.24267 0.32805 0.29688 0.65742 0.43718 1.0349 0.57877 0.3775 0.14159 0.78583 0.25132 1.1997 0.30431 0.48974 0.06273 1.5479 0.35493 2.0471 0.57099 1.1089 0.47998 2.8911 0.82498 4.8144 1.0888 1.9233 0.26378 3.89 0.41323 5.2479 0.30431 1.3038-0.10462 3.2326-0.4794 4.527-0.87789 1.9966-0.61464 3.6047-1.2354 4.7969-1.8589 1.1922-0.62352 2.0876-1.1336 2.3638-2.234 0.07765-0.30922 0.12041-0.60566 0.12522-0.89281 0.0024-0.14358-0.0036-0.28368-0.03439-0.44641-0.03069-0.16272-0.04624-0.36919-0.32637-0.6495-0.23827-0.23836-0.4289-0.26102-0.54698-0.28225-0.11808-0.02123-0.19149-0.01881-0.25954-0.01687-0.13611 0.0039-0.23963 0.02104-0.35297 0.04152-0.22668 0.04096-0.47991 0.1037-0.77992 0.18882-0.60002 0.17022-1.3685 0.42494-2.1899 0.7306-4.2428 1.5789-5.7617 1.946-7.8796 1.9446-3.8066-0.0023-9.5549-1.4147-12.72-2.9107 1.1473-0.089 2.0941-0.18624 5.1252-0.22061 3.5088-0.03979 5.4776-0.07677 6.6825-0.17389 0.60245-0.04857 1.016-0.10364 1.395-0.23099 0.37906-0.12736 0.76133-0.42174 0.94213-0.70854 0.14424-0.22882 0.26733-0.48062 0.31145-0.79938 0.04412-0.31876-0.03013-0.71389-0.2232-1.0057-0.38614-0.58364-0.9426-0.73842-1.5449-0.86297-0.96473-0.19948-2.6668-0.14972-4.5465-0.0837 1.1625-0.62338 1.8949-1.3988 2.2904-2.5428 0.31873-0.92186 0.4988-1.8638 0.26927-2.7784-0.27388-1.0912-1.129-1.719-2.0718-2.2904-0.23979-0.14534-0.53308-0.13244-0.7877-0.255 0.89304 0.09131 1.6779 0.08223 2.6953 0.32118l2.7024 0.63263a0.9635 0.9635 0 0 0 0.64755-0.07332l2.0108-0.99858 0.28484-0.1395c-0.12715 0.68478-0.2509 1.344-0.42435 2.2781-0.13059 0.70327-0.22895 1.3677-0.28679 1.8979-0.02892 0.26509-0.04926 0.49495-0.05451 0.69686-0.0026 0.10096-0.0016 0.19336 0.0078 0.30172 0.0093 0.10836-0.04013 0.20052 0.16156 0.52686 0.20203 0.32689 0.47604 0.43948 0.66507 0.49832 0.18903 0.05884 0.34078 0.07156 0.48988 0.07591 0.2982 0.0087 0.58547-0.02761 0.88308-0.08824 0.59522-0.12128 1.187-0.29168 1.724-0.71373 0.2767-0.21746 0.34978-0.39082 0.43927-0.56904 0.08949-0.17822 0.15905-0.36416 0.22515-0.56644 0.13219-0.40458 0.23858-0.87076 0.30431-1.3561 0.85379-6.304 1.2206-7.5091 3.2027-10.391 0.68532-0.99629 1.1439-1.7215 1.2166-2.6071 0.07271-0.88556-0.38586-1.6496-0.97392-2.332-0.39285-0.45588-0.8368-0.88256-1.4541-1.0719-0.30864-0.09467-0.61558-0.13776-0.96678-0.15508zm22.337 0.94991c-2.9767-0.02393-5.8677 0.17156-7.9017 0.64755-4.1449 0.97001-7.5879 2.3284-10.025 3.9164-2.4365 1.5875-4.0264 3.4994-3.8081 5.6502l0.10512 1.0271a0.9635 0.9635 0 0 0 1.5378 0.67221l1.8272-1.3782c6.9504-5.2412 17.455-7.0944 26.919-4.6672 9.3236 2.3911 17.957 9.1901 22.948 18.116 5.0075 8.9543 5.2859 21.691 0.66507 31.066-3.5306 7.1636-9.1043 11.874-14.881 13.657-5.7764 1.7833-11.72 0.70404-16.323-3.8107-2.3762-2.3307-3.4427-4.2-4.0144-6.9673-0.96371-4.6644 1.1591-9.2296 5.0909-11.148 2.036-0.99366 5.3254-1.0548 7.2418-0.17389 2.3372 1.0744 3.5142 2.1695 4.3311 3.9236 1.7178 3.6889-0.12438 7.9807-3.5979 8.8139-1.4308 0.34325-1.1394 0.37455-2.5331-0.31923-1.4081-0.70098-2.0431-1.5308-2.3741-3.1216-0.06955-0.33426 0.06626-0.94721 0.39255-1.4398 0.32629-0.49258 0.80262-0.79194 1.0349-0.81884 0.35828-0.04148 0.66127 0.08293 0.83117 0.23813 0.1699 0.1552 0.20883 0.26643 0.16676 0.43408-0.1989 0.79246-0.22702 1.557 0.15248 2.2314s1.1824 1.0297 1.942 1.0297c0.89258 0 1.7376-0.44805 2.2392-1.1498 0.50159-0.70171 0.71373-1.5962 0.71373-2.5973 0-0.60986-0.07289-1.1946-0.35362-1.7383-0.28074-0.54369-0.69449-0.97569-1.2724-1.5254-2.4807-2.3599-5.7645-2.2013-7.9386-0.50286-2.1741 1.6984-3.3533 4.8694-2.2314 8.2202 2.0345 6.0765 10.197 7.8439 14.814 3.2592 2.947-2.926 4.1212-6.919 3.1294-10.79-2.152-8.4002-12.062-12.23-19.766-7.7148-2.2454 1.3159-4.6229 4.0037-5.7481 6.4593-1.7301 3.7754-1.5315 9.2587 0.38736 13.341 1.5871 3.3765 5.7393 7.4489 9.3804 9.3064 3.8003 1.9388 9.7057 2.5526 14.115 1.5131 4.6859-1.1047 9.8447-4.125 13.36-7.794 6.6463-6.9361 10.491-17.495 9.9319-27.243-1.0565-18.426-14.212-33.882-32.219-37.85-2.2662-0.49933-5.2949-0.7482-8.2715-0.77213zm-25.154 4.0391c-0.46097 0.69949-0.96559 1.4731-1.373 2.2366-1.3138 2.4622-3.4175 3.3216-6.3496 2.5234-0.24211-0.06592-0.34462-0.09839-0.52946-0.14988 1.3714-1.3269 5.0831-3.5815 7.5435-4.3946 0.26469-0.08748 0.46294-0.13989 0.70854-0.21542zm17.346 4.7723c-1.2809 0-2.367 0.98763-2.367 2.2904 0 1.018 0.69424 1.841 1.5183 2.1308s1.8714 0.08886 2.5208-0.69362c0.61586-0.74208 0.50343-1.6389 0.20633-2.3248-0.2971-0.6859-0.89546-1.4028-1.8784-1.4028zm12.269 0.06618c-0.80529-0.02504-1.8051-0.01758-3.0684 0.0072-2.0838 0.04066-3.2808 0.07448-4.1027 0.18622-0.41092 0.05586-0.74155 0.12927-1.0615 0.28744-0.31996 0.15817-0.59607 0.44089-0.74293 0.68129-0.20418 0.33422-0.41418 0.88943-0.23813 1.4177 0.17605 0.5283 0.50538 0.78039 0.86297 1.0738 0.37494 0.3077 0.81538 0.56381 1.3146 0.66507 0.49918 0.10126 0.9925 0.0613 1.5624-0.02984 0.54022-0.08638 2.7346-0.21677 4.5562-0.23553 1.5792-0.01627 2.4011-0.01193 3.0678-0.15183 0.33332-0.06996 0.70377-0.20831 0.97846-0.52492s0.33463-0.66321 0.3653-0.87789c0.04486-0.31394 0.07008-0.65703-0.04867-1.042-0.11875-0.38502-0.42896-0.75738-0.77732-0.96354-0.69672-0.41231-1.46-0.45557-2.6681-0.49312zm-47.144 6.094c-0.79062 1.418-1.0029 3.2147 0.08111 4.6003 0.32884 0.42033 0.83658 0.67484 1.3094 0.96159-0.6011-0.03547-0.88228-0.01989-1.4787-0.06358-1.2309-0.09016-2.4069-0.19164-3.2786-0.28744-0.15145-0.01665-0.22922-0.02996-0.36076-0.04607 0.03803-0.06691 0.0453-0.09458 0.08824-0.16676 0.41942-0.70501 1.0613-1.654 1.7636-2.6142 0.61672-0.84319 1.2699-1.6601 1.8758-2.3839zm27.238 0.8143c-2.5685 0-3.9845 0.01042-4.9267 0.1077-0.4711 0.04864-0.83936 0.11874-1.1822 0.26473-0.34284 0.14598-0.62446 0.3854-0.80652 0.58656-0.5462 0.60356-0.81958 1.4682-0.56644 2.2658 0.06763 0.21306 0.24012 0.62176 0.59824 0.87789 0.35812 0.25613 0.72307 0.32462 1.1601 0.37763 0.87415 0.10602 2.2215 0.10512 4.8385 0.10512 1.4926 0 2.8496 0.01983 3.823 0.05191 0.09183 3e-3 0.12864 0.0065 0.21347 0.0098-0.10944 0.20143-0.19447 0.37418-0.32897 0.60083-0.50738 0.85505-1.1621 1.8255-1.6455 2.4105-0.7385 0.89382-1.9126 2.5585-2.7096 3.8282-0.59932 0.95475-0.97537 1.469-1.2114 1.6896-0.23603 0.22059-0.3114 0.24643-0.76759 0.32897-3.6267 0.6562-6.5023 3.7538-6.6137 7.2833-0.03699 1.1714 0.15506 2.1978 0.65663 3.0139 0.50158 0.81612 1.4063 1.3807 2.3936 1.3807 0.37785 0 0.73125-0.0599 1.0622-0.18427 0.33091-0.12437 0.73642-0.25379 0.9538-0.88049 0.18452-0.53193 0.08627-0.7438 0.03439-1.0914-0.05188-0.34757-0.14261-0.72704-0.26473-1.1011-0.1627-0.49818-0.22774-1.4304-0.2232-1.4586 0.04864-0.30212 0.40732-0.90954 1.0836-1.4787 0.67625-0.56918 1.6245-1.1076 2.6635-1.4567 0.66838-0.22456 1.3075-0.50456 1.8466-0.79743 0.53908-0.29287 0.96277-0.51874 1.3217-1.0154 1.5289-2.1159 3.2068-4.6489 4.5322-6.785 0.66268-1.0681 1.2371-2.0366 1.6623-2.8108 0.21262-0.3871 0.38736-0.72566 0.52232-1.0154 0.13496-0.28979 0.2367-0.4808 0.29198-0.82144 0.08788-0.5415 0.1159-1.0859-0.08824-1.6182-0.20415-0.53231-0.55349-0.91944-1.0077-1.3736l-1.0129-1.0129a0.9635 0.9635 0 0 0-0.68194-0.2816zm-22.483 0.46003c0.02674 0.02072 0.04904 0.04221 0.06424 0.06229 0.03108 0.04108 0.04344 0.06996 0.04801 0.085 1.71e-4 -7.52e-4 5.01e-4 -0.0012 6.5e-4 -2e-3 0 0.0023 5.52e-4 0.0041 6.49e-4 0.0059-3.08e-4 -0.0012-8.52e-4 -0.0024-0.0013-0.0039-0.0038 0.01652-0.01301 0.04518-0.03439 0.0837-0.01985-0.08528-0.04647-0.16225-0.07786-0.23099zm0.1142 0.13236c4.7e-5 0.0015-2.49e-4 0.0049-0.0013 0.01042 9.7e-5 -0.0054 9.78e-4 -0.0088 0.0013-0.01042zm0 0.02466c8.2e-5 6.43e-4 6.49e-4 0.0016 6.47e-4 2e-3h-6.47e-4c-1.01e-4 -3.09e-4 1.14e-4 -0.0013 0-2e-3zm51.572 0.04736c-1.3605 0-2.6686 0.38135-3.8775 1.7876-1.2089 1.4062-2.5788 3.7616-5.0344 8.0931-0.79168 1.3965-1.3483 2.2919-1.7707 2.842-0.42244 0.55002-0.66275 0.73185-0.96094 0.87335-1.7999 0.85409-3.4174 2.7915-3.9534 4.7178-0.35828 1.2876-0.49088 2.339-0.19141 3.2767 0.14974 0.46884 0.44485 0.9103 0.86556 1.1965 0.42071 0.28618 0.92376 0.40228 1.4229 0.40228 0.23399 0 0.53311-0.03465 0.82598-0.19141 0.29287-0.15676 0.5161-0.41671 0.65728-0.66896 0.28237-0.50451 0.39104-1.037 0.56644-1.8862 0.3175-1.5372 0.39214-1.6878 1.2484-2.3936 0.50109-0.41304 1.6471-1.0295 2.1633-1.1841 0.45312-0.13576 0.87019-0.32556 1.2309-0.55412 0.36067-0.22855 0.71199-0.39285 0.92201-1.0252 0.36232-1.0908 1.5093-3.4973 2.6973-5.7144 1.188-2.2171 2.5356-4.3955 2.9652-4.8774 0.10052-0.11274 0.15183-0.16234 0.1953-0.20374-9.61e-4 -6.38e-4 -0.0014-0.0014-0.0019-0.0019h-6.5e-4v-6.49e-4l-6.49e-4 -6.49e-4v-0.001946h6.49e-4v-6.49e-4c2.82e-4 -2.38e-4 0.0016-0.0011 2e-3 -0.0013 0.0028-0.0014 0.0079-0.0036 0.01362-0.0051-0.0043 4e-3 -0.0087 0.0082-0.01298 0.0123 0.02371 0.01573 0.1702 0.05115 0.52297 0.19855 0.40828 0.17059 2.6961 1.4074 4.6866 2.585 1.0198 0.60332 2.0102 1.151 2.7978 1.5546 0.3938 0.20183 0.73409 0.36729 1.018 0.49053 0.14198 0.06162 0.26884 0.11191 0.3945 0.15442 0.12566 0.04251 0.20754 0.09603 0.49832 0.09603 0.63357 0 1.1609-0.26472 1.5715-0.63262 0.41058-0.3679 0.75072-0.87711 0.75072-1.5501 0-0.73452-0.35017-0.98016-0.66247-1.3048-0.3123-0.32468-0.7054-0.65111-1.1718-1.0005-0.93282-0.69882-2.1561-1.4755-3.4506-2.2145-1.2944-0.73905-2.6529-1.4365-3.8548-1.9595-1.2019-0.52298-2.1458-0.90709-3.0729-0.90709zm-52.527 0.07981c0.01055 0.08055 0.03071 0.15475 0.0584 0.22061-0.03866-0.01812-0.06341-0.03824-0.07786-0.0545 5.94e-4 7e-3 0.0019 0.01243 0.0026 0.01622-0.0014-0.0072-3e-3 -0.01331-0.0045-0.01882-0.01257-0.01487-0.01664-0.02643-0.01622-0.0305v-0.001298h0.001947v6.49e-4h6.48e-4l6.49e-4 6.49e-4c0.0031 0.0035 0.0083 0.01306 0.01298 0.0305 7.17e-4 8.47e-4 0.0012 0.0018 2e-3 0.0026-0.0026-0.03134-0.0019-0.09236 0.01946-0.1661zm52.646 6.4651a0.9635 0.9635 0 0 0-0.69362 0.35622l-0.62289 0.76953c-0.26185 0.32338-0.4847 0.64843-0.61511 1.057-0.13041 0.40855-0.11722 0.91695 0.0584 1.3295 0.35125 0.82508 1.0343 1.2863 2.016 1.9277 5.0501 3.3 9.3292 8.8729 10.602 13.645 0.17166 0.64381 0.41251 3.08 0.41461 4.9708 0.0038 2.8666-0.10726 3.6945-0.71114 5.3582-1.5091 4.1574-4.0023 7.3144-7.5584 9.5939-1.0388 0.66588-1.5999 0.99293-2.04 1.4982-0.22003 0.25263-0.42508 0.6662-0.40229 1.0738 0.02279 0.40765 0.18725 0.66112 0.30885 0.85583 0.44436 0.71154 1.3731 1.1477 2.2534 1.0622s1.7884-0.47523 2.9724-1.1063c3.9654-2.1135 7.8701-7.2254 9.4271-12.134 0.52718-1.662 0.73349-3.3186 0.74553-5.7676 0.0262-5.3327-1.4303-10.06-4.4829-14.555-0.95591-1.4076-2.6669-3.2388-4.4582-4.9338-1.7913-1.695-3.5906-3.2031-4.917-3.921l-1.7804-0.96419a0.9635 0.9635 0 0 0-0.51583-0.1155zm-21.72 3.2475a0.9635 0.9635 0 0 0-0.69686 0.30171c-0.442 0.15063-0.92821 0.24529-1.2335 0.53206-0.24724 0.23228-0.46643 0.46954-0.64495 0.70335-0.08926 0.11691-0.16693 0.23089-0.24007 0.36335-0.07314 0.13246-0.18168 0.23914-0.18168 0.63263 0 0.66666 0.43769 0.97144 0.73579 1.1549s0.61914 0.30661 1.0057 0.42694c0.77315 0.24066 1.7946 0.44038 3.0379 0.60083 1.5603 0.20136 2.3373 0.30866 3.012 0.30885 0.67468 1.93e-4 1.1674-0.13352 1.8979-0.33351 0.8283-0.2265 1.5472-0.5499 2.1165-0.97132 0.56938-0.42143 1.0836-0.98092 1.0836-1.8025 0-0.40149-0.31437-0.86205-0.59824-1.0349-0.28387-0.17286-0.52772-0.22238-0.80198-0.26733-0.5485-0.08989-1.2492-0.10956-2.3028-0.1103-1.4456-1e-3 -3.5893-0.15454-4.5633-0.31404-0.68914-0.11289-1.17-0.18662-1.626-0.19076zm-25.056 7.1509c-2.435 0-3.9192 0.01872-4.9144 0.10057-0.99521 0.08184-1.6497 0.23193-2.1211 0.70335-0.17436 0.17435-0.3267 0.32806-0.47366 0.53725-0.14696 0.20919-0.30055 0.52877-0.29393 0.89022 0.01325 0.72289 0.40565 1.0358 0.7624 1.4301 0.18792 0.20765 0.48606 0.4391 0.82663 0.57358 0.34056 0.13448 0.70336 0.19873 1.1744 0.24526 0.9421 0.09307 2.3566 0.10512 4.8605 0.10512 1.5526 0 2.9607-0.03425 4.0001-0.08824 0.5197-0.02699 0.94451-0.05811 1.2704-0.09797 0.16297-0.01993 0.29573-0.03808 0.44576-0.07591 0.07501-0.01892 0.14968-0.03458 0.28484-0.10317 0.06758-0.0343 0.15435-0.07914 0.27187-0.19855 0.11752-0.11942 0.28484-0.37059 0.28484-0.69167 0 0.01514 7.8e-5 0.02367 6.49e-4 0.02595v6.5e-4h6.5e-4v-6.5e-4l6.47e-4 -6.48e-4v-6.49e-4c5e-3 -0.02205 0.01929-0.20916 0.04672-0.38477 0.03512-0.22478 0.08582-0.50832 0.14015-0.77992l0.20828-1.0375a0.9635 0.9635 0 0 0-0.94407-1.1524zm24.003 0c-2.6273 0-3.9609-0.0059-4.9189 0.12263-0.95804 0.12857-1.5778 0.50887-2.1483 0.94407-0.55662 0.42455-0.97104 0.70423-1.3048 1.2114-0.1669 0.25358-0.35402 0.73202-0.15443 1.214 0.1996 0.48198 0.58368 0.65682 0.8727 0.7598 0.57804 0.20595 1.2111 0.24484 2.1976 0.28484 0.98654 0.04 2.2875 0.04867 3.9872 0.04867 2.3248 0 3.8804-0.02476 4.9098-0.09279 0.51472-0.03401 0.89111-0.07609 1.2211-0.15248 0.16501-0.03819 0.31913-0.0794 0.50286-0.17843 0.18372-0.09903 0.4546-0.2923 0.57164-0.67221 0.09815-0.31883 0.23344-0.88361 0.34778-1.4054l0.20114-0.91423a0.9635 0.9635 0 0 0-0.94148-1.1699zm21.946 0c-2.01 0-3.0258-0.01679-3.8723 0.14924-0.84656 0.16604-1.4103 0.58718-2.0594 1.1089-0.39812 0.31994-0.7374 0.6398-0.99858 0.94862-0.13059 0.1544-0.2421 0.30003-0.34324 0.49572-0.05056 0.09785-0.10286 0.2077-0.13496 0.38217-0.03211 0.17448-0.04537 0.46185 0.13756 0.75785 0.28236 0.45706 0.45255 0.39884 0.55412 0.43408 0.10156 0.03523 0.17112 0.04927 0.24526 0.06358 0.14828 0.02864 0.30152 0.04824 0.48793 0.06683 0.37283 0.0372 0.86526 0.06658 1.4619 0.09279 1.1932 0.0524 2.7945 0.08564 4.5367 0.08564 2.571 0 4.1472-0.02022 5.1428-0.09279 0.49776-0.03629 0.83932-0.07462 1.1816-0.18427 0.17111-0.05483 0.35838-0.12278 0.55931-0.30626 0.20092-0.18347 0.37309-0.54324 0.37309-0.83896 0-0.38928-0.12083-0.56133-0.22126-0.7332-0.10044-0.17186-0.2148-0.321-0.34519-0.47301-0.26078-0.30402-0.58496-0.61037-0.95186-0.89022-0.56478-0.43078-1.155-0.79106-1.979-0.9298-0.824-0.13873-1.854-0.13691-3.7743-0.13691z" fill="url(#a)" stop-color="#000000" stroke-linecap="round" stroke-linejoin="round" stroke-miterlimit="16.8" stroke-width="1.2556"/><path d="m8.2021 108.74v2.6458c0 8.7948 7.0802 15.875 15.875 15.875h87.312c8.7948 0 15.875-7.0802 15.875-15.875v-2.6458c0 8.7948-7.0802 15.875-15.875 15.875h-87.312c-8.7948 0-15.875-7.0802-15.875-15.875z" opacity=".3"/><path d="m24.077 8.2021c-8.7948 0-15.875 7.0802-15.875 15.875v2.6458c0-8.7948 7.0802-15.875 15.875-15.875h87.312c8.7948 0 15.875 7.0802 15.875 15.875v-2.6458c0-8.7948-7.0802-15.875-15.875-15.875h-87.312z" fill="#fff" opacity=".1"/></g></svg>
