<svg width="512" height="512" version="1.1" viewBox="0 0 135.47 135.47" xmlns="http://www.w3.org/2000/svg"><g fill-rule="evenodd" stroke-miterlimit="16.8" stroke-opacity="0"><path d="m16.85 13.269v114h19.218v-11.459h-8.1173v-91.078h8.1173v-11.459h-8.1173zm82.549 0v11.459h8.1173v91.078h-8.1173v11.459h19.218v-114h-11.101zm-52.607 17.294 15.91 40.031-15.91 34.751 2.11e-4 5.0665h11.817l9.9603-25.059 0.0015 0.0039v9.58e-4l9.9578 25.054h11.817v-4.9e-4l-2.94e-4 -5.0662-15.91-34.752 15.91-40.031-2.47e-4 -5.066-11.648 5.066-4.0646 10.174-6.062 15.171v4.95e-4l-0.0015 0.0039-10.129-25.349-11.648-5.0663z" fill="#2656a8"/><g transform="matrix(3.0513 0 0 3.0513 -381.01 -158.2)"><path d="m130.39 54.534v37.359h6.2983v-3.7553h-2.6603v-29.849h2.6603v-3.7553h-2.6603z" fill="#367bf0"/><path d="m163.74 54.534v37.359h-6.2983v-3.7553h2.6603v-29.849h-2.6603v-3.7553h2.6603z" fill="#4aaee6"/><path d="m140.2 60.201 5.2142 13.119-5.2142 13.049h3.8726l3.2644-8.2124 3.2639 8.2124h3.8726l-5.2142-13.049 5.2142-13.119h-3.8173l-3.3192 8.3075-3.3197-8.3075z" fill="#367bf0"/><path d="m150.66 60.201-3.3187 8.306v9.6516l3.2634 8.2109h3.8726l-5.2142-13.049 5.2142-13.119z" fill="#4aaee6"/></g><path d="m16.85 8.2021v2.6458h11.101 8.1178v-2.6458h-8.1178-11.101zm82.549 0v2.6458h8.1178 11.101v-2.6458h-11.101-8.1178zm-52.607 17.295v2.6458h11.648l10.13 25.349 0.001034-0.002584v-0.00155l7.5913-18.999 2.5352-6.3459h11.648v-2.6453-5.16e-4h-11.648l-2.5352 6.3459-7.5913 18.999v0.00155l-0.001034 0.002584-10.13-25.349h-11.648zm14.374 43.876-14.374 35.972v2.6458l14.901-37.291-0.5271-1.3265zm14.806 0.001033-0.5271 1.3265 14.9 37.291v-2.6458l-14.373-35.971zm-48.021 41.365v2.6458h8.1173v-2.6458h-8.1173zm71.448 0v2.6458h8.1173v-2.6458h-8.1173z" fill="#fff" opacity=".2"/></g></svg>
