<svg width="512" height="512" version="1.1" viewBox="0 0 135.47 135.47" xmlns="http://www.w3.org/2000/svg"><g fill-rule="evenodd"><path d="m67.734 11.386-48.938 25.617c2.8854 44.422 23.23 68.824 48.938 87.076 25.708-18.252 46.052-42.655 48.937-87.076z" fill="#1e488e" stroke="#65cfd4" stroke-linecap="round" stroke-linejoin="round" stroke-miterlimit="16.8" stroke-width="6.3674"/><path d="m68.193 33.786-19.184 43.423 19.069 18.036 19.069-16.772z" fill="#65cfd4"/><path d="m17.457 52.843c1.2738 7.688 3.1228 14.513 5.4166 20.672 6.1803 16.593 15.589 28.343 25.676 39.077l9.8798-21.827c-2.8102-1.5058-5.2677-3.3069-7.5004-5.2701-1.8768-1.6491-3.604-3.3989-5.1145-5.2744-0.01163-0.01422-0.02388-0.02813-0.0354-0.04236 0.0052 0.0073 0.01059 0.01412 0.01609 0.02097-3.2304-4.0159-5.6828-8.4626-7.634-12.96-0.02326-0.05212-0.0407-0.10396-0.06385-0.15612-1.4054-3.2602-2.5547-6.5461-3.5372-9.7129 0.38849 1.2634 0.55209 2.176 0.97805 3.4369 1.24e-4 3.63e-4 4.05e-4 7.06e-4 5.4e-4 1e-3 0.02014 0.05824 0.02461 0.09801 0.04288 0.15398 7.47e-4 0.0021 0.0021 0.0042 0.0031 0.0062 7.79e-4 0.0021 8.31e-4 0.0042 0.0021 0.0062zm20.671 14.324c0.0031 0.0073 0.0062 0.01422 0.0093 0.02149-0.0031-0.0073-0.0062-0.01422-0.0093-0.02149z" fill="#39c1c8" opacity=".8"/><path d="m118.01 52.843-18.129 8.1302 4e-3 -0.01069v-5.4e-4c0.47341-1.3557 0.61574-2.2716 1.022-3.593-0.97203 3.1331-2.1099 6.3834-3.4948 9.6094-0.03239 0.0733-0.057 0.14614-0.0896 0.21944-1.9472 4.496-4.3939 8.9412-7.6173 12.958-0.0062 0.0083-0.01308 0.01692-0.01983 0.02523-0.0021 0.0021-0.0031 0.0042-0.0052 0.0062-1.5189 1.8895-3.2577 3.6518-5.1478 5.312-2.2312 1.9612-4.6867 3.7608-7.4945 5.2653l9.8792 21.827c10.086-10.734 19.495-22.484 25.676-39.077 2.2938-6.1582 4.1428-12.984 5.4166-20.672zm-20.632 14.229c-0.01038 0.02357-0.01879 0.04662-0.02897 0.07029 0.01049-0.02346 0.01848-0.04682 0.02897-0.07029z" fill="#39c1c8" opacity=".8"/><path d="m119.77 35.854c-0.29246 6.1051-0.89349 11.747-1.7619 16.989-3e-5 1.67e-4 3e-5 3.74e-4 0 5.4e-4l-18.129 8.1302c2.4096-6.8862 3.8506-13.445 5.1864-18.227z" fill="#367bf0" opacity=".8"/><path d="m52.433 69.46-3.424 7.7493 19.069 18.036 19.07-16.772-3.3945-8.0025-15.675 13.787z" fill="#5cb6e8"/><path d="m15.713 36.212c-0.08375 0.3257-0.11557 0.66284-0.09389 0.99843 0.32698 5.0341 0.87908 9.824 1.638 14.389-0.74499-4.7838-1.2695-9.8977-1.5441-15.387zm104.04 0.0031c-0.27324 5.4607-0.79393 10.55-1.5328 15.312 0.75255-4.5425 1.3004-9.3085 1.6256-14.316 0.0218-0.33492-9e-3 -0.67116-0.0928-0.99629zm-88.492 54.466c4.0739 6.7838 8.7863 12.834 13.971 18.31-5.0129-5.5695-9.7799-11.507-13.971-18.31zm72.935 0.01287c-4.1914 6.8013-8.9592 12.738-13.972 18.307 5.1846-5.4754 9.8978-11.524 13.972-18.307zm-52.775 15.55-2.7995 6.1843c5.3757 5.2352 11.187 9.9315 17.267 14.249 1.1038 0.78366 2.5825 0.78366 3.6863 0 6.0802-4.3169 11.892-9.0129 17.267-14.248l-2.799-6.1843c-5.0172 5.0467-10.5 9.5953-16.311 13.834-5.8113-4.2387-11.294-8.7875-16.311-13.834z" fill="#316fd8" stop-color="#000000" stroke-linecap="round" stroke-linejoin="round" stroke-miterlimit="16.8" stroke-width="1.0382"/><path d="m15.695 35.854c0.29246 6.1051 0.89349 11.747 1.7619 16.989 3.2e-5 1.67e-4 -2e-5 3.74e-4 0 5.4e-4l18.129 8.1302c-2.4096-6.8862-3.8506-13.445-5.1864-18.227z" fill="#367bf0" opacity=".8"/><path d="m67.515 8.2088a3.184 3.184 0 0 0-1.2573 0.35553l-48.938 25.618a3.184 3.184 0 0 0-1.7012 3.0272c0.034446 0.53031 0.071169 1.0579 0.11059 1.5828a3.184 3.184 0 0 1 1.5906-1.9642l48.938-25.618a3.184 3.184 0 0 1 1.2573-0.35553 3.184 3.184 0 0 1 1.6955 0.35553l48.936 25.618a3.184 3.184 0 0 1 1.5906 1.9642c0.03941-0.52492 0.07614-1.0525 0.11058-1.5828a3.184 3.184 0 0 0-1.7012-3.0272l-48.936-25.618a3.184 3.184 0 0 0-1.6955-0.35553z" fill="#fff" opacity=".2" stop-color="#000000" stroke-linecap="round" stroke-linejoin="round" stroke-miterlimit="16.8"/><path d="m15.73 36.146a3.184 3.184 0 0 0-0.11059 1.063c2.9432 45.312 24.118 70.898 50.271 89.467a3.184 3.184 0 0 0 3.6856 0c26.153-18.569 47.328-44.155 50.271-89.467a3.184 3.184 0 0 0-0.11058-1.063c-3.3287 44.327-24.314 69.533-50.161 87.884a3.184 3.184 0 0 1-3.6856 0c-25.847-18.351-46.832-43.557-50.161-87.884z" opacity=".3" stop-color="#000000" stroke-linecap="round" stroke-linejoin="round" stroke-miterlimit="16.8"/></g></svg>
