<svg width="512" height="512" fill="none" version="1.1" viewBox="0 0 15.36 15.36" xmlns="http://www.w3.org/2000/svg" xmlns:xlink="http://www.w3.org/1999/xlink"><title>evil-winrm-py</title><defs><linearGradient id="a" x1="5.1483" x2="18.876" y1="20.325" y2="9.6209" gradientUnits="userSpaceOnUse"><stop stop-color="#191919" offset="0"/><stop stop-color="#333" offset="1"/></linearGradient></defs><path transform="matrix(.65951 0 0 .65951 -.23416 -.20326)" d="m7.5063 17.92 0.14125 0.14124a0.90004 0.90004 180 0 0 1.2728-2.7e-5l2.8572-2.8572a0.9 0.9 90 0 0-1e-6 -1.2728l-2.8572-2.8572a0.90006 0.90006 0.0018985 0 0-1.2728-4.2e-5l-0.14123 0.14121a0.89974 0.89974 89.995 0 0 1e-4 1.2726l1.6558 1.6551a0.59985 0.59985 89.994 0 1 8.37e-5 0.84842l-1.6561 1.656a0.89994 0.89994 90 0 0 1.01e-5 1.2727zm4.4938-0.01588a0.84835 0.84835 41.396 0 0 0.9 0.79333h3.7303a0.9 0.9 135 0 0 0.9-0.9 0.84835 0.84835 41.396 0 0-0.9-0.79333h-3.7303a0.9 0.9 135 0 0-0.9 0.9zm9.9999-6.7789v5.9848a33127 33127 90.002 0 1-4.9e-5 1.8l-4.8e-5 0.87764a2.4001 2.4001 135 0 1-2.4001 2.4l-1.634-7e-6a422912 422912 1.2193e-4 0 0-1.8-4e-6h-8.3316a467458 467458 180 0 0-1.8 3e-6l-1.6343 7e-6a2.3999 2.3999 45 0 1-2.4-2.4l1.57e-5 -0.87764a100532 100532 90.001 0 0 1.61e-5 -1.8v-5.0848a167474 167474 90 0 0-9.7e-6 -1.8l-9.4e-6 -0.87754a2.4 2.4 135 0 1 2.4-2.4l1.6342-2.68e-5c0.49706-8.1e-6 1.303-1.58e-5 1.8-1.68e-5 1.7444-3.8e-6 5.6495-1.05e-5 8.3316-1.7e-6 0.49705 1.6e-6 1.3029 6.1e-6 1.8 1.06e-5 0.51688 4.6e-6 1.0881 1.07e-5 1.6342 1.7e-5 1.3255 1.52e-5 2.4 1.0745 2.4 2.4z" clip-rule="evenodd" fill="url(#a)" fill-rule="evenodd" stroke-width=".92014"/><path transform="matrix(.65951 0 0 .65951 -.23416 -.20326)" d="m4.3999 6.9479c-1.3255 4.13e-5 -2.4 1.0746-2.3999 2.4001v0.26911c0.0020508-1.324 1.0759-2.3963 2.3999-2.3963h1.6343c0.49706-8.2e-6 1.3029 1e-6 1.8 0 1.7444-3.8e-6 5.6495-8.8e-6 8.3316 0 0.49705 1.6e-6 1.3029-4.5e-6 1.8 0 0.51688 4.6e-6 1.0882-6.3e-6 1.6342 0 1.3255 1.52e-5 2.4 1.0745 2.4 2.4v-0.27293c-9e-6 -1.3255-1.0745-2.4-2.4-2.4-0.54604-6.3e-6 -1.1173 4.6e-6 -1.6342 0-0.49706-4.5e-6 -1.3029 1.6e-6 -1.8 0-2.6821-8.8e-6 -6.5872-3.8e-6 -8.3316 0-0.49707 1.1e-6 -1.3029-8.2e-6 -1.8 0z" fill="#fff" opacity=".1" stroke-width=".92014"/><path d="m12.188 0.91213c-5.11e-4 6.627e-5 -0.007393 0.0017776-0.007793 0.0019336-3.01e-4 1.0594e-4 -0.011449 0.007522-0.011719 0.007793-2.68e-4 2.7056e-4 -0.003725 0.0054284-0.003926 0.0058594-2.35e-4 4.3097e-4 -0.003267 0.0060856-0.003867 0.0078516-6.12e-4 0.001765 3.58e-4 0.0023302 0 0.0038672-0.0014 0.006148-0.003725 0.011326-0.003925 0.017578-4.77e-4 0.012505 4.61e-4 0.02834 0.001992 0.046875 3e-3 0.03707 0.01029 0.085408 0.01957 0.13869 0.06358 0.36563 0.068775 1.1516 0.009785 1.5898-0.06949 0.51594-0.29342 1.0874-0.56443 1.4473-0.08271 0.10984-0.17137 0.20689-0.22658 0.33398-0.01646 0.037909-0.028534 0.080676-0.027364 0.12504 0.0023 0.084931 0.014165 0.18259 0.072305 0.25582 0.36537 0.46011 0.9593 0.76933 1.541 0.84182 0.14705 0.018323 0.30749-0.023318 0.42773-0.10939 0.14064-0.10075 0.21474-0.26944 0.27721-0.41988 0.14309-0.34461 0.22865-0.62217 0.23244-1.1036 0.002826-0.35342-0.042358-0.61675-0.16605-0.97066-0.14173-0.40553-0.26178-0.63489-0.54492-1.043-0.1618-0.23319-0.39765-0.5289-0.59959-0.76564-0.10097-0.11837-0.19208-0.22191-0.26367-0.2949-0.0358-0.036496-0.067396-0.065981-0.091816-0.085957-0.01221-0.009988-0.022874-0.01769-0.033164-0.023438-0.0051-0.002874-0.009515-0.0041344-0.015645-0.0058594-0.0031-8.6263e-4 -0.005685-0.0017746-0.009785-0.0019336-2e-3 -7.973e-5 -0.007293-6.628e-5 -0.007793 0zm-9.0254 0.0019336c-0.00372 1.4766e-4 -0.0068651 0.0011196-0.0097851 0.0019336-0.0058301 0.001629-0.010633 0.0030604-0.015645 0.0058594-0.010025 0.005598-0.021035 0.013513-0.033164 0.023438-0.024254 0.019849-0.054127 0.049504-0.089883 0.085957-0.07151 0.072905-0.16466 0.17463-0.26561 0.29297-0.20188 0.23667-0.43596 0.53452-0.59766 0.76758-0.28307 0.40797-0.40325 0.63567-0.54492 1.041-0.12362 0.3537-0.16878 0.61751-0.166 0.97066 0.00379 0.48105 0.089347 0.75708 0.23238 1.1016 0.062447 0.15039 0.13554 0.3179 0.27539 0.41801 0.11959 0.085603 0.27959 0.12755 0.4258 0.10934 0.58092-0.072384 1.1743-0.38045 1.5391-0.83982 0.05744-0.072332 0.070029-0.16919 0.072246-0.25389 0.00114-0.043749-0.011012-0.087397-0.027363-0.12504-0.054953-0.1265-0.1437-0.22201-0.22652-0.33199-0.27145-0.36047-0.49493-0.93277-0.56449-1.4493-0.059091-0.43874-0.053906-1.2235 0.0097851-1.5898 0.00927-0.053211 0.014625-0.10369 0.017578-0.14062 0.00148-0.018467 0.0024036-0.032653 0.0019336-0.044941-2.344e-4 -0.006144-5.847e-4 -0.011766-0.0019336-0.017578-3.38e-4 -0.001453 5.684e-4 -0.0022262 0-0.0038672-5.684e-4 -0.001642-0.0036858-0.0054284-0.0039258-0.0058594-2.35e-4 -4.3097e-4 -0.0035972-0.0075806-0.0038672-0.0078516-2.67e-4 -2.7056e-4 -0.011419-0.0057534-0.011719-0.0058594-4.432e-4 -1.5644e-4 -0.0053494-0.0018676-0.0058594-0.0019336-5.112e-4 -6.628e-5 -0.0039994-7.383e-5 -0.0058594 0z" fill="#d41919" stop-color="#000000"/><path d="m5.2285 6.9023c-0.11708 0-0.22535 0.031451-0.32613 0.09375-0.078806 0.048711-0.23446 0.20222-0.28518 0.28125-0.072065 0.11231-0.10488 0.2338-0.097676 0.36521 0.00242 0.044234 0.0098301 0.096336 0.017578 0.12504 0.016475 0.061091 0.059587 0.15448 0.095742 0.20508 0.00527 0.00738 0.0097707 0.010996 0.019512 0.021445 0.0097399 0.01045 0.022522 0.025776 0.039082 0.043008 0.03312 0.034465 0.079002 0.081744 0.13477 0.13863 0.11153 0.11378 0.26178 0.26513 0.42381 0.42773 0.53837 0.54027 0.59144 0.59586 0.60744 0.62895 0.029831 0.061687 0.038928 0.10398 0.039023 0.16992 9.21e-5 0.066622-0.011916 0.11612-0.041016 0.17578-0.015509 0.031797-0.071832 0.091165-0.60938 0.63082-0.16292 0.16356-0.31256 0.31617-0.42381 0.42973-0.055625 0.05678-0.10205 0.10455-0.13477 0.13863-0.016358 0.01704-0.029598 0.030816-0.039082 0.041016-0.00474 0.0051-0.0087198 0.008299-0.011719 0.011719-3e-3 0.0034-0.0070729 0.008743-0.007793 0.009843-0.036882 0.05509-0.071918 0.13325-0.089824 0.19529-0.013517 0.04682-0.017578 0.07876-0.017578 0.16014 0 0.11529 0.015362 0.1798 0.062461 0.27346 0.039454 0.07846 0.081659 0.13325 0.17777 0.22658 0.11295 0.10968 0.20578 0.15719 0.32613 0.1875 0.00675 0.0017 0.010622 0.010159 0.017578 0.011719l0.070312 0.015586-0.011719-0.017578c0.07628 0.0068 0.16783 0.010147 0.23051-0.007793 0.072337-0.02072 0.14547-0.058359 0.20508-0.10354 0.00835-0.0063 0.015076-0.011855 0.03123-0.027305s0.038832-0.037523 0.066387-0.064453c0.05511-0.05387 0.132-0.12894 0.22465-0.22072 0.1853-0.18362 0.43453-0.4322 0.70312-0.70119 0.52607-0.52685 0.77961-0.78057 0.9082-0.91799 0.064296-0.068707 0.098189-0.10864 0.11912-0.14062 0.020932-0.031987 0.028211-0.055142 0.039082-0.083965 0.05407-0.14331 0.051708-0.30203-0.0039258-0.44531-0.011312-0.029132-0.018424-0.054511-0.041016-0.087891-0.022592-0.03338-0.058215-0.075446-0.12498-0.14648-0.13353-0.14208-0.3942-0.40085-0.92385-0.92971-0.36406-0.36352-0.61284-0.61178-0.77537-0.7715-0.081267-0.079862-0.1401-0.1364-0.18164-0.17578-0.020772-0.01969-0.038445-0.035844-0.050801-0.046875-0.012356-0.011031-0.019221-0.01623-0.027363-0.021445-0.096531-0.061826-0.21678-0.097676-0.33398-0.097676zm4.2988 4.0859v5.9e-5c-0.72469 0-1.0659-0.001074-1.2403 0.003926-0.087171 0.002499-0.13283 0.006982-0.166 0.013652-0.033166 0.0066-0.05144 0.01475-0.078106 0.02543-0.22763 0.09115-0.38402 0.31864-0.38479 0.55857-2.5e-4 0.0796 0.016828 0.15167 0.05666 0.23438 0.087691 0.18208 0.26817 0.31004 0.46289 0.32619 0.017382 0.0014 0.064516 0.001292 0.14256 0.001992 0.078043 6.03e-4 0.18384 0.001693 0.30861 0.001993 0.24954 4.81e-4 0.57388-0.001193 0.89648-0.001993 0.32261-7.16e-4 0.64308-3.69e-4 0.8867-0.001992 0.12181-7.88e-4 0.22522-0.003026 0.29883-0.003926 0.036809-4.7e-4 0.06658 5.05e-4 0.08789 0 0.01065-2.52e-4 0.018871-0.001692 0.025371-0.001992 0.0065-2.69e-4 0.014085 2.63e-4 0.015645 0 0.15681-0.02646 0.31276-0.12869 0.4043-0.26174 0.09374-0.13618 0.13067-0.31844 0.089824-0.46289-0.05886-0.20814-0.21942-0.36467-0.42774-0.41795-0.01362-0.0035-0.028277-0.005893-0.060527-0.007793-0.03224-0.0019-0.08318-0.003026-0.17186-0.003926-0.17736-0.0017-0.50698-0.001992-1.1465-0.001992z" fill="#d41919" stop-color="#000000"/><path d="m12.188 0.91213c-5.11e-4 6.627e-5 -0.007393 0.0017776-0.007793 0.0019336-3.01e-4 1.0594e-4 -0.011449 0.007522-0.011719 0.007793-2.68e-4 2.7056e-4 -0.003725 0.0054284-0.003926 0.0058594-2.34e-4 4.3097e-4 -0.003267 0.0060856-0.003867 0.0078516-6.12e-4 0.001765 3.58e-4 0.0023302 0 0.0038672-0.0014 0.006148-0.003725 0.011326-0.003925 0.017578-4.77e-4 0.012505 4.61e-4 0.02834 0.001992 0.046875 0.002177 0.026904 0.006604 0.059736 0.012422 0.096094 0.003398-0.0022835 0.008815-0.0058447 0.009023-0.005918 4e-4 -1.5e-4 0.007282-0.0018673 0.007793-0.0019336 5e-4 -6.63e-5 0.005793-7.97e-5 0.007793 0 0.0041 1.6e-4 0.006685 0.001071 0.009785 0.0019336 0.00614 0.00173 0.010545 0.0029894 0.015645 0.0058594 0.01029 0.005747 0.020954 0.013448 0.033164 0.023438 0.02442 0.019976 0.056016 0.049461 0.091816 0.085957 0.071595 0.072991 0.1627 0.17653 0.26367 0.2949 0.20194 0.23674 0.43779 0.53245 0.59959 0.76564 0.28314 0.40808 0.40319 0.63744 0.54492 1.043 0.10954 0.31341 0.15753 0.5558 0.16512 0.8526 4.75e-4 -0.020262 7.72e-4 -0.040917 9.37e-4 -0.061934 0.002826-0.35342-0.042358-0.61675-0.16605-0.97066-0.14173-0.40553-0.26178-0.63489-0.54492-1.043-0.1618-0.23319-0.39765-0.5289-0.59959-0.76564-0.10097-0.11837-0.19208-0.22191-0.26367-0.2949-0.0358-0.036496-0.067396-0.065981-0.091816-0.085957-0.01221-0.009988-0.022874-0.01769-0.033164-0.023438-0.0051-0.002874-0.009515-0.0041344-0.015645-0.0058594-0.0031-8.6263e-4 -0.005685-0.0017746-0.009785-0.0019336-2e-3 -7.973e-5 -0.007293-6.628e-5 -0.007793 0zm-9.0254 0.0019336c-0.00372 1.4766e-4 -0.0068652 0.0011196-0.0097851 0.0019336-0.0058302 0.001629-0.010633 0.0030604-0.015645 0.0058594-0.010025 0.005598-0.021035 0.013513-0.033164 0.023438-0.024254 0.019849-0.054127 0.049504-0.089883 0.085957-0.07151 0.072905-0.16466 0.17463-0.26561 0.29297-0.20188 0.23667-0.43596 0.53452-0.59766 0.76758-0.28307 0.40797-0.40325 0.63567-0.54492 1.041-0.12362 0.3537-0.16878 0.61751-0.166 0.97066 1.663e-4 0.021116 5.166e-4 0.041819 9.96e-4 0.062168 0.0075929-0.29679 0.055508-0.53955 0.165-0.85283 0.14167-0.40537 0.26186-0.63306 0.54492-1.041 0.1617-0.23305 0.39577-0.5309 0.59766-0.76758 0.10094-0.11834 0.1941-0.22006 0.26561-0.29297 0.035756-0.036453 0.065629-0.066108 0.089883-0.085957 0.012129-0.009924 0.023139-0.017838 0.033164-0.023438 0.005012-0.0028 0.0098145-0.0042294 0.015645-0.0058594 0.0029199-8.1e-4 0.0060651-0.0017859 0.0097851-0.0019336 0.00186-7.38e-5 0.0053482-6.63e-5 0.0058594 0 5.1e-4 6e-5 0.0054162 0.0017772 0.0058594 0.0019336 2e-4 7.33e-5 0.0052076 0.0025069 0.0086132 0.0042187 0.0053006-0.037174 0.0087437-0.071312 0.010898-0.098262 0.00148-0.018467 0.0024036-0.032653 0.0019336-0.044941-2.344e-4 -0.006144-5.847e-4 -0.011766-0.0019336-0.017578-3.38e-4 -0.001453 5.684e-4 -0.0022262 0-0.0038672-5.684e-4 -0.001642-0.0036858-0.0054284-0.0039258-0.0058594-2.35e-4 -4.3097e-4 -0.0035972-0.0075806-0.0038672-0.0078516-2.67e-4 -2.7056e-4 -0.011419-0.0057534-0.011719-0.0058594-4.432e-4 -1.5644e-4 -0.0053494-0.0018676-0.0058594-0.0019336-5.112e-4 -6.628e-5 -0.0039994-7.383e-5 -0.0058594 0zm9.0663 1.1398c-0.00258 0.24957-0.01603 0.49464-0.040781 0.67852-0.06949 0.51594-0.29342 1.0874-0.56443 1.4473-0.08271 0.10984-0.17137 0.20689-0.22658 0.33398-0.01646 0.037909-0.028534 0.080676-0.027364 0.12504 9.16e-4 0.033812 0.003346 0.069615 0.00961 0.10512 0.004712-0.017427 0.010887-0.034206 0.017812-0.050156 0.055212-0.1271 0.14387-0.22415 0.22658-0.33398 0.27101-0.35989 0.49494-0.93133 0.56443-1.4473 0.030691-0.22809 0.043976-0.55034 0.040722-0.85852zm-9.1032 7.617e-4c-0.0032263 0.30782 0.010109 0.62958 0.04084 0.85775 0.069565 0.51649 0.29304 1.0888 0.56449 1.4493 0.082828 0.10999 0.17157 0.20549 0.22652 0.33199 0.0068123 0.015683 0.012881 0.032405 0.017578 0.049746 0.0063573-0.035286 0.0089019-0.07096 0.0097852-0.10471 0.00114-0.043749-0.011012-0.087397-0.027363-0.12504-0.054953-0.1265-0.1437-0.22201-0.22652-0.33199-0.27145-0.36047-0.49493-0.93277-0.56449-1.4493-0.024768-0.18389-0.038231-0.42857-0.04084-0.67775z" fill="#fff" opacity=".2" stop-color="#000000"/><path d="m5.2285 6.9023c-0.11708 0-0.22535 0.031451-0.32613 0.09375-0.078806 0.048711-0.23446 0.20222-0.28518 0.28125-0.072065 0.11231-0.10488 0.2338-0.097676 0.36521 0.0010102 0.018465 0.0028625 0.038313 0.0052735 0.057246 0.012429-0.085231 0.043328-0.16598 0.092402-0.24246 0.050712-0.079029 0.20637-0.23254 0.28518-0.28125 0.10079-0.062299 0.20905-0.09375 0.32613-0.09375 0.11721 1e-7 0.23745 0.03585 0.33398 0.097676 0.0081419 0.0052148 0.015008 0.010415 0.027363 0.021445 0.012356 0.01103 0.030029 0.027185 0.050801 0.046875 0.041544 0.039379 0.10037 0.09592 0.18164 0.17578 0.16253 0.15972 0.41131 0.40799 0.77537 0.7715 0.52965 0.52886 0.79032 0.78763 0.92385 0.92971 0.066766 0.071038 0.10239 0.1131 0.12498 0.14648 0.022592 0.03338 0.029704 0.058758 0.041016 0.087891 0.01751 0.045095 0.029764 0.091735 0.036621 0.13893 0.015657-0.1067 0.0030543-0.21674-0.036621-0.31893-0.011312-0.029132-0.018424-0.054511-0.041016-0.087891-0.022592-0.03338-0.058215-0.075446-0.12498-0.14648-0.13353-0.14208-0.3942-0.40085-0.92385-0.92971-0.36406-0.36352-0.61284-0.61178-0.77537-0.7715-0.081267-0.079862-0.1401-0.1364-0.18164-0.17578-0.020772-0.01969-0.038445-0.035844-0.050801-0.046875-0.012356-0.011031-0.019221-0.01623-0.027363-0.021445-0.096531-0.061826-0.21678-0.097676-0.33398-0.097676zm0.65865 2.5894c-0.0066181 0.028546-0.016961 0.056149-0.031699 0.086367-0.015509 0.031797-0.071832 0.091165-0.60938 0.63082-0.16292 0.16356-0.31256 0.31617-0.42381 0.42973-0.055625 0.05678-0.10205 0.10455-0.13477 0.13863-0.016358 0.01704-0.029598 0.030816-0.039082 0.041016-0.00474 0.0051-0.0087198 0.008299-0.011719 0.011719-3e-3 0.0034-0.0070729 0.008743-0.007793 0.009843-0.036882 0.05509-0.071918 0.13325-0.089824 0.19529-0.013517 0.04682-0.017578 0.07876-0.017578 0.16014 0 0.031871 0.0011732 0.059865 0.0038672 0.085664 0.002716-0.023436 0.0070723-0.042865 0.013711-0.065859 0.017906-0.062041 0.052942-0.1402 0.089824-0.19529 7.201e-4 -0.0011 0.004793-0.006385 0.007793-0.009785 0.002999-0.00342 0.0069788-0.006619 0.011719-0.011719 0.009484-0.0102 0.022724-0.023976 0.039082-0.041016 0.032717-0.034084 0.079141-0.081853 0.13477-0.13863 0.11125-0.11356 0.26089-0.26616 0.42381-0.42973 0.53754-0.53966 0.59387-0.59902 0.60938-0.63082 0.0291-0.059666 0.041108-0.10916 0.041016-0.17578-4.99e-5 -0.034642-0.0025955-0.062754-0.0093164-0.090586zm3.6402 1.4964v5.9e-5c-0.72469 0-1.0659-0.001075-1.2403 0.003926-0.087171 0.002499-0.13283 0.006982-0.166 0.013652-0.033166 0.0066-0.05144 0.01475-0.078106 0.02543-0.22763 0.09115-0.38402 0.31864-0.38479 0.55857-9.59e-5 0.030533 0.0023663 0.059954 0.0076758 0.089297 0.034023-0.20491 0.17842-0.38831 0.37711-0.46787 0.026666-0.01068 0.04494-0.01883 0.078106-0.02543 0.033166-0.00665 0.078825-0.011153 0.166-0.013653 0.17434-0.004999 0.51556-0.003925 1.2403-0.003925v-5.9e-5c0.63952 0 0.96915 2.92e-4 1.1465 0.001992 0.088675 9e-4 0.13962 0.002026 0.17186 0.003926 0.03225 0.0019 0.046907 0.004293 0.060527 0.007793 0.20832 0.053283 0.36888 0.20981 0.42774 0.41795 0.003447 0.012191 0.00632 0.024645 0.008672 0.037324 0.01248-0.074993 0.010296-0.15024-0.008672-0.21732-0.05886-0.20814-0.21942-0.36467-0.42774-0.41795-0.01362-0.0035-0.028277-0.005893-0.060527-0.007793-0.03224-0.0019-0.08318-0.003026-0.17186-0.003926-0.17736-0.0017-0.50698-0.001992-1.1465-0.001992z" fill="#fff" opacity=".2" stop-color="#000000"/><path d="m4.5359 7.4631c-0.014323 0.057641-0.019802 0.11744-0.016406 0.17941 0.00242 0.044234 0.0098301 0.096336 0.017578 0.12504 0.016475 0.061091 0.059587 0.15448 0.095742 0.20508 0.00527 0.00738 0.0097707 0.010996 0.019512 0.021445 0.0097399 0.01045 0.022522 0.025776 0.039082 0.043008 0.03312 0.034465 0.079002 0.081744 0.13477 0.13863 0.11153 0.11378 0.26178 0.26513 0.42381 0.42773 0.53837 0.54027 0.59144 0.59586 0.60744 0.62895 0.0034307 0.0070943 0.0065921 0.01392 0.0094922 0.020566 0.020815-0.04909 0.02961-0.093577 0.029531-0.15064-9.5e-5 -0.065937-0.0091924-0.10823-0.039023-0.16992-0.016001-0.03309-0.069067-0.088677-0.60744-0.62895-0.16203-0.1626-0.31228-0.31396-0.42381-0.42773-0.055764-0.056889-0.10165-0.10417-0.13477-0.13863-0.01656-0.017232-0.029342-0.032558-0.039082-0.043008-0.0097421-0.010449-0.014242-0.014065-0.019512-0.021445-0.036155-0.050599-0.079267-0.14399-0.095742-0.20508-3.831e-4 -0.0014193-7.91e-4 -0.0029233-0.0011718-0.0044532zm3.1764 1.7951c-0.005643 0.022542-0.012584 0.04481-0.020859 0.066738-0.010871 0.028822-0.01815 0.051978-0.039082 0.083965-0.020932 0.031987-0.054825 0.071918-0.11912 0.14062-0.12859 0.13741-0.38214 0.39114-0.9082 0.91799-0.26859 0.26899-0.51783 0.51757-0.70312 0.70119-0.09265 0.091784-0.16954 0.16685-0.22465 0.22072-0.027555 0.02693-0.050233 0.049003-0.066387 0.064453s-0.02288 0.021005-0.03123 0.027305c-0.059607 0.045175-0.13274 0.082815-0.20508 0.10354-0.062676 0.01795-0.15423 0.014593-0.23051 0.007793l0.011719 0.017578-0.070312-0.015586c-0.006956-0.00156-0.010828-0.010019-0.017578-0.011719-0.12035-0.030305-0.21319-0.077822-0.32613-0.1875-0.096114-0.093336-0.13832-0.14812-0.17777-0.22658-0.022603-0.044945-0.037901-0.08316-0.047695-0.12352-0.011281 0.041715-0.014766 0.074669-0.014766 0.15012 0 0.11529 0.015362 0.1798 0.062461 0.27346 0.039454 0.07846 0.081659 0.13325 0.17777 0.22658 0.11295 0.10968 0.20578 0.15719 0.32613 0.1875 0.00675 0.0017 0.010622 0.010159 0.017578 0.011719l0.070312 0.015586-0.011719-0.017578c0.07628 0.0068 0.16783 0.010147 0.23051-0.007793 0.072337-0.02072 0.14547-0.058359 0.20508-0.10354 0.00835-0.0063 0.015076-0.011855 0.03123-0.027305s0.038832-0.037523 0.066387-0.064453c0.05511-0.05387 0.132-0.12894 0.22465-0.22072 0.1853-0.18362 0.43453-0.4322 0.70312-0.70119 0.52607-0.52685 0.77961-0.78057 0.9082-0.91799 0.064296-0.068707 0.098189-0.10864 0.11912-0.14062 0.020932-0.031987 0.028211-0.055142 0.039082-0.083965 0.04436-0.11757 0.050721-0.24551 0.020859-0.3668zm3.6161 2.143c-0.017953 0.064323-0.0465 0.12667-0.084257 0.18152-0.091536 0.13304-0.24748 0.23528-0.4043 0.26174-0.00156 2.63e-4 -0.009145-2.69e-4 -0.015645 0-0.0065 3e-4 -0.014721 0.00174-0.025371 0.001992-0.02131 5.05e-4 -0.051081-4.7e-4 -0.08789 0-0.073613 9e-4 -0.17702 0.003138-0.29883 0.003926-0.24362 0.001631-0.56409 0.001276-0.8867 0.001992-0.32261 8e-4 -0.64694 0.002474-0.89648 0.001993-0.12477-3e-4 -0.23057-0.00139-0.30861-0.001993-0.078044-7e-4 -0.12518-5.92e-4 -0.14256-0.001992-0.19472-0.01615-0.3752-0.14411-0.46289-0.32619-0.014639-0.030394-0.026219-0.059408-0.03498-0.087832-0.014007 0.049707-0.021513 0.1013-0.02168 0.15346-2.5e-4 0.0796 0.016828 0.15167 0.05666 0.23438 0.087691 0.18208 0.26817 0.31004 0.46289 0.32619 0.017382 0.0014 0.064516 0.001292 0.14256 0.001992 0.078043 6.03e-4 0.18384 0.001693 0.30861 0.001993 0.24954 4.81e-4 0.57388-0.001193 0.89648-0.001993 0.32261-7.16e-4 0.64308-3.69e-4 0.8867-0.001992 0.12181-7.88e-4 0.22522-0.003026 0.29883-0.003926 0.036808-4.7e-4 0.06658 5.05e-4 0.08789 0 0.01065-2.52e-4 0.018871-0.001692 0.025371-0.001992 0.0065-2.69e-4 0.014085 2.63e-4 0.015645 0 0.15681-0.02646 0.31276-0.12869 0.4043-0.26174 0.09374-0.13618 0.13067-0.31844 0.089824-0.46289-0.001769-0.006254-0.003616-0.012472-0.005567-0.018633z" fill="#000" opacity=".3" stop-color="#000000"/><path d="m12.189 0.91207c-5.57e-4 9.26e-6 -9.35e-4 4.275e-5 -0.001055 5.86e-5 -5.11e-4 6.627e-5 -0.007393 0.0017776-0.007793 0.0019336-3.01e-4 1.0594e-4 -0.011449 0.007522-0.011719 0.007793-2.68e-4 2.7056e-4 -0.003725 0.0054284-0.003926 0.0058594-2.34e-4 4.3097e-4 -0.003267 0.0060856-0.003867 0.0078516-6.12e-4 0.001765 3.58e-4 0.0023302 0 0.0038672-0.0014 0.006148-0.003725 0.011326-0.003925 0.017578-4.77e-4 0.012505 4.61e-4 0.02834 0.001992 0.046875 3e-3 0.03707 0.01029 0.085408 0.01957 0.13869 0.028387 0.16325 0.045153 0.41031 0.049746 0.67277 0.005785-0.32892-0.007574-0.67393-0.039023-0.90328zm-9.0238 0.0019336c-0.031305 0.22947-0.044549 0.57298-0.038789 0.9007 0.0046162-0.26207 0.021395-0.50874 0.049805-0.67213 0.0092701-0.053211 0.014625-0.10369 0.017578-0.14062 0.00148-0.018467 0.0024036-0.032653 0.0019336-0.044941-2.344e-4 -0.006144-5.847e-4 -0.011766-0.0019336-0.017578-3.38e-4 -0.001453 5.684e-4 -0.0022262 0-0.0038672-5.684e-4 -0.001642-0.0036858-0.0054284-0.0039258-0.0058594-2.35e-4 -4.3097e-4 -0.0035972-0.0075806-0.0038672-0.0078516-2.67e-4 -2.7056e-4 -0.011419-0.0057534-0.011719-0.0058594-4.432e-4 -1.5644e-4 -0.0053494-0.0018676-0.0058594-0.0019336-3.105e-4 -4.026e-5 -0.0017474-6.675e-5 -0.0032227-5.859e-5zm10.752 3.014c-0.016602 0.40706-0.099168 0.66527-0.22945 0.97904-0.062468 0.15044-0.13655 0.31913-0.27715 0.41988-0.12025 0.086076-0.28068 0.12772-0.42774 0.10939-0.58171-0.072483-1.1756-0.38171-1.541-0.84182-0.019744-0.024867-0.03414-0.052573-0.044649-0.081621-1.07e-4 2.466e-4 -2.44e-4 5.149e-4 -3.51e-4 7.617e-4 -0.01646 0.037909-0.028534 0.080676-0.027364 0.12504 0.0023 0.084931 0.014165 0.18259 0.072305 0.25582 0.36537 0.46011 0.9593 0.76933 1.541 0.84182 0.14705 0.018323 0.30749-0.023318 0.42773-0.10939 0.14064-0.10075 0.21474-0.26944 0.27721-0.41988 0.14309-0.34461 0.22865-0.62217 0.23244-1.1036 4.87e-4 -0.06085-4.72e-4 -0.11906-0.002988-0.17549zm-12.474 2.344e-4c-0.0025154 0.056386-0.0034668 0.11449-0.0029882 0.17525 0.00379 0.48105 0.089347 0.75708 0.23238 1.1016 0.062447 0.15039 0.13554 0.3179 0.27539 0.41801 0.11959 0.085603 0.27959 0.12755 0.4258 0.10934 0.58092-0.072384 1.1743-0.38045 1.5391-0.83982 0.05744-0.072332 0.070029-0.16919 0.072246-0.25389 0.00114-0.043749-0.011012-0.087397-0.027363-0.12504-2.158e-4 -4.969e-4 -4.276e-4 -9.688e-4 -6.445e-4 -0.0014648-0.010501 0.028665-0.024805 0.055919-0.044238 0.080391-0.36479 0.45937-0.95816 0.76744-1.5391 0.83982-0.14621 0.018219-0.30622-0.023733-0.4258-0.10934-0.13985-0.10011-0.21294-0.26761-0.27539-0.41801-0.1302-0.31357-0.21277-0.57042-0.22939-0.97682z" fill="#000" opacity=".3" stop-color="#000000"/><path transform="matrix(.65951 0 0 .65951 -.23416 -.20326)" d="m22 18.455-8.9e-5 0.8776c-5.1e-5 1.3255-1.0746 2.4-2.4001 2.4h-15.2c-1.323-1e-6 -2.3965-1.0707-2.3999-2.3937v0.44857c-4.43e-5 1.3255 1.0745 2.4 2.3999 2.4h15.2c1.3255-2e-6 2.4001-1.0745 2.4001-2.4l8.9e-5 -0.8776z" fill="#fff" opacity=".2" stroke-width=".92014"/></svg>
