<svg width="512" height="512" version="1.1" viewBox="0 0 135.47 135.47" xmlns="http://www.w3.org/2000/svg"><g stroke-width="2.2816"><path d="m99.775 49.788v10.557h-3.6691v1.5834h6.9056l0.0365 0.96798h-3.9238v6.2017h3.0183v15.554l2.1128 0.016v3.0855l-2.1128 0.0182v4.8682h5.5049v1.2073h-5.5049v2.4146h6.3385l6.3361-2e-3v-2.4146h4.7586v-1.2073h-4.7586v-4.8293h1.811v-3.0183h-1.811v-6.7724h14.968v-9.0573h-18.288v-5.4766h4.8022l0.0272-1.7839h-7.5458v-1.0564h3.3697v-1.1838l9.1693-0.1627 8.5774-0.16269 7e-3 -4.6784 7e-3 -4.669h-28.801zm-36.569 0.29476v6.6403h2.1128v0.83357h-1.2073v2.9488h2.4147v11.037h-3.622v6.7004h-3.4227v0.56592h3.4227v6.487h2.1116v2.0798l-2.1116 0.073v1.4856h2.5903l-0.0837 0.80881h-5.3268v1.363l2.8202 0.0388v5.1182h30.183v-6.6403h3.3202v-1.0305h-3.3202v-1.3842h-16.847v-8.4654h-3.5112v-0.7711h17.944v-5.7749l3.3202-0.38194 0.19096-1.6601 0.19097-1.6601h-15.172v-7.4361h-2.542v-1.9206l8.8899-0.16861 8.3617-0.16861h0.79466v-2.4323h-1.3182v-6.2854h-15.393zm-28.528 0.06368c-11.58-0.28055-21.82 5.1583-24.565 14.725h2.99l-0.82414 1.5316h-2.1411l-0.52585 2.3946c-0.7252 3.3351-0.14529 6.8744 0.20397 10.26h-4.2598c-0.0017 2.5259 1.0831 5.3272 2.4394 6.3396h3.1492c9.1354 14.542 36.932 15.544 45.342-4.5286l-0.37021-9.9604h-24.147v1.3771h1.4137v1.0529h-1.4137v5.3799l7.2404 0.16975 7.093 0.16975c-2.9572 7.9399-16.101 11.555-24.563 5.0686h-2.5243c-1.2374-0.56647-2.5602-3.4846-2.4064-5.0686h4.9696c-1.2374-4.1575-1.0498-10.292 1.2215-12.979h4.5888l-0.17214-1.2073h-3.3355c1.3994-4.2019 14.497-9.1935 20.331 1.811h2.226l3.7564-1.8806 3.7552-1.8817 0.72156-0.58009 0.72157-0.58008c-2.3008-2.9352-4.6026-6.3808-7.9467-7.7544h-1.1708v-1.6129c-3.9297-1.4236-7.9386-2.1525-11.799-2.2461zm-27.311 14.726v0.60366h0.60366v-0.60366h-0.30183zm53.726 3.0183v1.2368h1.811v-1.2368h-0.90551zm-34.895 3.003v0.75809h1.1602v-0.75809zm2.4147 0v0.75809h1.8747v-0.75809zm70.065 12.495v2.7h1.0269v-2.7zm1.6954 0v2.7h1.0269v-2.7zm-10.836 6.2335v1.1649h-3.0878v-1.08l1.3912-0.0424z" fill="#12715f"/><path d="m99.775 44.496v10.557h-3.6691v1.5834h6.9056l0.0365 0.96798h-3.9238v6.2017h3.0183v15.554l2.1128 0.016v3.0855l-2.1128 0.0182v4.8682h5.5049v1.2073h-5.5049v2.4146h6.3385l6.3361-2e-3v-2.4146h4.7586v-1.2073h-4.7586v-4.8293h1.811v-3.0183h-1.811v-6.7724h14.968v-9.0573h-18.288v-5.4766h4.8022l0.0272-1.7839h-7.5458v-1.0564h3.3697v-1.1838l9.1693-0.1627 8.5774-0.16269 7e-3 -4.6784 7e-3 -4.669h-28.801zm-36.569 0.29476v6.6403h2.1128v0.83357h-1.2073v2.9488h2.4147v11.037h-3.622v6.7004h-3.4227v0.56592h3.4227v6.487h2.1116v2.0798l-2.1116 0.073v1.4856h2.5903l-0.0837 0.80881h-5.3268v1.363l2.8202 0.0388v5.1182h30.183v-6.6403h3.3202v-1.0305h-3.3202v-1.3842h-16.847v-8.4654h-3.5112v-0.7711h17.944v-5.7749l3.3202-0.38194 0.19096-1.6601 0.19097-1.6601h-15.172v-7.4361h-2.542v-1.9206l8.8899-0.16861 8.3617-0.16861h0.79466v-2.4323h-1.3182v-6.2854h-15.393zm-28.528 0.06368c-11.58-0.28055-21.82 5.1583-24.565 14.725h2.99l-0.82414 1.5316h-2.1411l-0.52585 2.3946c-0.7252 3.3351-0.14529 6.8744 0.20397 10.26h-4.2598c-0.0017 2.5259 1.0831 5.3272 2.4394 6.3396h3.1492c9.1354 14.542 36.932 15.544 45.342-4.5286l-0.37021-9.9604h-24.147v1.3771h1.4137v1.0529h-1.4137v5.3799l7.2404 0.16975 7.093 0.16975c-2.9572 7.9399-16.101 11.555-24.563 5.0686h-2.5243c-1.2374-0.56647-2.5602-3.4846-2.4064-5.0686h4.9696c-1.2374-4.1575-1.0498-10.292 1.2215-12.979h4.5888l-0.17214-1.2073h-3.3355c1.3994-4.2019 14.497-9.1935 20.331 1.811h2.226l3.7564-1.8806 3.7552-1.8817 0.72156-0.58009 0.72157-0.58008c-2.3008-2.9352-4.6026-6.3808-7.9467-7.7544h-1.1708v-1.6129c-3.9297-1.4236-7.9386-2.1525-11.799-2.2461zm-27.311 14.726v0.60366h0.60366v-0.60366h-0.30183zm53.726 3.0183v1.2368h1.811v-1.2368h-0.90551zm-34.895 3.003v0.75809h1.1602v-0.75809zm2.4147 0v0.75809h1.8747v-0.75809zm70.065 12.495v2.7h1.0269v-2.7zm1.6954 0v2.7h1.0269v-2.7zm-10.836 6.2335v1.1649h-3.0878v-1.1649h1.3912z" fill="#30aa93"/><path d="m101.11 44.495-1.3343 1e-3v1.5875l1.3343-1e-3h28.799l2e-3 -1.5875h-27.466zm-37.903 0.29559v1.5875h30.183v-1.5875h-15.393zm-28.528 0.06356c-11.58-0.28055-21.82 5.1586-24.565 14.725h0.53795c3.3726-8.5776 13.104-13.402 24.027-13.138 3.86 0.09352 7.8691 0.82273 11.799 2.2464v-1.5875c-3.9297-1.4236-7.9388-2.1529-11.799-2.2464zm11.799 3.8592v1.5875h1.1705c2.978 1.2232 5.1295 4.0895 7.1897 6.7753l0.03566-0.02842 0.7214-0.58033c-2.3008-2.9352-4.6027-6.3804-7.9468-7.754h-0.58549zm46.912 2.3626v1.5875h1.3183v-1.5875h-0.262zm-29.278 1.9425v0.83354h1.2077v-0.83354h-1.0568zm31.994 2.0345v1.5834h3.669v-1.5834zm-19.445 0.71314v1.5875h2.542v-1.5875h-1.2712zm35.489 0.64182v0.53123h-3.3698v1.0563h7.522l0.0238-1.5875h-3.7729zm-13.026 1.8159v0.9679h3.9238l-0.0362-0.9679zm-73.998 1.3555c-0.38606 0.39528-0.68698 0.80244-0.88625 1.2072h3.3507l-0.1726-1.2072zm-17.759 1e-3v0.60358h0.60358v-0.60358h-0.30179zm2.7585 1.5865-0.51366 2.3384c-0.31102 1.4303-0.38177 2.8982-0.33383 4.3754 0.034055-0.93978 0.13457-1.8716 0.33383-2.7879l0.52607-2.3947h2.141l0.82424-1.5312h-0.87747zm50.967 1.432v1.2366h1.8113v-1.2366h-0.90537zm18.11 0.60358v1.5875h14.989l0.18242-1.5875h-7.5856zm32.294 0.46612v1.5875h18.288v-1.5875h-9.0547zm-85.298 1.9332v0.75809h1.1601v-0.75809zm2.4148 0v0.75809h1.8748v-0.75809zm3.3569 0.01395v1.3772h1.4134v0.21032h22.733l0.31574 8.5018c0.01816-0.04274 0.03627-0.08575 0.05426-0.12868l-0.37-9.9606h-11.47zm30.934 0.63459v1.5875h3.622v-1.5875h-1.8113zm-30.934 2.3301v1.0532h1.4134v-1.0532zm-10.934 0.42685c-0.06109 1.5996 0.06619 3.2508 0.35812 4.7578h0.38551c-0.42453-1.4264-0.68115-3.0852-0.74362-4.7578zm38.446 3.9434v0.56586h3.4225v-0.56586h-1.6604zm-53.925 0.81442c-3.523e-4 0.52346 0.045538 1.0588 0.13126 1.5875h4.1284c-0.054254-0.52587-0.114-1.0555-0.17363-1.5875h-1.957zm67.173 0.50178v0.77101h3.5114v-0.77101zm-27.173 1.0676c-3.9898 6.8187-15.934 9.5418-23.816 3.4995h-2.5244c-0.88606-0.40564-1.8158-2.0174-2.2159-3.4814h-0.19069c-0.1538 1.584 1.1692 4.5025 2.4066 5.0689h2.5244c8.4618 6.4867 21.605 2.871 24.562-5.0689zm53.122 2.7626v1.5875h1.0268v-1.5875zm1.6955 0v1.5875h1.0268v-1.5875zm14.443 1.4009v1.5875h1.8108v-1.5875h-0.90538zm-38.576 2.4174v1.5875h16.847v0.82734h3.3202v-1.0304h-3.3202v-1.3844h-8.4879zm-11.225 0.16795-2.1115 0.07286v1.4857h2.1115zm39.239 0.37775-2.113 0.0186v1.5875l2.113-0.0186zm-44.171 1.9895v1.3632l2.8205 0.03876v0.18552h2.5068l0.0832-0.80874h-2.59v-0.77877zm29.453 1.5524h-3.0877v1.08h3.0877v-0.56121zm25.28 1.3426v1.2077h4.7584v-1.2077h-2.0056zm-12.675 1.5896v1.2072h5.5051v-1.2072h-2.7533z" fill="#fff" opacity=".2"/></g></svg>
