<svg version="1.1" viewBox="0 0 512 512" xmlns="http://www.w3.org/2000/svg"><defs><linearGradient id="m" x1="-483.61" x2="-212.08" y1="38.735" y2="19.559" gradientUnits="userSpaceOnUse"><stop stop-color="#d41919" offset="0"/><stop stop-color="#fd7d00" offset="1"/></linearGradient></defs><path d="m407.54 150.39-4e-3 1.4492h2e-3l-2e-3 1.2676-2.1719-4e-3 -0.01 5.5234 4.3965 0.23047c2.4179 0.12735 4.6976 0.61137 5.0664 1.0742 0.8573 1.0759 0.69136 20.391-0.0195 27.033-2.1748 0.37183-6.0949 0.64344-10.361 0.67187-4.5761 0.0306-8.6436 0.2166-10.555 0.45313v-2e-3c-0.0114 1e-3 -0.0161 2e-3 -0.0273 4e-3 -0.31242 0.0391-0.56748 0.0797-0.75391 0.12109-3e-3 7.7e-4 -0.0122 1e-3 -0.0156 2e-3 -0.14523 0.0328-0.25473 0.0659-0.3125 0.0996-5e-3 3e-3 -9e-3 9e-3 -0.0137 0.0117-3e-3 2e-3 -9e-3 4e-3 -0.0117 6e-3 -3e-3 2e-3 -7e-3 5e-3 -0.01 8e-3 -2e-3 2e-3 -4e-3 5e-3 -6e-3 8e-3 -9e-3 0.0111-0.0167 0.0248-0.0254 0.0391-5e-3 9e-3 -0.0104 0.0177-0.0156 0.0273l-2e-3 2e-3v2e-3c-5.8e-4 1e-3 -1e-3 3e-3 -2e-3 4e-3 -0.0105 0.0201-0.021 0.0438-0.0312 0.0684-6e-3 0.0142-0.0118 0.0312-0.0176 0.0469-0.0135 0.036-0.0281 0.0679-0.041 0.11133v2e-3c-7e-3 0.0244-0.0124 0.0652-0.0195 0.0918-4.6e-4 2e-3 -1e-3 4e-3 -2e-3 6e-3 -6e-3 0.0248-0.0133 0.0575-0.0195 0.084-0.0353 0.14683-0.0639 0.33027-0.0937 0.52734-0.01 0.0645-0.0221 0.10679-0.0312 0.17578 4e-3 -4.7e-4 0.01-1e-3 0.0137-2e-3 -0.0492 0.36144-0.0991 0.73413-0.12695 1.1992-1.0333 0.10014-1.6688 0.21245-1.7617 0.32812-0.28141 0.35063-0.48647 2.3079-0.45508 4.3496l0.0566 3.7129 2.7754 0.0801c1.5263 0.0436 3.0982 0.48546 3.4941 0.98242s0.70475 22.212 0.68555 48.258c-0.0395 54.068-0.43024 51.165 7.9199 58.887 2.5566 2.3634 6.2868 6.0381 8.2891 8.166 4.3712 4.6456 4.1256 3.376 5.3926 27.85 0.50314 9.7239 1.113 17.93 1.3535 18.234 0.0103 0.0131 0.0224 0.0206 0.0332 0.0234 9.9e-4 1.8e-4 5e-3 2e-3 6e-3 2e-3 1e-3 1e-5 5e-3 -2e-3 6e-3 -2e-3 0.24105-0.037 0.59214-2.4396 0.80469-5.6016 0.14259-2.1214 0.30339-4.3748 0.4746-6.6738 0.14748 2.2847 0.22614 2.3997 0.35547 3.9707 1.9e-4 2e-3 -1.9e-4 4e-3 0 6e-3 -0.0112 0.16234-0.028 0.34871-0.0391 0.50977 0.22163 2.907 0.4112 4.7161 0.52539 4.9355 2e-3 4e-3 8e-3 0.11274 0.01 0.11524v2e-3c1e-3 2e-3 5e-3 4e-3 6e-3 6e-3 9.4e-4 9.9e-4 1e-3 3e-3 2e-3 4e-3h2e-3v2e-3c9.5e-4 8.5e-4 3e-3 1e-3 4e-3 2e-3l2e-3 2e-3h2e-3c1e-3 9.8e-4 2e-3 3e-3 4e-3 4e-3h2e-3c3e-3 1e-3 7e-3 3e-3 0.01 4e-3 2e-3 4.5e-4 7e-3 0 0.01 0 1e-3 -2e-5 3e-3 1.1e-4 4e-3 0h2e-3c3e-3 -5.5e-4 5e-3 -3e-3 8e-3 -4e-3h2e-3c1e-3 -6.7e-4 3e-3 -1e-3 4e-3 -2e-3l2e-3 -2e-3c1e-3 -7.9e-4 3e-3 -1e-3 4e-3 -2e-3l2e-3 -2e-3c7e-3 -5e-3 0.0146-0.0108 0.0215-0.0195v-2e-3c9.6e-4 -1e-3 3e-3 -3e-3 4e-3 -4e-3 7e-3 -9e-3 0.0146-0.0211 0.0215-0.0332 5e-3 -9e-3 0.0105-0.0205 0.0156-0.0312 3e-3 -6e-3 5e-3 -0.0126 8e-3 -0.0195 2e-3 -5e-3 6e-3 -0.0161 8e-3 -0.0215 0.0247-0.0596 0.0484-0.13679 0.0742-0.23242 0.21545-0.78673 0.46374-2.7715 0.62891-5.2285 7e-3 -0.10038 0.0127-0.20177 0.0195-0.30273 0.0147-0.20612 0.0293-0.41765 0.043-0.61719v-2e-3c-2.5e-4 -3e-3 2.5e-4 -7e-3 0-0.01 0.94235-13.769 2.5742-32.361 2.998-34.1 0.0149-0.061 0.0333-0.12502 0.0566-0.1914 4.5e-4 -1e-3 2e-3 -3e-3 2e-3 -4e-3 0.0722-0.20382 0.18527-0.43199 0.3418-0.69141 1.4063-1.52 3.4486-3.5256 6.291-6.1953 5.1202-4.8093 7.5431-7.3179 8.9141-9.3711 1.2453-1.372 2.0489-2.4376 2.6308-3.4434 0.19319-0.33244 0.36059-0.65761 0.51172-0.98438 1.231-2.6615 1.5641-10.993 2-50.143 0.31652-28.519 0.73104-43.317 1.3496-47.553 0.65063-0.23351 1.4422-0.35196 2.4082-0.36914l3.1641-0.0566-0.0293-2.6719 2.2051-0.0391v-2e-3l-0.0937-8.7129-10.889-0.11914c-4.9278-0.0539-8.0826-0.25445-9.9746-0.67188h-2e-3c-1.0396-0.22952-1.6966-0.526-2.0586-0.89843-0.0329-0.0339-0.0637-0.0683-0.0918-0.10352-0.0568-0.0712-0.11196-0.1553-0.16406-0.25-0.15629-0.2841-0.29199-0.67551-0.4082-1.1973-0.46483-2.0868-0.62106-6.2364-0.56445-13.721v-2e-3c0.0372-4.8595 0.13635-9.2084 0.2539-11.736 0.90987-0.10009 2.0553-0.18398 3.2676-0.23242l4.8906-0.19531 6e-3 -2.627 2.1699-0.0859h2e-3l0.01-5.5371-33.365-0.0586zm-346.7 6.9707a4.8369 4.8369 0 0 0-4.8359 4.8379v17.086a4.8369 4.8369 0 0 0 0.12109 0.28906 4.8369 4.8369 0 0 0-0.12109 0.29102v28.438a4.8369 4.8369 0 0 0 0.12109 0.28906 4.8369 4.8369 0 0 0-0.12109 0.29102v28.439a4.8369 4.8369 0 0 0 0.12109 0.28906 4.8369 4.8369 0 0 0-0.12109 0.29102v17.086a4.8369 4.8369 0 0 0 4.8359 4.8359h9.9824a4.8369 4.8369 0 0 0 0.07422-0.0312 4.8369 4.8369 0 0 0 0.07422 0.0312h14.207a4.8369 4.8369 0 0 0 0.07422-0.0312 4.8369 4.8369 0 0 0 0.07227 0.0312h14.207a4.8369 4.8369 0 0 0 0.07422-0.0312 4.8369 4.8369 0 0 0 0.07422 0.0312h14.207a4.8369 4.8369 0 0 0 0.0723-0.0312 4.8369 4.8369 0 0 0 0.0742 0.0312h13.768v6.5156a4.8369 4.8369 0 0 0 0.12109 0.28906 4.8369 4.8369 0 0 0-0.12109 0.29102v6.5156h-13.768a4.8369 4.8369 0 0 0-0.0742 0.0312 4.8369 4.8369 0 0 0-0.0723-0.0312h-14.207a4.8369 4.8369 0 0 0-0.07422 0.0312 4.8369 4.8369 0 0 0-0.07422-0.0312h-14.207a4.8369 4.8369 0 0 0-0.07227 0.0312 4.8369 4.8369 0 0 0-0.07422-0.0312h-14.207a4.8369 4.8369 0 0 0-0.07422 0.0312 4.8369 4.8369 0 0 0-0.07422-0.0312h-9.9824a4.8369 4.8369 0 0 0-4.8359 4.8359v17.088a4.8369 4.8369 0 0 0 0.12109 0.28906 4.8369 4.8369 0 0 0-0.12109 0.28906v17.088a4.8369 4.8369 0 0 0 4.8359 4.8359h9.9824a4.8369 4.8369 0 0 0 0.07422-0.0312 4.8369 4.8369 0 0 0 0.07422 0.0312h14.207a4.8369 4.8369 0 0 0 0.07422-0.0312 4.8369 4.8369 0 0 0 0.07227 0.0312h14.207a4.8369 4.8369 0 0 0 0.07422-0.0312 4.8369 4.8369 0 0 0 0.07422 0.0312h14.207a4.8369 4.8369 0 0 0 0.0723-0.0312 4.8369 4.8369 0 0 0 0.0742 0.0312h14.207a4.8369 4.8369 0 0 0 0.0742-0.0312 4.8369 4.8369 0 0 0 0.0742 0.0312h14.207a4.8369 4.8369 0 0 0 0.0723-0.0312 4.8369 4.8369 0 0 0 0.0742 0.0312h14.207a4.8369 4.8369 0 0 0 0.0742-0.0312 4.8369 4.8369 0 0 0 0.0723 0.0312h14.207a4.8369 4.8369 0 0 0 0.0742-0.0312 4.8369 4.8369 0 0 0 0.0742 0.0312h14.207a4.8369 4.8369 0 0 0 0.0742-0.0312 4.8369 4.8369 0 0 0 0.0723 0.0312h14.207a4.8369 4.8369 0 0 0 0.0742-0.0312 4.8369 4.8369 0 0 0 0.0742 0.0312h14.209a4.8369 4.8369 0 0 0 0.0703-0.0312 4.8369 4.8369 0 0 0 0.0742 0.0312h14.209a4.8369 4.8369 0 0 0 0.0723-0.0312 4.8369 4.8369 0 0 0 0.0742 0.0312h14.209a4.8369 4.8369 0 0 0 0.0723-0.0312 4.8369 4.8369 0 0 0 0.0742 0.0312h14.207a4.8369 4.8369 0 0 0 0.0742-0.0312 4.8369 4.8369 0 0 0 0.0723 0.0312h9.9824a4.8369 4.8369 0 0 0 4.8359-4.8359v-17.088a4.8369 4.8369 0 0 0-0.1211-0.28906 4.8369 4.8369 0 0 0 0.1211-0.28906v-28.439a4.8369 4.8369 0 0 0-0.1211-0.29102 4.8369 4.8369 0 0 0 0.1211-0.28906v-28.438a4.8369 4.8369 0 0 0-0.1211-0.29102 4.8369 4.8369 0 0 0 0.1211-0.28906v-17.088a4.8369 4.8369 0 0 0-4.8359-4.8359h-9.9824a4.8369 4.8369 0 0 0-0.0723 0.0312 4.8369 4.8369 0 0 0-0.0742-0.0312h-14.207a4.8369 4.8369 0 0 0-0.0742 0.0312 4.8369 4.8369 0 0 0-0.0723-0.0312h-14.209a4.8369 4.8369 0 0 0-0.0742 0.0312 4.8369 4.8369 0 0 0-0.0723-0.0312h-14.209a4.8369 4.8369 0 0 0-0.0742 0.0312 4.8369 4.8369 0 0 0-0.0703-0.0312h-13.768v-6.5156a4.8369 4.8369 0 0 0-0.1211-0.29102 4.8369 4.8369 0 0 0 0.1211-0.28906v-6.5156h13.768a4.8369 4.8369 0 0 0 0.0703-0.0293 4.8369 4.8369 0 0 0 0.0742 0.0293h14.209a4.8369 4.8369 0 0 0 0.0723-0.0293 4.8369 4.8369 0 0 0 0.0742 0.0293h14.209a4.8369 4.8369 0 0 0 0.0723-0.0293 4.8369 4.8369 0 0 0 0.0742 0.0293h14.207a4.8369 4.8369 0 0 0 0.0742-0.0293 4.8369 4.8369 0 0 0 0.0723 0.0293h14.207a4.8369 4.8369 0 0 0 0.0742-0.0293 4.8369 4.8369 0 0 0 0.0742 0.0293h14.207a4.8369 4.8369 0 0 0 0.0742-0.0293 4.8369 4.8369 0 0 0 0.0723 0.0293h13.768v6.5156a4.8369 4.8369 0 0 0 0.10742 0.26172 4.8369 4.8369 0 0 0-0.13281 0.31836v28.439a4.8369 4.8369 0 0 0 0.12109 0.28906 4.8369 4.8369 0 0 0-0.12109 0.29102v28.438a4.8369 4.8369 0 0 0 0.12109 0.28906 4.8369 4.8369 0 0 0-0.12109 0.29102v28.439a4.8369 4.8369 0 0 0 0.12109 0.28906 4.8369 4.8369 0 0 0-0.12109 0.28906v17.088a4.8369 4.8369 0 0 0 4.8379 4.8359h9.9824a4.8369 4.8369 0 0 0 0.0723-0.0312 4.8369 4.8369 0 0 0 0.0742 0.0312h14.207a4.8369 4.8369 0 0 0 0.0742-0.0312 4.8369 4.8369 0 0 0 0.0742 0.0312h9.9824a4.8369 4.8369 0 0 0 4.8359-4.8359v-17.088a4.8369 4.8369 0 0 0-0.1211-0.28906 4.8369 4.8369 0 0 0 0.1211-0.28906v-28.439a4.8369 4.8369 0 0 0-0.1211-0.29102 4.8369 4.8369 0 0 0 0.1211-0.28906v-28.438a4.8369 4.8369 0 0 0-0.1211-0.29102 4.8369 4.8369 0 0 0 0.1211-0.28906v-28.439a4.8369 4.8369 0 0 0-0.13282-0.31641 4.8369 4.8369 0 0 0 0.10938-0.26367v-6.5156h13.766a4.8369 4.8369 0 0 0 0.0742-0.0293 4.8369 4.8369 0 0 0 0.0742 0.0293h14.207a4.8369 4.8369 0 0 0 0.0742-0.0293 4.8369 4.8369 0 0 0 0.0742 0.0293h9.9824a4.8369 4.8369 0 0 0 4.8359-4.8359v-17.086a4.8369 4.8369 0 0 0-0.12109-0.29102 4.8369 4.8369 0 0 0 0.12109-0.28906v-17.086a4.8369 4.8369 0 0 0-4.8359-4.8379h-9.9824a4.8369 4.8369 0 0 0-0.0742 0.0312 4.8369 4.8369 0 0 0-0.0742-0.0312h-14.207a4.8369 4.8369 0 0 0-0.0742 0.0312 4.8369 4.8369 0 0 0-0.0742-0.0312h-14.207a4.8369 4.8369 0 0 0-0.0742 0.0312 4.8369 4.8369 0 0 0-0.0723-0.0312h-14.207a4.8369 4.8369 0 0 0-0.0742 0.0312 4.8369 4.8369 0 0 0-0.0742-0.0312h-14.207a4.8369 4.8369 0 0 0-0.0742 0.0312 4.8369 4.8369 0 0 0-0.0723-0.0312h-14.207a4.8369 4.8369 0 0 0-0.0742 0.0312 4.8369 4.8369 0 0 0-0.0742-0.0312h-14.207a4.8369 4.8369 0 0 0-0.0723 0.0312 4.8369 4.8369 0 0 0-0.0742-0.0312h-14.207a4.8369 4.8369 0 0 0-0.0742 0.0312 4.8369 4.8369 0 0 0-0.0742-0.0312h-14.207a4.8369 4.8369 0 0 0-0.0723 0.0312 4.8369 4.8369 0 0 0-0.0742-0.0312h-14.207a4.8369 4.8369 0 0 0-0.0742 0.0312 4.8369 4.8369 0 0 0-0.0723-0.0312h-14.209a4.8369 4.8369 0 0 0-0.0742 0.0312 4.8369 4.8369 0 0 0-0.0723-0.0312h-14.209a4.8369 4.8369 0 0 0-0.0742 0.0312 4.8369 4.8369 0 0 0-0.0703-0.0312h-14.209a4.8369 4.8369 0 0 0-0.0742 0.0312 4.8369 4.8369 0 0 0-0.0742-0.0312h-14.207a4.8369 4.8369 0 0 0-0.0723 0.0312 4.8369 4.8369 0 0 0-0.0742-0.0312h-14.207a4.8369 4.8369 0 0 0-0.0742 0.0312 4.8369 4.8369 0 0 0-0.0742-0.0312h-14.207a4.8369 4.8369 0 0 0-0.0723 0.0312 4.8369 4.8369 0 0 0-0.0742-0.0312h-14.207a4.8369 4.8369 0 0 0-0.0742 0.0312 4.8369 4.8369 0 0 0-0.0723-0.0312h-14.207a4.8369 4.8369 0 0 0-0.0742 0.0312 4.8369 4.8369 0 0 0-0.0742-0.0312h-14.207a4.8369 4.8369 0 0 0-0.0742 0.0312 4.8369 4.8369 0 0 0-0.0723-0.0312h-14.207a4.8369 4.8369 0 0 0-0.07422 0.0312 4.8369 4.8369 0 0 0-0.07422-0.0312h-14.207a4.8369 4.8369 0 0 0-0.07227 0.0312 4.8369 4.8369 0 0 0-0.07422-0.0312h-14.207a4.8369 4.8369 0 0 0-0.07422 0.0312 4.8369 4.8369 0 0 0-0.07422-0.0312zm24.41 15.377a4.8369 4.8369 0 0 0 0.07422 0.0313h14.207a4.8369 4.8369 0 0 0 0.07422-0.0313 4.8369 4.8369 0 0 0 0.07422 0.0313h14.207a4.8369 4.8369 0 0 0 0.0723-0.0313 4.8369 4.8369 0 0 0 0.0742 0.0313h14.207a4.8369 4.8369 0 0 0 0.0742-0.0313 4.8369 4.8369 0 0 0 0.0742 0.0313h14.205a4.8369 4.8369 0 0 0 0.0742-0.0313 4.8369 4.8369 0 0 0 0.0742 0.0313h13.742v6.5156a4.8369 4.8369 0 0 0 0.13281 0.31836 4.8369 4.8369 0 0 0-0.10742 0.26172v6.5156h-13.768a4.8369 4.8369 0 0 0-0.0742 0.0293 4.8369 4.8369 0 0 0-0.0742-0.0293h-14.205a4.8369 4.8369 0 0 0-0.0742 0.0293 4.8369 4.8369 0 0 0-0.0742-0.0293h-14.207a4.8369 4.8369 0 0 0-0.0742 0.0293 4.8369 4.8369 0 0 0-0.0723-0.0293h-14.207a4.8369 4.8369 0 0 0-0.07422 0.0293 4.8369 4.8369 0 0 0-0.07422-0.0293h-9.9824a4.8369 4.8369 0 0 0-4.8359 4.8359v17.086a4.8369 4.8369 0 0 0 0.12109 0.28906 4.8369 4.8369 0 0 0-0.12109 0.29102v17.086a4.8369 4.8369 0 0 0 4.8359 4.8359h9.9824a4.8369 4.8369 0 0 0 0.07422-0.0293 4.8369 4.8369 0 0 0 0.07422 0.0293h14.207a4.8369 4.8369 0 0 0 0.0723-0.0293 4.8369 4.8369 0 0 0 0.0742 0.0293h14.207a4.8369 4.8369 0 0 0 0.0742-0.0293 4.8369 4.8369 0 0 0 0.0742 0.0293h14.205a4.8369 4.8369 0 0 0 0.0742-0.0293 4.8369 4.8369 0 0 0 0.0742 0.0293h13.768v6.5176a4.8369 4.8369 0 0 0 0.10742 0.25977 4.8369 4.8369 0 0 0-0.13281 0.32031v28.438a4.8369 4.8369 0 0 0 0.12109 0.28906 4.8369 4.8369 0 0 0-0.12109 0.29102v28.438a4.8369 4.8369 0 0 0 0.12109 0.28906 4.8369 4.8369 0 0 0-0.12109 0.29101v6.5176h-13.742a4.8369 4.8369 0 0 0-0.0742 0.0293 4.8369 4.8369 0 0 0-0.0742-0.0293h-14.205a4.8369 4.8369 0 0 0-0.0742 0.0293 4.8369 4.8369 0 0 0-0.0742-0.0293h-14.207a4.8369 4.8369 0 0 0-0.0742 0.0293 4.8369 4.8369 0 0 0-0.0723-0.0293h-14.207a4.8369 4.8369 0 0 0-0.07422 0.0293 4.8369 4.8369 0 0 0-0.07422-0.0293h-14.207a4.8369 4.8369 0 0 0-0.07422 0.0293 4.8369 4.8369 0 0 0-0.07227-0.0293h-13.768v-6.5176a4.8369 4.8369 0 0 0-0.12109-0.29101 4.8369 4.8369 0 0 0 0.12109-0.28906v-6.5156h13.768a4.8369 4.8369 0 0 0 0.07227-0.0293 4.8369 4.8369 0 0 0 0.07422 0.0293h14.207a4.8369 4.8369 0 0 0 0.07422-0.0293 4.8369 4.8369 0 0 0 0.07422 0.0293h14.207a4.8369 4.8369 0 0 0 0.0723-0.0293 4.8369 4.8369 0 0 0 0.0742 0.0293h14.207a4.8369 4.8369 0 0 0 0.0742-0.0293 4.8369 4.8369 0 0 0 0.0742 0.0293h9.9824a4.8369 4.8369 0 0 0 4.8359-4.8359v-17.086a4.8369 4.8369 0 0 0-0.12109-0.29102 4.8369 4.8369 0 0 0 0.12109-0.28906v-17.086a4.8369 4.8369 0 0 0-4.8359-4.8359h-9.9824a4.8369 4.8369 0 0 0-0.0742 0.0293 4.8369 4.8369 0 0 0-0.0742-0.0293h-14.207a4.8369 4.8369 0 0 0-0.0742 0.0293 4.8369 4.8369 0 0 0-0.0723-0.0293h-14.207a4.8369 4.8369 0 0 0-0.07422 0.0293 4.8369 4.8369 0 0 0-0.07422-0.0293h-14.207a4.8369 4.8369 0 0 0-0.07422 0.0293 4.8369 4.8369 0 0 0-0.07227-0.0293h-13.768v-6.5156a4.8369 4.8369 0 0 0-0.10938-0.26367 4.8369 4.8369 0 0 0 0.13281-0.31641v-28.439a4.8369 4.8369 0 0 0-0.12109-0.29102 4.8369 4.8369 0 0 0 0.12109-0.28906v-28.438a4.8369 4.8369 0 0 0-0.13281-0.31836 4.8369 4.8369 0 0 0 0.10938-0.26172v-6.5156h13.768a4.8369 4.8369 0 0 0 0.07227-0.0313zm100.48 0a4.8369 4.8369 0 0 0 0.0742 0.0313h14.207a4.8369 4.8369 0 0 0 0.0742-0.0313 4.8369 4.8369 0 0 0 0.0742 0.0313h14.207a4.8369 4.8369 0 0 0 0.0723-0.0313 4.8369 4.8369 0 0 0 0.0742 0.0313h14.209a4.8369 4.8369 0 0 0 0.0723-0.0313 4.8369 4.8369 0 0 0 0.0723 0.0313h14.209a4.8369 4.8369 0 0 0 0.0742-0.0313 4.8369 4.8369 0 0 0 0.0742 0.0313h13.742v6.5156a4.8369 4.8369 0 0 0 0.12109 0.28906 4.8369 4.8369 0 0 0-0.12109 0.29102v6.5156h-13.742a4.8369 4.8369 0 0 0-0.0742 0.0293 4.8369 4.8369 0 0 0-0.0742-0.0293h-14.209a4.8369 4.8369 0 0 0-0.0723 0.0293 4.8369 4.8369 0 0 0-0.0723-0.0293h-14.209a4.8369 4.8369 0 0 0-0.0742 0.0293 4.8369 4.8369 0 0 0-0.0723-0.0293h-14.207a4.8369 4.8369 0 0 0-0.0742 0.0293 4.8369 4.8369 0 0 0-0.0742-0.0293h-9.9805a4.8369 4.8369 0 0 0-4.8359 4.8359v17.086a4.8369 4.8369 0 0 0 0.12109 0.28906 4.8369 4.8369 0 0 0-0.12109 0.29102v17.086a4.8369 4.8369 0 0 0 4.8359 4.8359h9.9805a4.8369 4.8369 0 0 0 0.0742-0.0293 4.8369 4.8369 0 0 0 0.0742 0.0293h14.207a4.8369 4.8369 0 0 0 0.0723-0.0293 4.8369 4.8369 0 0 0 0.0742 0.0293h14.209a4.8369 4.8369 0 0 0 0.0723-0.0293 4.8369 4.8369 0 0 0 0.0723 0.0293h14.209a4.8369 4.8369 0 0 0 0.0742-0.0293 4.8369 4.8369 0 0 0 0.0742 0.0293h13.764v6.5176a4.8369 4.8369 0 0 0 0.11132 0.26172 4.8369 4.8369 0 0 0-0.13281 0.31836v28.438a4.8369 4.8369 0 0 0 0.12109 0.28906 4.8369 4.8369 0 0 0-0.12109 0.29102v28.438a4.8369 4.8369 0 0 0 0.13281 0.31835 4.8369 4.8369 0 0 0-0.11132 0.26172v6.5176h-13.764a4.8369 4.8369 0 0 0-0.0742 0.0293 4.8369 4.8369 0 0 0-0.0742-0.0293h-14.209a4.8369 4.8369 0 0 0-0.0723 0.0293 4.8369 4.8369 0 0 0-0.0723-0.0293h-14.209a4.8369 4.8369 0 0 0-0.0742 0.0293 4.8369 4.8369 0 0 0-0.0723-0.0293h-14.207a4.8369 4.8369 0 0 0-0.0742 0.0293 4.8369 4.8369 0 0 0-0.0742-0.0293h-14.207a4.8369 4.8369 0 0 0-0.0742 0.0293 4.8369 4.8369 0 0 0-0.0723-0.0293h-13.742v-6.5176a4.8369 4.8369 0 0 0-0.13281-0.3164 4.8369 4.8369 0 0 0 0.10937-0.26367v-6.5156h13.766a4.8369 4.8369 0 0 0 0.0723-0.0293 4.8369 4.8369 0 0 0 0.0742 0.0293h14.207a4.8369 4.8369 0 0 0 0.0742-0.0293 4.8369 4.8369 0 0 0 0.0742 0.0293h14.207a4.8369 4.8369 0 0 0 0.0723-0.0293 4.8369 4.8369 0 0 0 0.0742 0.0293h14.209a4.8369 4.8369 0 0 0 0.0723-0.0293 4.8369 4.8369 0 0 0 0.0723 0.0293h9.9844a4.8369 4.8369 0 0 0 4.8359-4.8359v-17.086a4.8369 4.8369 0 0 0-0.12109-0.29102 4.8369 4.8369 0 0 0 0.12109-0.28906v-17.086a4.8369 4.8369 0 0 0-4.8359-4.8359h-9.9844a4.8369 4.8369 0 0 0-0.0723 0.0293 4.8369 4.8369 0 0 0-0.0723-0.0293h-14.209a4.8369 4.8369 0 0 0-0.0742 0.0293 4.8369 4.8369 0 0 0-0.0723-0.0293h-14.207a4.8369 4.8369 0 0 0-0.0742 0.0293 4.8369 4.8369 0 0 0-0.0742-0.0293h-14.207a4.8369 4.8369 0 0 0-0.0742 0.0293 4.8369 4.8369 0 0 0-0.0723-0.0293h-13.766v-6.5156a4.8369 4.8369 0 0 0-0.10937-0.26367 4.8369 4.8369 0 0 0 0.13281-0.31641v-28.439a4.8369 4.8369 0 0 0-0.12109-0.29102 4.8369 4.8369 0 0 0 0.12109-0.28906v-28.438a4.8369 4.8369 0 0 0-0.12109-0.29102 4.8369 4.8369 0 0 0 0.12109-0.28906v-6.5156h13.742a4.8369 4.8369 0 0 0 0.0723-0.0313zm100.48 0a4.8369 4.8369 0 0 0 0.0742 0.0313h14.207a4.8369 4.8369 0 0 0 0.0742-0.0313 4.8369 4.8369 0 0 0 0.0723 0.0313h14.207a4.8369 4.8369 0 0 0 0.0742-0.0313 4.8369 4.8369 0 0 0 0.0742 0.0313h14.207a4.8369 4.8369 0 0 0 0.0742-0.0313 4.8369 4.8369 0 0 0 0.0723 0.0313h14.207a4.8369 4.8369 0 0 0 0.0742-0.0313 4.8369 4.8369 0 0 0 0.0742 0.0313h14.207a4.8369 4.8369 0 0 0 0.0723-0.0313 4.8369 4.8369 0 0 0 0.0742 0.0313h13.768v6.5156a4.8369 4.8369 0 0 0 0.12109 0.28906 4.8369 4.8369 0 0 0-0.12109 0.29102v6.5156h-13.768a4.8369 4.8369 0 0 0-0.0742 0.0293 4.8369 4.8369 0 0 0-0.0723-0.0293h-14.207a4.8369 4.8369 0 0 0-0.0742 0.0293 4.8369 4.8369 0 0 0-0.0742-0.0293h-9.9824a4.8369 4.8369 0 0 0-4.8359 4.8359v17.086a4.8369 4.8369 0 0 0 0.12109 0.28906 4.8369 4.8369 0 0 0-0.12109 0.29102v28.439a4.8369 4.8369 0 0 0 0.12109 0.28906 4.8369 4.8369 0 0 0-0.12109 0.29102v28.438a4.8369 4.8369 0 0 0 0.12109 0.28906 4.8369 4.8369 0 0 0-0.12109 0.29102v28.438a4.8369 4.8369 0 0 0 0.13281 0.32031 4.8369 4.8369 0 0 0-0.10938 0.25976v6.5176h-13.326v-6.5176a4.8369 4.8369 0 0 0-0.10742-0.25976 4.8369 4.8369 0 0 0 0.13281-0.32031v-28.438a4.8369 4.8369 0 0 0-0.12109-0.29102 4.8369 4.8369 0 0 0 0.12109-0.28906v-28.438a4.8369 4.8369 0 0 0-0.12109-0.29102 4.8369 4.8369 0 0 0 0.12109-0.28906v-28.439a4.8369 4.8369 0 0 0-0.12109-0.29102 4.8369 4.8369 0 0 0 0.12109-0.28906v-17.086a4.8369 4.8369 0 0 0-4.8359-4.8359h-9.9844a4.8369 4.8369 0 0 0-0.0723 0.0293 4.8369 4.8369 0 0 0-0.0742-0.0293h-14.207a4.8369 4.8369 0 0 0-0.0742 0.0293 4.8369 4.8369 0 0 0-0.0742-0.0293h-13.744v-6.5156a4.8369 4.8369 0 0 0-0.11914-0.29102 4.8369 4.8369 0 0 0 0.11914-0.28906v-6.5156h13.744a4.8369 4.8369 0 0 0 0.0742-0.0313zm-172.25 29.02a4.8369 4.8369 0 0 0 0.0742 0.0293h14.207a4.8369 4.8369 0 0 0 0.0742-0.0293 4.8369 4.8369 0 0 0 0.0723 0.0293h14.207a4.8369 4.8369 0 0 0 0.0742-0.0293 4.8369 4.8369 0 0 0 0.0742 0.0293h13.768v6.5156a4.8369 4.8369 0 0 0 0.11914 0.28906 4.8369 4.8369 0 0 0-0.11914 0.29102v6.5156h-13.768a4.8369 4.8369 0 0 0-0.0742 0.0312 4.8369 4.8369 0 0 0-0.0742-0.0312h-14.207a4.8369 4.8369 0 0 0-0.0723 0.0312 4.8369 4.8369 0 0 0-0.0742-0.0312h-14.207a4.8369 4.8369 0 0 0-0.0742 0.0312 4.8369 4.8369 0 0 0-0.0723-0.0312h-13.768v-6.5156a4.8369 4.8369 0 0 0-0.12109-0.29102 4.8369 4.8369 0 0 0 0.12109-0.28906v-6.5156h13.768a4.8369 4.8369 0 0 0 0.0723-0.0293zm71.771 58.035a4.8369 4.8369 0 0 0 0.0742 0.0312h14.207a4.8369 4.8369 0 0 0 0.0742-0.0312 4.8369 4.8369 0 0 0 0.0742 0.0312h14.207a4.8369 4.8369 0 0 0 0.0723-0.0312 4.8369 4.8369 0 0 0 0.0742 0.0312h13.768v6.5156a4.8369 4.8369 0 0 0 0.11914 0.28906 4.8369 4.8369 0 0 0-0.11914 0.29102v6.5156h-13.768a4.8369 4.8369 0 0 0-0.0742 0.0312 4.8369 4.8369 0 0 0-0.0723-0.0312h-14.207a4.8369 4.8369 0 0 0-0.0742 0.0312 4.8369 4.8369 0 0 0-0.0742-0.0312h-14.207a4.8369 4.8369 0 0 0-0.0742 0.0312 4.8369 4.8369 0 0 0-0.0723-0.0312h-13.766v-6.5156a4.8369 4.8369 0 0 0-0.12109-0.29102 4.8369 4.8369 0 0 0 0.12109-0.28906v-6.5156h13.766a4.8369 4.8369 0 0 0 0.0723-0.0312z" fill-opacity="0" stroke="#b22525" stroke-linecap="round" stroke-linejoin="round" stroke-width="60"/><g transform="matrix(.24109 .24194 -.24194 .24109 422.59 127.37)"><path d="m483.11 480.09c-26.792-30.545-63.534-74.166-66.326-78.74-2.1732-3.5617-2.7137-14.071-1.9876-38.638 0.78359-26.514 0.23271-35.814-2.571-43.402-2.9757-8.0532-19.567-25.959-99.857-107.77-67.367-68.638-96.722-99.935-97.73-104.19-1.0047-4.2438 0.50177-8.1026 4.9816-12.761l6.4218-6.6776-18.266-17.814-22.749 22.335c-16.478 16.178-24.344 22.158-28.534 21.692-4.2416-0.47208-13.26-8.2076-33.804-28.992-15.41-15.593-28.101-29.083-28.201-29.979-0.09983-0.89647 4.1854-6.3772 9.5225-12.179l9.7039-10.549-11.461-11.461-72.073 72.073 11.434 11.434 9.5652-8.6386c5.2609-4.7512 10.974-8.4817 12.696-8.29 4.7201 0.52535 59.096 56.408 59.64 61.293 0.25986 2.3349-9.8675 14.76-22.506 27.613-12.637 12.852-22.859 24.438-22.714 25.745 0.1456 1.3082 3.7822 5.7775 8.0813 9.9318l7.8165 7.5533 5.8995-5.5917c3.2447-3.0754 7.4124-5.4234 9.2614-5.2176 1.849 0.20578 47.524 44.445 101.5 98.311 112.05 111.82 105.22 106.63 138.49 105.27 10.185-0.41776 25.515-0.55904 34.066-0.31388 18.668 0.53508 15.526-1.5789 68.9 46.371 21.206 19.052 39.481 34.746 40.61 34.877 1.1292 0.1309-3.2868-5.8496-9.813-13.29z" opacity=".3" stroke-width="2.3398"/><path d="m461.26 457.58c-26.792-30.545-63.534-74.166-66.326-78.74-2.1732-3.5617-2.7137-14.071-1.9876-38.638 0.7836-26.514 0.23272-35.814-2.571-43.402-2.9757-8.0532-19.567-25.959-99.857-107.77-67.367-68.638-96.722-99.935-97.73-104.19-1.0047-4.2438 0.50176-8.1026 4.9816-12.761l6.4218-6.6776-18.266-17.814-22.749 22.335c-16.478 16.178-24.344 22.158-28.534 21.692-4.2416-0.47209-13.26-8.2076-33.804-28.992-15.41-15.593-28.101-29.083-28.201-29.979-0.09978-0.89647 4.1854-6.3772 9.5225-12.179l9.7039-10.549-11.461-11.461-72.073 72.073 11.434 11.434 9.5652-8.6386c5.2609-4.7512 10.974-8.4817 12.696-8.29 4.7201 0.52535 59.096 56.408 59.64 61.293 0.25987 2.3349-9.8673 14.76-22.506 27.613-12.637 12.852-22.859 24.438-22.714 25.745 0.1456 1.3082 3.7822 5.7775 8.0813 9.9318l7.8165 7.5533 5.8995-5.5917c3.2447-3.0754 7.4124-5.4234 9.2614-5.2176s47.524 44.445 101.5 98.311c112.05 111.82 105.22 106.63 138.49 105.27 10.185-0.41776 25.515-0.55904 34.066-0.31388 18.668 0.53508 15.526-1.5789 68.9 46.371 21.206 19.052 39.481 34.746 40.61 34.877 1.1292 0.1309-3.2868-5.8496-9.813-13.29z" fill="#f8de68" stroke-width="2.3398"/><rect transform="matrix(-.70711 -.70711 -.70711 .70711 0 0)" x="-495.19" y="-61.816" width="303.26" height="119.53" rx="48.814" ry="28.889" fill="url(#m)" stroke-width="2.0399"/><path d="m183.55 108.07c9.9312 2.5464 20.837 8.8965 30.398 18.458l71.874 71.874c-2.3756 0.39043-4.3928 0.33168-5.7959-0.26503-19.972 38.059-45.316 53.482-70.001 53.528-22.032 0.0405-50.98-66.76-49.158-41.309 3.3227 46.426-32.202-19.605-38.21-41.563-6.1441 1.4142-11.547 2.5746-12.005 2.5791-0.38496 3e-3 -0.61353-1.891-0.59926-4.3955 0.31963-2.0028 0.8777-3.8798 1.6702-5.6109 1.1131-1.8854 2.7222-3.9604 4.7349-5.9909 1.7716-1.7873 3.4174-3.5714 4.9634-5.3495l37.586-37.586c5.6585-5.6585 14.616-6.9154 24.546-4.3688z" fill="#272a34" stroke-width="2.7199"/><path d="m183.56 108.09c9.9312 2.5465 20.837 8.8966 30.398 18.458l145.41 145.41c11.509 11.509 18.358 24.965 19.527 36.325-3.2426-8.1472-8.8111-16.611-16.424-24.224l-145.41-145.41c-19.123-19.123-43.627-25.406-54.944-14.089l-43.665 43.665c-4.5058 4.5058-6.2117 11.106-5.4381 18.62-4.9024-12.318-4.4764-23.909 2.3352-30.721l43.665-43.665c5.6585-5.6585 14.616-6.9155 24.547-4.3688z" opacity=".3" stroke-width="1.1697"/><g transform="matrix(1.0723,0,0,1.0723,-34.161,-34.784)" fill="#fd7d00"><circle cx="270.46" cy="308.79" r="10.847"/><circle cx="327.59" cy="341.33" r="10.847"/><circle cx="314.58" cy="300.11" r="20.249"/></g><path d="m80.402-1.5449-72.072 72.072 3 3 69.072-69.072 8.5859 8.5859 2.875-3.125-11.461-11.461zm-5.6992 36.805c-1.3097 1.7373-2.1073 2.998-2.0645 3.3828 0.1 0.896 12.789 14.387 28.199 29.98 20.544 20.784 29.563 28.52 33.805 28.992 4.19 0.466 12.057-5.5154 28.535-21.693l22.748-22.334 15.287 14.91 2.9785-3.0957-18.266-17.814-22.748 22.334c-16.478 16.178-24.345 22.159-28.535 21.693-4.2416-0.47209-13.261-8.2078-33.805-28.992-11.807-11.947-21.96-22.604-26.135-27.363zm118.27 50.07c-0.57894 1.8298-0.62819 3.6318-0.1836 5.5098 1.008 4.255 30.362 35.551 97.729 104.19 80.29 81.811 96.882 99.718 99.857 107.77 1.9087 5.1656 2.7549 11.267 2.8652 22.91 0.1415-15.73-0.65329-22.924-2.8652-28.91-2.9757-8.0532-19.567-25.96-99.857-107.77-65.224-66.454-94.813-97.904-97.545-103.7zm-92.83 44.316c-3.2544 5.0369-11.388 14.536-20.982 24.293-12.637 12.852-22.86 24.437-22.715 25.744 0.06104 0.54842 0.76017 1.6708 1.8398 3.0742 3.4672-4.4589 11.496-13.279 20.875-22.818 12.639-12.853 22.766-25.278 22.506-27.613-0.0516-0.46327-0.5918-1.3898-1.5234-2.6797zm292.53 230.41c-0.1287 14.79 0.55815 21.984 2.2637 24.779 2.7326 4.4768 37.936 46.288 64.553 76.705 6.6382 5.6775 11.053 9.2685 11.584 9.3301 1.1292 0.1309-3.2863-5.8506-9.8125-13.291l2e-3 -4e-3c-26.792-30.545-63.534-74.166-66.326-78.74-1.456-2.3862-2.1633-8.0179-2.2637-18.779z" fill="#fae895"/><path d="m88.988 7.041-6.8281 7.4238c-5.3371 5.8018-9.6213 11.281-9.5215 12.178 0.02338 0.20951 0.79041 1.1646 2.0645 2.6172 1.7411-2.3095 4.4111-5.4838 7.457-8.7949l9.7031-10.549-2.875-2.875zm-46.963 51.992c-1.722-0.1917-7.4344 3.5379-12.695 8.2891l-9.5664 8.6387-8.4336-8.4336-3 3 11.434 11.434 9.5664-8.6387c5.2609-4.7512 10.973-8.4808 12.695-8.2891 4.2725 0.47553 49.225 46.302 58.117 58.613 1.0326-1.5982 1.586-2.7579 1.5234-3.3203-0.544-4.885-54.921-60.768-59.641-61.293zm159.19 3.4648-3.4434 3.5801c-4.4798 4.6584-5.9852 8.5179-4.9805 12.762 0.0321 0.13537 0.0938 0.2998 0.1836 0.49023 0.72934-2.3052 2.2994-4.655 4.7969-7.252l6.4219-6.6758-2.9785-2.9043zm-142.93 114.26c-1.2042 1.5486-1.8772 2.5889-1.8398 2.9258 0.1456 1.3082 3.7829 5.7773 8.082 9.9316l7.8164 7.5527 5.8984-5.5898c3.2447-3.0754 7.4127-5.4246 9.2617-5.2187 1.849 0.20579 47.524 44.445 101.5 98.311 112.05 111.82 105.22 106.63 138.49 105.27 10.185-0.41776 25.515-0.55962 34.066-0.31446 18.668 0.53508 15.526-1.5788 68.9 46.371 21.206 19.052 39.48 34.746 40.609 34.877 1.1292 0.1309-3.2863-5.8506-9.8125-13.291l2e-3 -4e-3c-0.56961-0.6494-1.1953-1.3744-1.7734-2.0352-7.4752-6.3934-17.794-15.456-29.025-25.547-53.374-47.95-50.232-45.836-68.9-46.371-8.551-0.24516-23.881-0.1033-34.066 0.31446-33.27 1.36-26.44 6.5485-138.49-105.27-53.976-53.866-99.651-98.105-101.5-98.311s-6.017 2.1433-9.2617 5.2187l-5.8984 5.5898-7.8164-7.5527c-2.4969-2.4128-4.7464-4.9131-6.2422-6.8574zm334.96 142.95c-0.0378 4.2083-0.12757 8.8939-0.29296 14.49-0.23964 8.1078-0.32679 14.558-0.27735 19.859 0.0353-4.0557 0.12109-8.5725 0.27735-13.859 0.25015-8.4643 0.34469-15.03 0.29296-20.49z" fill="#ffc730"/></g><path d="m60.835 163.36a4.8369 4.8369 0 0 0-4.8364 4.8364v17.086a4.8369 4.8369 0 0 0 0.12091 0.28905 4.8369 4.8369 0 0 0-0.12091 0.29094v28.438a4.8369 4.8369 0 0 0 0.12091 0.28905 4.8369 4.8369 0 0 0-0.12091 0.29094v28.438a4.8369 4.8369 0 0 0 0.12091 0.28906 4.8369 4.8369 0 0 0-0.12091 0.29094v17.086a4.8369 4.8369 0 0 0 4.8364 4.8364h9.9827a4.8369 4.8369 0 0 0 0.07371-0.0302 4.8369 4.8369 0 0 0 0.07371 0.0302h14.207a4.8369 4.8369 0 0 0 0.07371-0.0302 4.8369 4.8369 0 0 0 0.07371 0.0302h14.207a4.8369 4.8369 0 0 0 0.07371-0.0302 4.8369 4.8369 0 0 0 0.07371 0.0302h14.207a4.8369 4.8369 0 0 0 0.0737-0.0302 4.8369 4.8369 0 0 0 0.0737 0.0302h13.767v6.5159a4.8369 4.8369 0 0 0 0.12091 0.28905 4.8369 4.8369 0 0 0-0.12091 0.29094v6.5159h-13.767a4.8369 4.8369 0 0 0-0.0737 0.0302 4.8369 4.8369 0 0 0-0.0737-0.0302h-14.207a4.8369 4.8369 0 0 0-0.07371 0.0302 4.8369 4.8369 0 0 0-0.07371-0.0302h-14.207a4.8369 4.8369 0 0 0-0.07371 0.0302 4.8369 4.8369 0 0 0-0.07371-0.0302h-14.207a4.8369 4.8369 0 0 0-0.07371 0.0302 4.8369 4.8369 0 0 0-0.07371-0.0302h-9.9827a4.8369 4.8369 0 0 0-4.8364 4.8364v17.086a4.8369 4.8369 0 0 0 0.12091 0.28905 4.8369 4.8369 0 0 0-0.12091 0.29094v17.086a4.8369 4.8369 0 0 0 4.8364 4.8364h9.9827a4.8369 4.8369 0 0 0 0.07371-0.0302 4.8369 4.8369 0 0 0 0.07371 0.0302h14.207a4.8369 4.8369 0 0 0 0.07371-0.0302 4.8369 4.8369 0 0 0 0.07371 0.0302h14.207a4.8369 4.8369 0 0 0 0.07371-0.0302 4.8369 4.8369 0 0 0 0.07371 0.0302h14.207a4.8369 4.8369 0 0 0 0.0737-0.0302 4.8369 4.8369 0 0 0 0.0737 0.0302h14.207a4.8369 4.8369 0 0 0 0.0737-0.0302 4.8369 4.8369 0 0 0 0.0737 0.0302h14.207a4.8369 4.8369 0 0 0 0.0737-0.0302 4.8369 4.8369 0 0 0 0.0737 0.0302h14.207a4.8369 4.8369 0 0 0 0.0737-0.0302 4.8369 4.8369 0 0 0 0.0737 0.0302h14.207a4.8369 4.8369 0 0 0 0.0737-0.0302 4.8369 4.8369 0 0 0 0.0737 0.0302h14.207a4.8369 4.8369 0 0 0 0.0737-0.0302 4.8369 4.8369 0 0 0 0.0737 0.0302h14.207a4.8369 4.8369 0 0 0 0.0737-0.0302 4.8369 4.8369 0 0 0 0.0737 0.0302h14.209a4.8369 4.8369 0 0 0 0.0718-0.0302 4.8369 4.8369 0 0 0 0.0737 0.0302h14.209a4.8369 4.8369 0 0 0 0.0718-0.0302 4.8369 4.8369 0 0 0 0.0737 0.0302h14.209a4.8369 4.8369 0 0 0 0.0737-0.0302 4.8369 4.8369 0 0 0 0.0737 0.0302h14.207a4.8369 4.8369 0 0 0 0.0737-0.0302 4.8369 4.8369 0 0 0 0.0737 0.0302h9.9808a4.8369 4.8369 0 0 0 4.8364-4.8364v-17.086a4.8369 4.8369 0 0 0-0.12091-0.29094 4.8369 4.8369 0 0 0 0.12091-0.28905v-28.438a4.8369 4.8369 0 0 0-0.12091-0.29094 4.8369 4.8369 0 0 0 0.12091-0.28905v-28.438a4.8369 4.8369 0 0 0-0.12091-0.29094 4.8369 4.8369 0 0 0 0.12091-0.28906v-17.086a4.8369 4.8369 0 0 0-4.8364-4.8364h-9.9808a4.8369 4.8369 0 0 0-0.0737 0.0302 4.8369 4.8369 0 0 0-0.0737-0.0302h-14.207a4.8369 4.8369 0 0 0-0.0737 0.0302 4.8369 4.8369 0 0 0-0.0737-0.0302h-14.209a4.8369 4.8369 0 0 0-0.0737 0.0302 4.8369 4.8369 0 0 0-0.0718-0.0302h-14.209a4.8369 4.8369 0 0 0-0.0737 0.0302 4.8369 4.8369 0 0 0-0.0718-0.0302h-13.767v-6.5159a4.8369 4.8369 0 0 0-0.12091-0.29094 4.8369 4.8369 0 0 0 0.12091-0.28905v-6.5159h13.767a4.8369 4.8369 0 0 0 0.0718-0.0302 4.8369 4.8369 0 0 0 0.0737 0.0302h14.209a4.8369 4.8369 0 0 0 0.0718-0.0302 4.8369 4.8369 0 0 0 0.0737 0.0302h14.209a4.8369 4.8369 0 0 0 0.0737-0.0302 4.8369 4.8369 0 0 0 0.0737 0.0302h14.207a4.8369 4.8369 0 0 0 0.0737-0.0302 4.8369 4.8369 0 0 0 0.0737 0.0302h14.207a4.8369 4.8369 0 0 0 0.0737-0.0302 4.8369 4.8369 0 0 0 0.0737 0.0302h14.207a4.8369 4.8369 0 0 0 0.0737-0.0302 4.8369 4.8369 0 0 0 0.0737 0.0302h13.767v6.5159a4.8369 4.8369 0 0 0 0.10768 0.26072 4.8369 4.8369 0 0 0-0.13224 0.31927v28.438a4.8369 4.8369 0 0 0 0.12091 0.28906 4.8369 4.8369 0 0 0-0.12091 0.29094v28.438a4.8369 4.8369 0 0 0 0.12091 0.28905 4.8369 4.8369 0 0 0-0.12091 0.29094v28.438a4.8369 4.8369 0 0 0 0.12091 0.28905 4.8369 4.8369 0 0 0-0.12091 0.29094v17.086a4.8369 4.8369 0 0 0 4.8364 4.8364h9.9827a4.8369 4.8369 0 0 0 0.0737-0.0302 4.8369 4.8369 0 0 0 0.0737 0.0302h14.207a4.8369 4.8369 0 0 0 0.0737-0.0302 4.8369 4.8369 0 0 0 0.0737 0.0302h9.9827a4.8369 4.8369 0 0 0 4.8364-4.8364v-17.086a4.8369 4.8369 0 0 0-0.12091-0.29094 4.8369 4.8369 0 0 0 0.12091-0.28905v-28.438a4.8369 4.8369 0 0 0-0.12091-0.29094 4.8369 4.8369 0 0 0 0.12091-0.28905v-28.438a4.8369 4.8369 0 0 0-0.12091-0.29094 4.8369 4.8369 0 0 0 0.12091-0.28906v-28.438a4.8369 4.8369 0 0 0-0.13225-0.31739 4.8369 4.8369 0 0 0 0.10958-0.2626v-6.5159h13.765a4.8369 4.8369 0 0 0 0.0737-0.0302 4.8369 4.8369 0 0 0 0.0756 0.0302h14.207a4.8369 4.8369 0 0 0 0.0737-0.0302 4.8369 4.8369 0 0 0 0.0737 0.0302h9.9826a4.8369 4.8369 0 0 0 4.8364-4.8364v-17.086a4.8369 4.8369 0 0 0-0.12091-0.29094 4.8369 4.8369 0 0 0 0.12091-0.28905v-17.086a4.8369 4.8369 0 0 0-4.8364-4.8364h-9.9826a4.8369 4.8369 0 0 0-0.0737 0.0302 4.8369 4.8369 0 0 0-0.0737-0.0302h-14.207a4.8369 4.8369 0 0 0-0.0756 0.0302 4.8369 4.8369 0 0 0-0.0737-0.0302h-14.207a4.8369 4.8369 0 0 0-0.0737 0.0302 4.8369 4.8369 0 0 0-0.0737-0.0302h-14.207a4.8369 4.8369 0 0 0-0.0737 0.0302 4.8369 4.8369 0 0 0-0.0737-0.0302h-14.207a4.8369 4.8369 0 0 0-0.0737 0.0302 4.8369 4.8369 0 0 0-0.0737-0.0302h-14.207a4.8369 4.8369 0 0 0-0.0737 0.0302 4.8369 4.8369 0 0 0-0.0737-0.0302h-14.207a4.8369 4.8369 0 0 0-0.0737 0.0302 4.8369 4.8369 0 0 0-0.0737-0.0302h-14.207a4.8369 4.8369 0 0 0-0.0737 0.0302 4.8369 4.8369 0 0 0-0.0737-0.0302h-14.207a4.8369 4.8369 0 0 0-0.0737 0.0302 4.8369 4.8369 0 0 0-0.0737-0.0302h-14.207a4.8369 4.8369 0 0 0-0.0737 0.0302 4.8369 4.8369 0 0 0-0.0737-0.0302h-14.209a4.8369 4.8369 0 0 0-0.0737 0.0302 4.8369 4.8369 0 0 0-0.0718-0.0302h-14.209a4.8369 4.8369 0 0 0-0.0737 0.0302 4.8369 4.8369 0 0 0-0.0718-0.0302h-14.209a4.8369 4.8369 0 0 0-0.0737 0.0302 4.8369 4.8369 0 0 0-0.0737-0.0302h-14.207a4.8369 4.8369 0 0 0-0.0737 0.0302 4.8369 4.8369 0 0 0-0.0737-0.0302h-14.207a4.8369 4.8369 0 0 0-0.0737 0.0302 4.8369 4.8369 0 0 0-0.0737-0.0302h-14.207a4.8369 4.8369 0 0 0-0.0737 0.0302 4.8369 4.8369 0 0 0-0.0737-0.0302h-14.207a4.8369 4.8369 0 0 0-0.0737 0.0302 4.8369 4.8369 0 0 0-0.0737-0.0302h-14.207a4.8369 4.8369 0 0 0-0.0737 0.0302 4.8369 4.8369 0 0 0-0.0737-0.0302h-14.207a4.8369 4.8369 0 0 0-0.0737 0.0302 4.8369 4.8369 0 0 0-0.0737-0.0302h-14.207a4.8369 4.8369 0 0 0-0.07371 0.0302 4.8369 4.8369 0 0 0-0.07371-0.0302h-14.207a4.8369 4.8369 0 0 0-0.07371 0.0302 4.8369 4.8369 0 0 0-0.07371-0.0302h-14.207a4.8369 4.8369 0 0 0-0.07371 0.0302 4.8369 4.8369 0 0 0-0.07371-0.0302zm24.411 15.376a4.8369 4.8369 0 0 0 0.07371 0.0302h14.207a4.8369 4.8369 0 0 0 0.07371-0.0302 4.8369 4.8369 0 0 0 0.07371 0.0302h14.207a4.8369 4.8369 0 0 0 0.0737-0.0302 4.8369 4.8369 0 0 0 0.0737 0.0302h14.207a4.8369 4.8369 0 0 0 0.0737-0.0302 4.8369 4.8369 0 0 0 0.0737 0.0302h14.207a4.8369 4.8369 0 0 0 0.0737-0.0302 4.8369 4.8369 0 0 0 0.0737 0.0302h13.742v6.5159a4.8369 4.8369 0 0 0 0.13224 0.31928 4.8369 4.8369 0 0 0-0.10769 0.26071v6.5159h-13.767a4.8369 4.8369 0 0 0-0.0737 0.0302 4.8369 4.8369 0 0 0-0.0737-0.0302h-14.207a4.8369 4.8369 0 0 0-0.0737 0.0302 4.8369 4.8369 0 0 0-0.0737-0.0302h-14.207a4.8369 4.8369 0 0 0-0.0737 0.0302 4.8369 4.8369 0 0 0-0.0737-0.0302h-14.207a4.8369 4.8369 0 0 0-0.07371 0.0302 4.8369 4.8369 0 0 0-0.07371-0.0302h-9.9827a4.8369 4.8369 0 0 0-4.8364 4.8364v17.086a4.8369 4.8369 0 0 0 0.12091 0.28905 4.8369 4.8369 0 0 0-0.12091 0.29094v17.086a4.8369 4.8369 0 0 0 4.8364 4.8364h9.9827a4.8369 4.8369 0 0 0 0.07371-0.0302 4.8369 4.8369 0 0 0 0.07371 0.0302h14.207a4.8369 4.8369 0 0 0 0.0737-0.0302 4.8369 4.8369 0 0 0 0.0737 0.0302h14.207a4.8369 4.8369 0 0 0 0.0737-0.0302 4.8369 4.8369 0 0 0 0.0737 0.0302h14.207a4.8369 4.8369 0 0 0 0.0737-0.0302 4.8369 4.8369 0 0 0 0.0737 0.0302h13.767v6.5159a4.8369 4.8369 0 0 0 0.10769 0.26072 4.8369 4.8369 0 0 0-0.13224 0.31927v28.438a4.8369 4.8369 0 0 0 0.12091 0.28906 4.8369 4.8369 0 0 0-0.12091 0.29093v28.438a4.8369 4.8369 0 0 0 0.12091 0.28905 4.8369 4.8369 0 0 0-0.12091 0.29094v6.5159h-13.742a4.8369 4.8369 0 0 0-0.0737 0.0302 4.8369 4.8369 0 0 0-0.0737-0.0302h-14.207a4.8369 4.8369 0 0 0-0.0737 0.0302 4.8369 4.8369 0 0 0-0.0737-0.0302h-14.207a4.8369 4.8369 0 0 0-0.0737 0.0302 4.8369 4.8369 0 0 0-0.0737-0.0302h-14.207a4.8369 4.8369 0 0 0-0.07371 0.0302 4.8369 4.8369 0 0 0-0.07371-0.0302h-14.207a4.8369 4.8369 0 0 0-0.07371 0.0302 4.8369 4.8369 0 0 0-0.07371-0.0302h-13.767v-6.5159a4.8369 4.8369 0 0 0-0.12091-0.29094 4.8369 4.8369 0 0 0 0.12091-0.28905v-6.5159h13.767a4.8369 4.8369 0 0 0 0.07371-0.0302 4.8369 4.8369 0 0 0 0.07371 0.0302h14.207a4.8369 4.8369 0 0 0 0.07371-0.0302 4.8369 4.8369 0 0 0 0.07371 0.0302h14.207a4.8369 4.8369 0 0 0 0.0737-0.0302 4.8369 4.8369 0 0 0 0.0737 0.0302h14.207a4.8369 4.8369 0 0 0 0.0737-0.0302 4.8369 4.8369 0 0 0 0.0737 0.0302h9.9826a4.8369 4.8369 0 0 0 4.8364-4.8364v-17.086a4.8369 4.8369 0 0 0-0.12091-0.29093 4.8369 4.8369 0 0 0 0.12091-0.28906v-17.086a4.8369 4.8369 0 0 0-4.8364-4.8364h-9.9826a4.8369 4.8369 0 0 0-0.0737 0.0302 4.8369 4.8369 0 0 0-0.0737-0.0302h-14.207a4.8369 4.8369 0 0 0-0.0737 0.0302 4.8369 4.8369 0 0 0-0.0737-0.0302h-14.207a4.8369 4.8369 0 0 0-0.07371 0.0302 4.8369 4.8369 0 0 0-0.07371-0.0302h-14.207a4.8369 4.8369 0 0 0-0.07371 0.0302 4.8369 4.8369 0 0 0-0.07371-0.0302h-13.767v-6.5159a4.8369 4.8369 0 0 0-0.10957-0.2626 4.8369 4.8369 0 0 0 0.13225-0.31739v-28.438a4.8369 4.8369 0 0 0-0.12091-0.29094 4.8369 4.8369 0 0 0 0.12091-0.28905v-28.438a4.8369 4.8369 0 0 0-0.13225-0.31738 4.8369 4.8369 0 0 0 0.10957-0.26261v-6.5159h13.767a4.8369 4.8369 0 0 0 0.07371-0.0302zm100.48 0a4.8369 4.8369 0 0 0 0.0737 0.0302h14.207a4.8369 4.8369 0 0 0 0.0737-0.0302 4.8369 4.8369 0 0 0 0.0737 0.0302h14.209a4.8369 4.8369 0 0 0 0.0718-0.0302 4.8369 4.8369 0 0 0 0.0737 0.0302h14.209a4.8369 4.8369 0 0 0 0.0718-0.0302 4.8369 4.8369 0 0 0 0.0737 0.0302h14.209a4.8369 4.8369 0 0 0 0.0737-0.0302 4.8369 4.8369 0 0 0 0.0737 0.0302h13.742v6.5159a4.8369 4.8369 0 0 0 0.12091 0.28906 4.8369 4.8369 0 0 0-0.12091 0.29093v6.5159h-13.742a4.8369 4.8369 0 0 0-0.0737 0.0302 4.8369 4.8369 0 0 0-0.0737-0.0302h-14.209a4.8369 4.8369 0 0 0-0.0737 0.0302 4.8369 4.8369 0 0 0-0.0718-0.0302h-14.209a4.8369 4.8369 0 0 0-0.0737 0.0302 4.8369 4.8369 0 0 0-0.0718-0.0302h-14.209a4.8369 4.8369 0 0 0-0.0737 0.0302 4.8369 4.8369 0 0 0-0.0737-0.0302h-9.9808a4.8369 4.8369 0 0 0-4.8364 4.8364v17.086a4.8369 4.8369 0 0 0 0.12091 0.28905 4.8369 4.8369 0 0 0-0.12091 0.29094v17.086a4.8369 4.8369 0 0 0 4.8364 4.8364h9.9808a4.8369 4.8369 0 0 0 0.0737-0.0302 4.8369 4.8369 0 0 0 0.0737 0.0302h14.209a4.8369 4.8369 0 0 0 0.0718-0.0302 4.8369 4.8369 0 0 0 0.0737 0.0302h14.209a4.8369 4.8369 0 0 0 0.0718-0.0302 4.8369 4.8369 0 0 0 0.0737 0.0302h14.209a4.8369 4.8369 0 0 0 0.0737-0.0302 4.8369 4.8369 0 0 0 0.0737 0.0302h13.765v6.5159a4.8369 4.8369 0 0 0 0.10957 0.2626 4.8369 4.8369 0 0 0-0.13224 0.31739v28.438a4.8369 4.8369 0 0 0 0.12091 0.28906 4.8369 4.8369 0 0 0-0.12091 0.29093v28.438a4.8369 4.8369 0 0 0 0.13224 0.31739 4.8369 4.8369 0 0 0-0.10957 0.2626v6.5159h-13.765a4.8369 4.8369 0 0 0-0.0737 0.0302 4.8369 4.8369 0 0 0-0.0737-0.0302h-14.209a4.8369 4.8369 0 0 0-0.0737 0.0302 4.8369 4.8369 0 0 0-0.0718-0.0302h-14.209a4.8369 4.8369 0 0 0-0.0737 0.0302 4.8369 4.8369 0 0 0-0.0718-0.0302h-14.209a4.8369 4.8369 0 0 0-0.0737 0.0302 4.8369 4.8369 0 0 0-0.0737-0.0302h-14.207a4.8369 4.8369 0 0 0-0.0737 0.0302 4.8369 4.8369 0 0 0-0.0737-0.0302h-13.742v-6.5159a4.8369 4.8369 0 0 0-0.13224-0.31738 4.8369 4.8369 0 0 0 0.10957-0.26261v-6.5159h13.765a4.8369 4.8369 0 0 0 0.0737-0.0302 4.8369 4.8369 0 0 0 0.0737 0.0302h14.207a4.8369 4.8369 0 0 0 0.0737-0.0302 4.8369 4.8369 0 0 0 0.0737 0.0302h14.209a4.8369 4.8369 0 0 0 0.0718-0.0302 4.8369 4.8369 0 0 0 0.0737 0.0302h14.209a4.8369 4.8369 0 0 0 0.0718-0.0302 4.8369 4.8369 0 0 0 0.0737 0.0302h9.9827a4.8369 4.8369 0 0 0 4.8364-4.8364v-17.086a4.8369 4.8369 0 0 0-0.12091-0.29093 4.8369 4.8369 0 0 0 0.12091-0.28906v-17.086a4.8369 4.8369 0 0 0-4.8364-4.8364h-9.9827a4.8369 4.8369 0 0 0-0.0737 0.0302 4.8369 4.8369 0 0 0-0.0718-0.0302h-14.209a4.8369 4.8369 0 0 0-0.0737 0.0302 4.8369 4.8369 0 0 0-0.0718-0.0302h-14.209a4.8369 4.8369 0 0 0-0.0737 0.0302 4.8369 4.8369 0 0 0-0.0737-0.0302h-14.207a4.8369 4.8369 0 0 0-0.0737 0.0302 4.8369 4.8369 0 0 0-0.0737-0.0302h-13.765v-6.5159a4.8369 4.8369 0 0 0-0.10957-0.2626 4.8369 4.8369 0 0 0 0.13224-0.31739v-28.438a4.8369 4.8369 0 0 0-0.12091-0.29094 4.8369 4.8369 0 0 0 0.12091-0.28905v-28.438a4.8369 4.8369 0 0 0-0.12091-0.29093 4.8369 4.8369 0 0 0 0.12091-0.28906v-6.5159h13.742a4.8369 4.8369 0 0 0 0.0737-0.0302zm100.48 0a4.8369 4.8369 0 0 0 0.0737 0.0302h14.207a4.8369 4.8369 0 0 0 0.0737-0.0302 4.8369 4.8369 0 0 0 0.0737 0.0302h14.207a4.8369 4.8369 0 0 0 0.0737-0.0302 4.8369 4.8369 0 0 0 0.0737 0.0302h14.207a4.8369 4.8369 0 0 0 0.0737-0.0302 4.8369 4.8369 0 0 0 0.0737 0.0302h14.207a4.8369 4.8369 0 0 0 0.0737-0.0302 4.8369 4.8369 0 0 0 0.0737 0.0302h14.207a4.8369 4.8369 0 0 0 0.0737-0.0302 4.8369 4.8369 0 0 0 0.0737 0.0302h13.767v6.5159a4.8369 4.8369 0 0 0 0.12091 0.28906 4.8369 4.8369 0 0 0-0.12091 0.29093v6.5159h-13.767a4.8369 4.8369 0 0 0-0.0737 0.0302 4.8369 4.8369 0 0 0-0.0737-0.0302h-14.207a4.8369 4.8369 0 0 0-0.0737 0.0302 4.8369 4.8369 0 0 0-0.0737-0.0302h-9.9827a4.8369 4.8369 0 0 0-4.8364 4.8364v17.086a4.8369 4.8369 0 0 0 0.12091 0.28905 4.8369 4.8369 0 0 0-0.12091 0.29094v28.438a4.8369 4.8369 0 0 0 0.12091 0.28905 4.8369 4.8369 0 0 0-0.12091 0.29094v28.438a4.8369 4.8369 0 0 0 0.12091 0.28906 4.8369 4.8369 0 0 0-0.12091 0.29093v28.438a4.8369 4.8369 0 0 0 0.13225 0.31928 4.8369 4.8369 0 0 0-0.10769 0.26071v6.5159h-13.327v-6.5159a4.8369 4.8369 0 0 0-0.10769-0.26071 4.8369 4.8369 0 0 0 0.13225-0.31928v-28.438a4.8369 4.8369 0 0 0-0.12091-0.29093 4.8369 4.8369 0 0 0 0.12091-0.28906v-28.438a4.8369 4.8369 0 0 0-0.12091-0.29094 4.8369 4.8369 0 0 0 0.12091-0.28905v-28.438a4.8369 4.8369 0 0 0-0.12091-0.29094 4.8369 4.8369 0 0 0 0.12091-0.28905v-17.086a4.8369 4.8369 0 0 0-4.8364-4.8364h-9.9828a4.8369 4.8369 0 0 0-0.0737 0.0302 4.8369 4.8369 0 0 0-0.0737-0.0302h-14.207a4.8369 4.8369 0 0 0-0.0737 0.0302 4.8369 4.8369 0 0 0-0.0737-0.0302h-13.744v-6.5159a4.8369 4.8369 0 0 0-0.12091-0.29093 4.8369 4.8369 0 0 0 0.12091-0.28906v-6.5159h13.744a4.8369 4.8369 0 0 0 0.0737-0.0302zm-172.25 29.018a4.8369 4.8369 0 0 0 0.0737 0.0302h14.207a4.8369 4.8369 0 0 0 0.0737-0.0302 4.8369 4.8369 0 0 0 0.0737 0.0302h14.207a4.8369 4.8369 0 0 0 0.0737-0.0302 4.8369 4.8369 0 0 0 0.0737 0.0302h13.767v6.5159a4.8369 4.8369 0 0 0 0.12091 0.28905 4.8369 4.8369 0 0 0-0.12091 0.29094v6.5159h-13.767a4.8369 4.8369 0 0 0-0.0737 0.0302 4.8369 4.8369 0 0 0-0.0737-0.0302h-14.207a4.8369 4.8369 0 0 0-0.0737 0.0302 4.8369 4.8369 0 0 0-0.0737-0.0302h-14.207a4.8369 4.8369 0 0 0-0.0737 0.0302 4.8369 4.8369 0 0 0-0.0737-0.0302h-13.767v-6.5159a4.8369 4.8369 0 0 0-0.12092-0.29094 4.8369 4.8369 0 0 0 0.12092-0.28905v-6.5159h13.767a4.8369 4.8369 0 0 0 0.0737-0.0302zm71.772 58.037a4.8369 4.8369 0 0 0 0.0737 0.0302h14.207a4.8369 4.8369 0 0 0 0.0737-0.0302 4.8369 4.8369 0 0 0 0.0737 0.0302h14.209a4.8369 4.8369 0 0 0 0.0718-0.0302 4.8369 4.8369 0 0 0 0.0737 0.0302h13.767v6.5159a4.8369 4.8369 0 0 0 0.12091 0.28906 4.8369 4.8369 0 0 0-0.12091 0.29093v6.5159h-13.767a4.8369 4.8369 0 0 0-0.0737 0.0302 4.8369 4.8369 0 0 0-0.0718-0.0302h-14.209a4.8369 4.8369 0 0 0-0.0737 0.0302 4.8369 4.8369 0 0 0-0.0737-0.0302h-14.207a4.8369 4.8369 0 0 0-0.0737 0.0302 4.8369 4.8369 0 0 0-0.0737-0.0302h-13.765v-6.5159a4.8369 4.8369 0 0 0-0.12091-0.29093 4.8369 4.8369 0 0 0 0.12091-0.28906v-6.5159h13.765a4.8369 4.8369 0 0 0 0.0737-0.0302z" fill="#fd7d00" fill-rule="evenodd" stop-color="#000000" stroke-linecap="round" stroke-linejoin="round" stroke-miterlimit="16.8" stroke-width=".96728"/><path d="m60.835 153.36a4.8369 4.8369 0 0 0-4.8364 4.8364v17.086a4.8369 4.8369 0 0 0 0.12091 0.28905 4.8369 4.8369 0 0 0-0.12091 0.29094v28.438a4.8369 4.8369 0 0 0 0.12091 0.28905 4.8369 4.8369 0 0 0-0.12091 0.29094v28.438a4.8369 4.8369 0 0 0 0.12091 0.28906 4.8369 4.8369 0 0 0-0.12091 0.29094v17.086a4.8369 4.8369 0 0 0 4.8364 4.8364h9.9827a4.8369 4.8369 0 0 0 0.07371-0.0302 4.8369 4.8369 0 0 0 0.07371 0.0302h14.207a4.8369 4.8369 0 0 0 0.07371-0.0302 4.8369 4.8369 0 0 0 0.07371 0.0302h14.207a4.8369 4.8369 0 0 0 0.07371-0.0302 4.8369 4.8369 0 0 0 0.07371 0.0302h14.207a4.8369 4.8369 0 0 0 0.0737-0.0302 4.8369 4.8369 0 0 0 0.0737 0.0302h13.767v6.5159a4.8369 4.8369 0 0 0 0.12091 0.28905 4.8369 4.8369 0 0 0-0.12091 0.29094v6.5159h-13.767a4.8369 4.8369 0 0 0-0.0737 0.0302 4.8369 4.8369 0 0 0-0.0737-0.0302h-14.207a4.8369 4.8369 0 0 0-0.07371 0.0302 4.8369 4.8369 0 0 0-0.07371-0.0302h-14.207a4.8369 4.8369 0 0 0-0.07371 0.0302 4.8369 4.8369 0 0 0-0.07371-0.0302h-14.207a4.8369 4.8369 0 0 0-0.07371 0.0302 4.8369 4.8369 0 0 0-0.07371-0.0302h-9.9827a4.8369 4.8369 0 0 0-4.8364 4.8364v17.086a4.8369 4.8369 0 0 0 0.12091 0.28905 4.8369 4.8369 0 0 0-0.12091 0.29094v17.086a4.8369 4.8369 0 0 0 4.8364 4.8364h9.9827a4.8369 4.8369 0 0 0 0.07371-0.0302 4.8369 4.8369 0 0 0 0.07371 0.0302h14.207a4.8369 4.8369 0 0 0 0.07371-0.0302 4.8369 4.8369 0 0 0 0.07371 0.0302h14.207a4.8369 4.8369 0 0 0 0.07371-0.0302 4.8369 4.8369 0 0 0 0.07371 0.0302h14.207a4.8369 4.8369 0 0 0 0.0737-0.0302 4.8369 4.8369 0 0 0 0.0737 0.0302h14.207a4.8369 4.8369 0 0 0 0.0737-0.0302 4.8369 4.8369 0 0 0 0.0737 0.0302h14.207a4.8369 4.8369 0 0 0 0.0737-0.0302 4.8369 4.8369 0 0 0 0.0737 0.0302h14.207a4.8369 4.8369 0 0 0 0.0737-0.0302 4.8369 4.8369 0 0 0 0.0737 0.0302h14.207a4.8369 4.8369 0 0 0 0.0737-0.0302 4.8369 4.8369 0 0 0 0.0737 0.0302h14.207a4.8369 4.8369 0 0 0 0.0737-0.0302 4.8369 4.8369 0 0 0 0.0737 0.0302h14.207a4.8369 4.8369 0 0 0 0.0737-0.0302 4.8369 4.8369 0 0 0 0.0737 0.0302h14.209a4.8369 4.8369 0 0 0 0.0718-0.0302 4.8369 4.8369 0 0 0 0.0737 0.0302h14.209a4.8369 4.8369 0 0 0 0.0718-0.0302 4.8369 4.8369 0 0 0 0.0737 0.0302h14.209a4.8369 4.8369 0 0 0 0.0737-0.0302 4.8369 4.8369 0 0 0 0.0737 0.0302h14.207a4.8369 4.8369 0 0 0 0.0737-0.0302 4.8369 4.8369 0 0 0 0.0737 0.0302h9.9808a4.8369 4.8369 0 0 0 4.8364-4.8364v-17.086a4.8369 4.8369 0 0 0-0.12091-0.29094 4.8369 4.8369 0 0 0 0.12091-0.28905v-28.438a4.8369 4.8369 0 0 0-0.12091-0.29094 4.8369 4.8369 0 0 0 0.12091-0.28905v-28.438a4.8369 4.8369 0 0 0-0.12091-0.29094 4.8369 4.8369 0 0 0 0.12091-0.28906v-17.086a4.8369 4.8369 0 0 0-4.8364-4.8364h-9.9808a4.8369 4.8369 0 0 0-0.0737 0.0302 4.8369 4.8369 0 0 0-0.0737-0.0302h-14.207a4.8369 4.8369 0 0 0-0.0737 0.0302 4.8369 4.8369 0 0 0-0.0737-0.0302h-14.209a4.8369 4.8369 0 0 0-0.0737 0.0302 4.8369 4.8369 0 0 0-0.0718-0.0302h-14.209a4.8369 4.8369 0 0 0-0.0737 0.0302 4.8369 4.8369 0 0 0-0.0718-0.0302h-13.767v-6.5159a4.8369 4.8369 0 0 0-0.12091-0.29094 4.8369 4.8369 0 0 0 0.12091-0.28905v-6.5159h13.767a4.8369 4.8369 0 0 0 0.0718-0.0302 4.8369 4.8369 0 0 0 0.0737 0.0302h14.209a4.8369 4.8369 0 0 0 0.0718-0.0302 4.8369 4.8369 0 0 0 0.0737 0.0302h14.209a4.8369 4.8369 0 0 0 0.0737-0.0302 4.8369 4.8369 0 0 0 0.0737 0.0302h14.207a4.8369 4.8369 0 0 0 0.0737-0.0302 4.8369 4.8369 0 0 0 0.0737 0.0302h14.207a4.8369 4.8369 0 0 0 0.0737-0.0302 4.8369 4.8369 0 0 0 0.0737 0.0302h14.207a4.8369 4.8369 0 0 0 0.0737-0.0302 4.8369 4.8369 0 0 0 0.0737 0.0302h13.767v6.5159a4.8369 4.8369 0 0 0 0.10768 0.26072 4.8369 4.8369 0 0 0-0.13224 0.31927v28.438a4.8369 4.8369 0 0 0 0.12091 0.28906 4.8369 4.8369 0 0 0-0.12091 0.29094v28.438a4.8369 4.8369 0 0 0 0.12091 0.28905 4.8369 4.8369 0 0 0-0.12091 0.29094v28.438a4.8369 4.8369 0 0 0 0.12091 0.28905 4.8369 4.8369 0 0 0-0.12091 0.29094v17.086a4.8369 4.8369 0 0 0 4.8364 4.8364h9.9827a4.8369 4.8369 0 0 0 0.0737-0.0302 4.8369 4.8369 0 0 0 0.0737 0.0302h14.207a4.8369 4.8369 0 0 0 0.0737-0.0302 4.8369 4.8369 0 0 0 0.0737 0.0302h9.9827a4.8369 4.8369 0 0 0 4.8364-4.8364v-17.086a4.8369 4.8369 0 0 0-0.12091-0.29094 4.8369 4.8369 0 0 0 0.12091-0.28905v-28.438a4.8369 4.8369 0 0 0-0.12091-0.29094 4.8369 4.8369 0 0 0 0.12091-0.28905v-28.438a4.8369 4.8369 0 0 0-0.12091-0.29094 4.8369 4.8369 0 0 0 0.12091-0.28906v-28.438a4.8369 4.8369 0 0 0-0.13225-0.31739 4.8369 4.8369 0 0 0 0.10958-0.2626v-6.5159h13.765a4.8369 4.8369 0 0 0 0.0737-0.0302 4.8369 4.8369 0 0 0 0.0756 0.0302h14.207a4.8369 4.8369 0 0 0 0.0737-0.0302 4.8369 4.8369 0 0 0 0.0737 0.0302h9.9826a4.8369 4.8369 0 0 0 4.8364-4.8364v-17.086a4.8369 4.8369 0 0 0-0.12091-0.29094 4.8369 4.8369 0 0 0 0.12091-0.28905v-17.086a4.8369 4.8369 0 0 0-4.8364-4.8364h-9.9826a4.8369 4.8369 0 0 0-0.0737 0.0302 4.8369 4.8369 0 0 0-0.0737-0.0302h-14.207a4.8369 4.8369 0 0 0-0.0756 0.0302 4.8369 4.8369 0 0 0-0.0737-0.0302h-14.207a4.8369 4.8369 0 0 0-0.0737 0.0302 4.8369 4.8369 0 0 0-0.0737-0.0302h-14.207a4.8369 4.8369 0 0 0-0.0737 0.0302 4.8369 4.8369 0 0 0-0.0737-0.0302h-14.207a4.8369 4.8369 0 0 0-0.0737 0.0302 4.8369 4.8369 0 0 0-0.0737-0.0302h-14.207a4.8369 4.8369 0 0 0-0.0737 0.0302 4.8369 4.8369 0 0 0-0.0737-0.0302h-14.207a4.8369 4.8369 0 0 0-0.0737 0.0302 4.8369 4.8369 0 0 0-0.0737-0.0302h-14.207a4.8369 4.8369 0 0 0-0.0737 0.0302 4.8369 4.8369 0 0 0-0.0737-0.0302h-14.207a4.8369 4.8369 0 0 0-0.0737 0.0302 4.8369 4.8369 0 0 0-0.0737-0.0302h-14.207a4.8369 4.8369 0 0 0-0.0737 0.0302 4.8369 4.8369 0 0 0-0.0737-0.0302h-14.209a4.8369 4.8369 0 0 0-0.0737 0.0302 4.8369 4.8369 0 0 0-0.0718-0.0302h-14.209a4.8369 4.8369 0 0 0-0.0737 0.0302 4.8369 4.8369 0 0 0-0.0718-0.0302h-14.209a4.8369 4.8369 0 0 0-0.0737 0.0302 4.8369 4.8369 0 0 0-0.0737-0.0302h-14.207a4.8369 4.8369 0 0 0-0.0737 0.0302 4.8369 4.8369 0 0 0-0.0737-0.0302h-14.207a4.8369 4.8369 0 0 0-0.0737 0.0302 4.8369 4.8369 0 0 0-0.0737-0.0302h-14.207a4.8369 4.8369 0 0 0-0.0737 0.0302 4.8369 4.8369 0 0 0-0.0737-0.0302h-14.207a4.8369 4.8369 0 0 0-0.0737 0.0302 4.8369 4.8369 0 0 0-0.0737-0.0302h-14.207a4.8369 4.8369 0 0 0-0.0737 0.0302 4.8369 4.8369 0 0 0-0.0737-0.0302h-14.207a4.8369 4.8369 0 0 0-0.0737 0.0302 4.8369 4.8369 0 0 0-0.0737-0.0302h-14.207a4.8369 4.8369 0 0 0-0.07371 0.0302 4.8369 4.8369 0 0 0-0.07371-0.0302h-14.207a4.8369 4.8369 0 0 0-0.07371 0.0302 4.8369 4.8369 0 0 0-0.07371-0.0302h-14.207a4.8369 4.8369 0 0 0-0.07371 0.0302 4.8369 4.8369 0 0 0-0.07371-0.0302zm24.411 15.376a4.8369 4.8369 0 0 0 0.07371 0.0302h14.207a4.8369 4.8369 0 0 0 0.07371-0.0302 4.8369 4.8369 0 0 0 0.07371 0.0302h14.207a4.8369 4.8369 0 0 0 0.0737-0.0302 4.8369 4.8369 0 0 0 0.0737 0.0302h14.207a4.8369 4.8369 0 0 0 0.0737-0.0302 4.8369 4.8369 0 0 0 0.0737 0.0302h14.207a4.8369 4.8369 0 0 0 0.0737-0.0302 4.8369 4.8369 0 0 0 0.0737 0.0302h13.742v6.5159a4.8369 4.8369 0 0 0 0.13224 0.31928 4.8369 4.8369 0 0 0-0.10769 0.26071v6.5159h-13.767a4.8369 4.8369 0 0 0-0.0737 0.0302 4.8369 4.8369 0 0 0-0.0737-0.0302h-14.207a4.8369 4.8369 0 0 0-0.0737 0.0302 4.8369 4.8369 0 0 0-0.0737-0.0302h-14.207a4.8369 4.8369 0 0 0-0.0737 0.0302 4.8369 4.8369 0 0 0-0.0737-0.0302h-14.207a4.8369 4.8369 0 0 0-0.07371 0.0302 4.8369 4.8369 0 0 0-0.07371-0.0302h-9.9827a4.8369 4.8369 0 0 0-4.8364 4.8364v17.086a4.8369 4.8369 0 0 0 0.12091 0.28905 4.8369 4.8369 0 0 0-0.12091 0.29094v17.086a4.8369 4.8369 0 0 0 4.8364 4.8364h9.9827a4.8369 4.8369 0 0 0 0.07371-0.0302 4.8369 4.8369 0 0 0 0.07371 0.0302h14.207a4.8369 4.8369 0 0 0 0.0737-0.0302 4.8369 4.8369 0 0 0 0.0737 0.0302h14.207a4.8369 4.8369 0 0 0 0.0737-0.0302 4.8369 4.8369 0 0 0 0.0737 0.0302h14.207a4.8369 4.8369 0 0 0 0.0737-0.0302 4.8369 4.8369 0 0 0 0.0737 0.0302h13.767v6.5159a4.8369 4.8369 0 0 0 0.10769 0.26072 4.8369 4.8369 0 0 0-0.13224 0.31927v28.438a4.8369 4.8369 0 0 0 0.12091 0.28906 4.8369 4.8369 0 0 0-0.12091 0.29093v28.438a4.8369 4.8369 0 0 0 0.12091 0.28905 4.8369 4.8369 0 0 0-0.12091 0.29094v6.5159h-13.742a4.8369 4.8369 0 0 0-0.0737 0.0302 4.8369 4.8369 0 0 0-0.0737-0.0302h-14.207a4.8369 4.8369 0 0 0-0.0737 0.0302 4.8369 4.8369 0 0 0-0.0737-0.0302h-14.207a4.8369 4.8369 0 0 0-0.0737 0.0302 4.8369 4.8369 0 0 0-0.0737-0.0302h-14.207a4.8369 4.8369 0 0 0-0.07371 0.0302 4.8369 4.8369 0 0 0-0.07371-0.0302h-14.207a4.8369 4.8369 0 0 0-0.07371 0.0302 4.8369 4.8369 0 0 0-0.07371-0.0302h-13.767v-6.5159a4.8369 4.8369 0 0 0-0.12091-0.29094 4.8369 4.8369 0 0 0 0.12091-0.28905v-6.5159h13.767a4.8369 4.8369 0 0 0 0.07371-0.0302 4.8369 4.8369 0 0 0 0.07371 0.0302h14.207a4.8369 4.8369 0 0 0 0.07371-0.0302 4.8369 4.8369 0 0 0 0.07371 0.0302h14.207a4.8369 4.8369 0 0 0 0.0737-0.0302 4.8369 4.8369 0 0 0 0.0737 0.0302h14.207a4.8369 4.8369 0 0 0 0.0737-0.0302 4.8369 4.8369 0 0 0 0.0737 0.0302h9.9826a4.8369 4.8369 0 0 0 4.8364-4.8364v-17.086a4.8369 4.8369 0 0 0-0.12091-0.29093 4.8369 4.8369 0 0 0 0.12091-0.28906v-17.086a4.8369 4.8369 0 0 0-4.8364-4.8364h-9.9826a4.8369 4.8369 0 0 0-0.0737 0.0302 4.8369 4.8369 0 0 0-0.0737-0.0302h-14.207a4.8369 4.8369 0 0 0-0.0737 0.0302 4.8369 4.8369 0 0 0-0.0737-0.0302h-14.207a4.8369 4.8369 0 0 0-0.07371 0.0302 4.8369 4.8369 0 0 0-0.07371-0.0302h-14.207a4.8369 4.8369 0 0 0-0.07371 0.0302 4.8369 4.8369 0 0 0-0.07371-0.0302h-13.767v-6.5159a4.8369 4.8369 0 0 0-0.10957-0.2626 4.8369 4.8369 0 0 0 0.13225-0.31739v-28.438a4.8369 4.8369 0 0 0-0.12091-0.29094 4.8369 4.8369 0 0 0 0.12091-0.28905v-28.438a4.8369 4.8369 0 0 0-0.13225-0.31738 4.8369 4.8369 0 0 0 0.10957-0.26261v-6.5159h13.767a4.8369 4.8369 0 0 0 0.07371-0.0302zm100.48 0a4.8369 4.8369 0 0 0 0.0737 0.0302h14.207a4.8369 4.8369 0 0 0 0.0737-0.0302 4.8369 4.8369 0 0 0 0.0737 0.0302h14.209a4.8369 4.8369 0 0 0 0.0718-0.0302 4.8369 4.8369 0 0 0 0.0737 0.0302h14.209a4.8369 4.8369 0 0 0 0.0718-0.0302 4.8369 4.8369 0 0 0 0.0737 0.0302h14.209a4.8369 4.8369 0 0 0 0.0737-0.0302 4.8369 4.8369 0 0 0 0.0737 0.0302h13.742v6.5159a4.8369 4.8369 0 0 0 0.12091 0.28906 4.8369 4.8369 0 0 0-0.12091 0.29093v6.5159h-13.742a4.8369 4.8369 0 0 0-0.0737 0.0302 4.8369 4.8369 0 0 0-0.0737-0.0302h-14.209a4.8369 4.8369 0 0 0-0.0737 0.0302 4.8369 4.8369 0 0 0-0.0718-0.0302h-14.209a4.8369 4.8369 0 0 0-0.0737 0.0302 4.8369 4.8369 0 0 0-0.0718-0.0302h-14.209a4.8369 4.8369 0 0 0-0.0737 0.0302 4.8369 4.8369 0 0 0-0.0737-0.0302h-9.9808a4.8369 4.8369 0 0 0-4.8364 4.8364v17.086a4.8369 4.8369 0 0 0 0.12091 0.28905 4.8369 4.8369 0 0 0-0.12091 0.29094v17.086a4.8369 4.8369 0 0 0 4.8364 4.8364h9.9808a4.8369 4.8369 0 0 0 0.0737-0.0302 4.8369 4.8369 0 0 0 0.0737 0.0302h14.209a4.8369 4.8369 0 0 0 0.0718-0.0302 4.8369 4.8369 0 0 0 0.0737 0.0302h14.209a4.8369 4.8369 0 0 0 0.0718-0.0302 4.8369 4.8369 0 0 0 0.0737 0.0302h14.209a4.8369 4.8369 0 0 0 0.0737-0.0302 4.8369 4.8369 0 0 0 0.0737 0.0302h13.765v6.5159a4.8369 4.8369 0 0 0 0.10957 0.2626 4.8369 4.8369 0 0 0-0.13224 0.31739v28.438a4.8369 4.8369 0 0 0 0.12091 0.28906 4.8369 4.8369 0 0 0-0.12091 0.29093v28.438a4.8369 4.8369 0 0 0 0.13224 0.31739 4.8369 4.8369 0 0 0-0.10957 0.2626v6.5159h-13.765a4.8369 4.8369 0 0 0-0.0737 0.0302 4.8369 4.8369 0 0 0-0.0737-0.0302h-14.209a4.8369 4.8369 0 0 0-0.0737 0.0302 4.8369 4.8369 0 0 0-0.0718-0.0302h-14.209a4.8369 4.8369 0 0 0-0.0737 0.0302 4.8369 4.8369 0 0 0-0.0718-0.0302h-14.209a4.8369 4.8369 0 0 0-0.0737 0.0302 4.8369 4.8369 0 0 0-0.0737-0.0302h-14.207a4.8369 4.8369 0 0 0-0.0737 0.0302 4.8369 4.8369 0 0 0-0.0737-0.0302h-13.742v-6.5159a4.8369 4.8369 0 0 0-0.13224-0.31738 4.8369 4.8369 0 0 0 0.10957-0.26261v-6.5159h13.765a4.8369 4.8369 0 0 0 0.0737-0.0302 4.8369 4.8369 0 0 0 0.0737 0.0302h14.207a4.8369 4.8369 0 0 0 0.0737-0.0302 4.8369 4.8369 0 0 0 0.0737 0.0302h14.209a4.8369 4.8369 0 0 0 0.0718-0.0302 4.8369 4.8369 0 0 0 0.0737 0.0302h14.209a4.8369 4.8369 0 0 0 0.0718-0.0302 4.8369 4.8369 0 0 0 0.0737 0.0302h9.9827a4.8369 4.8369 0 0 0 4.8364-4.8364v-17.086a4.8369 4.8369 0 0 0-0.12091-0.29093 4.8369 4.8369 0 0 0 0.12091-0.28906v-17.086a4.8369 4.8369 0 0 0-4.8364-4.8364h-9.9827a4.8369 4.8369 0 0 0-0.0737 0.0302 4.8369 4.8369 0 0 0-0.0718-0.0302h-14.209a4.8369 4.8369 0 0 0-0.0737 0.0302 4.8369 4.8369 0 0 0-0.0718-0.0302h-14.209a4.8369 4.8369 0 0 0-0.0737 0.0302 4.8369 4.8369 0 0 0-0.0737-0.0302h-14.207a4.8369 4.8369 0 0 0-0.0737 0.0302 4.8369 4.8369 0 0 0-0.0737-0.0302h-13.765v-6.5159a4.8369 4.8369 0 0 0-0.10957-0.2626 4.8369 4.8369 0 0 0 0.13224-0.31739v-28.438a4.8369 4.8369 0 0 0-0.12091-0.29094 4.8369 4.8369 0 0 0 0.12091-0.28905v-28.438a4.8369 4.8369 0 0 0-0.12091-0.29093 4.8369 4.8369 0 0 0 0.12091-0.28906v-6.5159h13.742a4.8369 4.8369 0 0 0 0.0737-0.0302zm100.48 0a4.8369 4.8369 0 0 0 0.0737 0.0302h14.207a4.8369 4.8369 0 0 0 0.0737-0.0302 4.8369 4.8369 0 0 0 0.0737 0.0302h14.207a4.8369 4.8369 0 0 0 0.0737-0.0302 4.8369 4.8369 0 0 0 0.0737 0.0302h14.207a4.8369 4.8369 0 0 0 0.0737-0.0302 4.8369 4.8369 0 0 0 0.0737 0.0302h14.207a4.8369 4.8369 0 0 0 0.0737-0.0302 4.8369 4.8369 0 0 0 0.0737 0.0302h14.207a4.8369 4.8369 0 0 0 0.0737-0.0302 4.8369 4.8369 0 0 0 0.0737 0.0302h13.767v6.5159a4.8369 4.8369 0 0 0 0.12091 0.28906 4.8369 4.8369 0 0 0-0.12091 0.29093v6.5159h-13.767a4.8369 4.8369 0 0 0-0.0737 0.0302 4.8369 4.8369 0 0 0-0.0737-0.0302h-14.207a4.8369 4.8369 0 0 0-0.0737 0.0302 4.8369 4.8369 0 0 0-0.0737-0.0302h-9.9827a4.8369 4.8369 0 0 0-4.8364 4.8364v17.086a4.8369 4.8369 0 0 0 0.12091 0.28905 4.8369 4.8369 0 0 0-0.12091 0.29094v28.438a4.8369 4.8369 0 0 0 0.12091 0.28905 4.8369 4.8369 0 0 0-0.12091 0.29094v28.438a4.8369 4.8369 0 0 0 0.12091 0.28906 4.8369 4.8369 0 0 0-0.12091 0.29093v28.438a4.8369 4.8369 0 0 0 0.13225 0.31928 4.8369 4.8369 0 0 0-0.10769 0.26071v6.5159h-13.327v-6.5159a4.8369 4.8369 0 0 0-0.10769-0.26071 4.8369 4.8369 0 0 0 0.13225-0.31928v-28.438a4.8369 4.8369 0 0 0-0.12091-0.29093 4.8369 4.8369 0 0 0 0.12091-0.28906v-28.438a4.8369 4.8369 0 0 0-0.12091-0.29094 4.8369 4.8369 0 0 0 0.12091-0.28905v-28.438a4.8369 4.8369 0 0 0-0.12091-0.29094 4.8369 4.8369 0 0 0 0.12091-0.28905v-17.086a4.8369 4.8369 0 0 0-4.8364-4.8364h-9.9828a4.8369 4.8369 0 0 0-0.0737 0.0302 4.8369 4.8369 0 0 0-0.0737-0.0302h-14.207a4.8369 4.8369 0 0 0-0.0737 0.0302 4.8369 4.8369 0 0 0-0.0737-0.0302h-13.744v-6.5159a4.8369 4.8369 0 0 0-0.12091-0.29093 4.8369 4.8369 0 0 0 0.12091-0.28906v-6.5159h13.744a4.8369 4.8369 0 0 0 0.0737-0.0302zm-172.25 29.018a4.8369 4.8369 0 0 0 0.0737 0.0302h14.207a4.8369 4.8369 0 0 0 0.0737-0.0302 4.8369 4.8369 0 0 0 0.0737 0.0302h14.207a4.8369 4.8369 0 0 0 0.0737-0.0302 4.8369 4.8369 0 0 0 0.0737 0.0302h13.767v6.5159a4.8369 4.8369 0 0 0 0.12091 0.28905 4.8369 4.8369 0 0 0-0.12091 0.29094v6.5159h-13.767a4.8369 4.8369 0 0 0-0.0737 0.0302 4.8369 4.8369 0 0 0-0.0737-0.0302h-14.207a4.8369 4.8369 0 0 0-0.0737 0.0302 4.8369 4.8369 0 0 0-0.0737-0.0302h-14.207a4.8369 4.8369 0 0 0-0.0737 0.0302 4.8369 4.8369 0 0 0-0.0737-0.0302h-13.767v-6.5159a4.8369 4.8369 0 0 0-0.12092-0.29094 4.8369 4.8369 0 0 0 0.12092-0.28905v-6.5159h13.767a4.8369 4.8369 0 0 0 0.0737-0.0302zm71.772 58.037a4.8369 4.8369 0 0 0 0.0737 0.0302h14.207a4.8369 4.8369 0 0 0 0.0737-0.0302 4.8369 4.8369 0 0 0 0.0737 0.0302h14.209a4.8369 4.8369 0 0 0 0.0718-0.0302 4.8369 4.8369 0 0 0 0.0737 0.0302h13.767v6.5159a4.8369 4.8369 0 0 0 0.12091 0.28906 4.8369 4.8369 0 0 0-0.12091 0.29093v6.5159h-13.767a4.8369 4.8369 0 0 0-0.0737 0.0302 4.8369 4.8369 0 0 0-0.0718-0.0302h-14.209a4.8369 4.8369 0 0 0-0.0737 0.0302 4.8369 4.8369 0 0 0-0.0737-0.0302h-14.207a4.8369 4.8369 0 0 0-0.0737 0.0302 4.8369 4.8369 0 0 0-0.0737-0.0302h-13.765v-6.5159a4.8369 4.8369 0 0 0-0.12091-0.29093 4.8369 4.8369 0 0 0 0.12091-0.28906v-6.5159h13.765a4.8369 4.8369 0 0 0 0.0737-0.0302z" fill="#f8de68" fill-rule="evenodd" stop-color="#000000" stroke-linecap="round" stroke-linejoin="round" stroke-miterlimit="16.8" stroke-width=".96728"/></svg>
